<svg xmlns="http://www.w3.org/2000/svg" xmlns:xlink="http://www.w3.org/1999/xlink" version="1.1" id="Layer_1" x="0px"
	y="0px" style="enable-background:new 0 0 1000 1000;" xml:space="preserve" viewBox="184 443.3 616.6 93.4">
	<style type="text/css">
		.st0 {
			fill: rgb(54, 69, 79);
		}
	</style>
	<g>
		<path class="st0"
			d="M211.6,527.2h0.5c2.4,0,3.5,1.2,3.5,3.5c0,2.6-1.7,3.9-5.1,3.9h-22.2c-2.8,0-4.3-1.2-4.3-3.7   c0-0.8,0.3-1.5,1-2.3c0.7-0.8,1.4-1.2,2.3-1.4l0.7-0.1c2-0.5,3.9-2.2,5.5-5.1c2.3-4.2,4.3-8.9,6.1-14.1l15.7-45.1l0.4-1.5l-0.5-1.5   l-1.1-1.8l-0.2-1.2c0-0.5,0.3-1,1-1.6l12.4-9.8c1.6-1.4,2.9-2.1,3.8-2.1c1.1,0,2,0.9,2.7,2.8l30,73.7c0.7,1.5,1.2,2.7,1.6,3.6   c0.4,0.9,0.8,1.6,1.3,2.2c0.4,0.6,1.4,0.9,2.7,0.9h0.5c1.1,0,1.9,0.3,2.6,1c0.7,0.7,1,1.6,1,2.7c0,1.6-0.4,2.7-1.1,3.3   c-0.7,0.6-2.2,0.9-4.4,0.9h-33.2c-3.3,0-5-1.3-5-3.8c0-1.1,0.4-2.1,1.1-2.9c0.7-0.8,1.7-1.2,2.8-1.2h1.2h1.8c0.7,0,1.3-0.4,1.8-1.1   c0.5-0.7,0.7-1.6,0.7-2.7c0-0.7-0.1-1.4-0.2-2c-0.1-0.6-0.4-1.6-0.9-3.1l-4.5-12.3c-0.2-0.8-0.5-1.3-0.9-1.5   c-0.4-0.2-1.1-0.3-2.3-0.3h-18.3c-1.5,0-2.4,0.6-2.7,1.8l-1.8,6.9c-1,3.4-1.5,6.9-1.5,10.5c0,1.1,0.3,2,1,2.9   c0.6,0.9,1.4,1.3,2.2,1.3H211.6z M213.9,493.4c0,0.7,0.5,1.1,1.5,1.1H227c1.2,0,1.8-0.3,1.8-1l-0.4-1.3l-6.9-17.4   c-0.2-0.3-0.4-0.7-0.6-1c-0.2-0.1-0.3-0.2-0.4-0.2c-0.6,0.6-0.9,1-1,1.2l-5.5,17.8L213.9,493.4z" />
		<path class="st0"
			d="M293.3,518.3v4.6c0,1.1,0.4,2,1.1,2.7c0.7,0.7,1.6,1.1,2.7,1.1h1.6c1.1,0,2,0.4,2.8,1.1   c0.8,0.7,1.2,1.6,1.2,2.7c0,2.8-1.7,4.1-5.1,4.1h-16.6c-3.4,0-5.1-1.4-5.1-4.1c0-1.1,0.4-2,1.1-2.7c0.7-0.7,1.7-1.1,2.9-1.1h1.5   c1.1,0,1.9-0.3,2.5-1c0.6-0.7,1-1.4,1.2-2.3c0.2-0.8,0.2-2.6,0.2-5.2v-0.9v-53.6v-0.6v-4.6c0-1.1-0.4-2.1-1.1-2.8   c-0.7-0.7-1.6-1.1-2.7-1.1h-1.5c-2.7,0-4.1-1.3-4.1-3.9c0-1.1,0.4-2,1.1-2.8c0.7-0.8,1.7-1.2,2.9-1.2h1h20.3l44,50   c1.4,1.5,2.3,2.2,2.7,2.2c0.7,0,1.1-1.1,1.1-3.2v-31.8v-0.7v-4.6c0-1.1-0.4-2.1-1.1-2.8c-0.7-0.7-1.6-1.1-2.7-1.1h-1.6   c-2.6,0-4-1.3-4-4c0-2.6,1.3-4,3.9-4h1.1h17.1h1.2c2.5,0,3.8,1.3,3.8,4c0,1.2-0.4,2.1-1.1,2.9c-0.7,0.7-1.6,1.1-2.7,1.1h-1.6   c-1.2,0-2.1,0.3-2.7,1c-0.6,0.7-0.9,1.3-1.1,1.8c-0.2,0.6-0.2,1.8-0.2,3.8v2v0.7v64.9v5.2c-0.1,0.6-0.5,1.2-1.2,1.8   c-0.7,0.5-1.6,0.8-2.6,0.8c-2.1,0-4.6-1.5-7.5-4.6l-52.9-58.8l0.1,44.2V518.3z" />
		<path class="st0"
			d="M407.8,462.6v22.4c0,1,0.1,1.6,0.4,1.9c0.3,0.3,1,0.4,2,0.4c2.5,0,4.8-0.8,6.8-2.4c2-1.6,3.2-3.5,3.5-5.8   l0.7-5.1c0.5-2.3,1.7-3.4,3.5-3.4c1.3,0,2.2,0.4,2.7,1.3c0.5,0.9,0.8,2.4,0.8,4.6v31.1l-0.5,2.1l-0.2,1.5c-0.4,1.5-1.4,2.3-3,2.3   c-1.8,0-2.9-1.4-3.5-4.2c-0.5-2.8-1-5-1.5-6.7c-0.5-1.7-1.1-3-1.7-4.1c-1.5-2.8-4-4.1-7.4-4.1c-1.1,0-1.7,0.1-2,0.4   c-0.3,0.3-0.4,0.9-0.4,1.8l-0.1,2.3v18.4v1v4.6c0.2,2.6,1.6,3.9,4,3.9h1.3c2.7,0,4,1.3,4,4c0,2.6-1.7,4-5,4h-33.4c-3.3,0-5-1.3-5-4   c0-1.2,0.4-2.1,1.1-2.8c0.7-0.7,1.7-1.1,2.9-1.1h1.5c1.1,0,2-0.4,2.7-1.1c0.7-0.7,1-1.4,1.1-1.9c0.1-0.5,0.1-2.3,0.1-5.4v-1v-53.5   v-0.7l-0.1-4.6c0-1.1-0.4-2.1-1.1-2.8c-0.7-0.7-1.6-1.1-2.7-1.1h-1.5c-2.7,0-4-1.3-4-3.8c0-2.7,1.7-4.1,5-4.1h59.2l4.4,19   c0.1,0.3,0.2,0.9,0.4,1.6c0.2,0.7,0.2,1.4,0.2,2c0,0.8-0.3,1.5-0.9,2.2c-0.6,0.7-1.3,1-2.2,1c-1.1,0-1.8-0.1-2.3-0.4   c-0.5-0.2-1-0.8-1.6-1.6l-2.8-4.3c-1.1-1.5-2.7-3.1-5-4.8c-2.3-1.7-4.4-3.1-6.3-4.1c-1.5-0.7-3.2-1.2-5.1-1.7s-3.4-0.7-4.6-0.7   c-2.9,0-4.4,1.6-4.4,4.8V462.6z" />
		<path class="st0"
			d="M461.7,527.2h0.5c2.4,0,3.5,1.2,3.5,3.5c0,2.6-1.7,3.9-5.1,3.9h-22.2c-2.8,0-4.3-1.2-4.3-3.7   c0-0.8,0.3-1.5,1-2.3c0.7-0.8,1.4-1.2,2.3-1.4l0.7-0.1c2-0.5,3.9-2.2,5.5-5.1c2.3-4.2,4.3-8.9,6.1-14.1l15.7-45.1l0.4-1.5l-0.5-1.5   l-1.1-1.8l-0.2-1.2c0-0.5,0.3-1,1-1.6l12.4-9.8c1.6-1.4,2.9-2.1,3.8-2.1c1.1,0,2,0.9,2.7,2.8l30,73.7c0.6,1.5,1.2,2.7,1.6,3.6   c0.4,0.9,0.8,1.6,1.3,2.2c0.4,0.6,1.4,0.9,2.7,0.9h0.5c1.1,0,1.9,0.3,2.6,1c0.7,0.7,1,1.6,1,2.7c0,1.6-0.4,2.7-1.1,3.3   c-0.7,0.6-2.2,0.9-4.4,0.9H485c-3.3,0-5-1.3-5-3.8c0-1.1,0.4-2.1,1.1-2.9c0.7-0.8,1.7-1.2,2.8-1.2h1.2h1.8c0.7,0,1.3-0.4,1.8-1.1   c0.5-0.7,0.7-1.6,0.7-2.7c0-0.7-0.1-1.4-0.2-2c-0.1-0.6-0.4-1.6-0.9-3.1l-4.5-12.3c-0.2-0.8-0.5-1.3-0.9-1.5   c-0.4-0.2-1.1-0.3-2.3-0.3h-18.3c-1.5,0-2.4,0.6-2.7,1.8l-1.8,6.9c-1,3.4-1.5,6.9-1.5,10.5c0,1.1,0.3,2,1,2.9   c0.7,0.9,1.4,1.3,2.2,1.3H461.7z M464,493.4c0,0.7,0.5,1.1,1.5,1.1h11.6c1.2,0,1.8-0.3,1.8-1l-0.4-1.3l-6.9-17.4   c-0.2-0.3-0.4-0.7-0.6-1c-0.2-0.1-0.3-0.2-0.4-0.2c-0.6,0.6-0.9,1-1,1.2l-5.5,17.8L464,493.4z" />
		<path class="st0"
			d="M582.7,518.2v-0.9V497v-2.4c-0.1-0.3-0.6-0.5-1.7-0.5h-19.2c-0.4,0-0.7,0-0.9,0.1c-0.2,0-0.4,0.1-0.7,0.3v2.6   v20.3v0.9v4.7c0,2.5,1.3,3.8,4,3.8h1.4c2.7,0,4.1,1.3,4.1,4c0,2.6-1.7,4-5,4h-33.5c-3.3,0-5-1.3-5-4c0-1.2,0.4-2.1,1.1-2.8   s1.7-1.1,2.9-1.1h1.5c1.2,0,2.2-0.4,2.8-1.2c0.4-0.4,0.7-1.1,0.9-1.9c0.2-0.9,0.2-2.7,0.2-5.4v-1V464v-0.9l-0.1-4.6   c0-1.1-0.4-2.1-1.1-2.8c-0.7-0.7-1.6-1.1-2.7-1.1h-1.5c-2.7,0-4-1.3-4-3.9c0-2.7,1.7-4,5-4h32.3h2.1c1.1,0,2.1,0.4,2.9,1.1   c0.8,0.7,1.2,1.7,1.2,2.8c0,2.7-1.3,4-3.9,4h-1.6c-1.5,0-2.6,0.6-3.1,1.7c-0.6,1.1-0.8,3.4-0.8,6.8v0.9v17.6v3   c0.9,0.2,1.8,0.2,2.8,0.2h17.1h2.6v-3.2V464v-0.9c0-3.4-0.3-5.7-0.8-6.9s-1.5-1.7-3.1-1.7h-1.6c-2.7,0-4-1.3-4-4   c0-2.6,1.7-3.9,5.1-3.9h33.4c3.4,0,5.1,1.3,5.1,4c0,1.1-0.4,2.1-1.1,2.8c-0.7,0.7-1.7,1.1-2.8,1.1h-1.6c-1.2,0-2.2,0.4-2.8,1.2   c-0.7,0.6-1,1.5-1.1,2.7c-0.1,1.2-0.1,2.8-0.1,4.6v0.9v53.2v1l0.1,4.6c0,2.6,1.3,3.9,3.9,3.9h1.6c1.1,0,2,0.4,2.7,1.1   c0.7,0.7,1.1,1.7,1.1,2.8c0,2.6-1.7,4-5,4h-33.4c-3.4,0-5.1-1.3-5.1-4c0-1.2,0.4-2.1,1.1-2.8c0.7-0.7,1.7-1.1,2.9-1.1h1.6   c1,0,1.8-0.4,2.6-1.2c0.8-0.8,1.2-1.6,1.2-2.6V518.2z" />
		<path class="st0"
			d="M628.6,534.6h-1.3c-0.9,0-1.7-0.4-2.3-1.2c-0.7-0.8-1-1.8-1-3c0-1.1,0.4-2,1.2-2.7c0.8-0.7,1.7-1.1,2.9-1.1   h1.5c2.7,0,4-2.4,4-7.1l-0.1-1.5v-1V464v-0.9l-0.1-4.7c0-1.1-0.4-1.9-1.1-2.7c-0.7-0.7-1.6-1.1-2.7-1.1H628c-2.7,0-4-1.3-4-3.9   c0-2.7,1.7-4,5-4h43.4c4,0,7.6,0.2,10.9,0.6c5.8,0.8,10.4,3.3,13.8,7.3c3.4,4.1,5.1,9.1,5.1,15.1c0,7.2-2.4,13-7.2,17.3   c-1.1,1-2.2,1.8-3.4,2.4c-1.2,0.6-2.2,0.9-3,0.9c-1.5,0.2-2.2,0.4-2.2,0.9l0.2,0.9l1.1,1.7l16.7,26c2.5,4,4.3,6.1,5.2,6.5l1.5,0.5   c2.4,0.9,3.5,2.2,3.5,3.8c0,1.2-0.4,2.2-1.3,3c-0.9,0.8-1.9,1.2-3.2,1.2H684l-17.5-36.5c-1-2.5-2.7-3.8-5.3-3.8h-1.1l-2.1,0.7v2.4   v19.7v1v4.6c0.2,1.1,0.6,2,1.3,2.7c0.7,0.8,1.6,1.2,2.7,1.2h1.6c2.6,0,3.9,1.3,3.9,4c0,2.6-1.7,4-5,4H628.6z M658,459v27.8   c2,0.6,4,1,5.9,1c3.7,0,6.8-1.6,9.3-4.9c2.5-3.2,3.8-7.3,3.8-12.3c0-4.9-1.1-8.8-3.4-11.7c-2.3-2.9-5.3-4.4-9.2-4.4H662   c-1.6,0-2.7,0.3-3.2,0.8C658.2,455.9,658,457.1,658,459z" />
		<path class="st0"
			d="M796,446.7l4,21.2l0.6,3.9c0,2-0.9,3.1-2.8,3.1l-1.6-0.2l-1.1-0.7l-3.2-3.8l-2.4-3.8c-0.9-1.1-1.9-2.3-2.9-3.4   c-1.1-1.1-2.3-2.4-3.8-3.8c-4.1-3.8-7.7-5.7-10.9-5.7c-1.1,0-1.9,0.4-2.4,1.3c-0.4,0.9-0.7,2.5-0.7,4.8l0.1,57.8l-0.1,1v2   c0,4.3,1.3,6.5,4,6.5h1.6c1.1,0,2,0.4,2.7,1.2c0.8,0.8,1.2,1.7,1.2,2.9c0,2.6-1.7,3.9-5.1,3.9H740c-3.4,0-5.1-1.4-5.1-4.1   c0-1.1,0.4-2,1.1-2.7c0.7-0.7,1.7-1.1,2.9-1.1h1.6c1.1,0,2-0.4,2.6-1.2c0.6-0.6,0.9-1.2,1.1-2c0.2-0.8,0.2-2.5,0.2-5.3v-0.9v-57.7   l-0.1-3.5c-0.2-1.5-1.1-2.2-2.9-2.2c-0.9,0-2.4,0.5-4.6,1.5c-2.7,1.3-4.8,2.6-6.3,4c-1.5,1.4-3.5,3.5-5.7,6.5l-3.5,4.6l-2.2,2.6   c-1.2,1.5-2.4,2.3-3.7,2.3c-0.7,0-1.4-0.3-2-0.9c-0.6-0.6-0.9-1.2-0.9-1.8l0.5-3.4l4.3-22.6H796z" />
	</g>
</svg>