<svg xmlns="http://www.w3.org/2000/svg" xmlns:xlink="http://www.w3.org/1999/xlink" version="1.1" id="Layer_1" x="0px" y="0px" style="enable-background:new 0 0 1000 1000;" xml:space="preserve" viewBox="113.92 298.61 762.42 396.55">
<style type="text/css">
	.st0{fill:rgb(54, 69, 79);}
	.st1{fill:rgba(0, 0, 0, 0.1)};
	.st2{fill:#FFA500;}
	.st3{fill:#AAAAAA;}
	.st4{fill:#FFFFFF;}
</style>
<path class="st1" d="M817.3,411.5c-86.1-7.1-88.7,63.3-64.2,86.5c24.5,23.2,41.9,2.7,38.8-10.3c0,0-41.5,4.5-41.5-29.9  c0-34.3,106.6-65.6,114.2,12.2c7,71.6-63.4,100.3-163.2,76c9.8-28.8,7.4-58.3-6.7-78.9c-33.4-48.9-103.2-55.1-205.6,4.7  c-46.2-15.9-93.8-30.5-138.4-40c0.7-62.2,49.6-122.4,110.3-124c71.8-1.8,103.5,64.2,66,86.5c-32.1,19.1-49.7,6.4-53.7,17.7  c-2.2,6.4,1.8,13.1,8.4,14.7c18.6,4.5,59.8-9.1,70.7-46c13.7-46.5-26.3-89.9-103.5-80.9c-61.4,7.1-107.7,62.7-112.5,129.1  c-44.1-8.3-84.6-10.9-117.2-3.8c-118.2,25.9-122.6,98.6-82.5,136c37.4,35,128.1,28,231.7-16.6c15.8,25.5,37.1,48.3,63.5,65.3  c-7.3,5.4-14.8,10.3-22.4,14.7c-10.4-9.5-25-16.8-42.9-19.2c-41.5-5.6-90.3,6.9-91.9,28.8c-1.6,21.9,17.2,35,69.4,25.6  c23.8-4.3,46.7-14.4,64.6-24.1c6.2,8.9,7.7,18.7,5.4,27c-5.8,20.7-33.4,18.1-33.4,18.1c9.9,28.1,42.6,10.7,46.8-13.6  c2-11.4-2.1-24.4-11.4-35.7c11.7-6.8,20.5-12.9,24.9-16.1c33.9,19.3,75.7,29.4,125.2,24.8c66.8-6.2,109-40.1,128.5-78.4  c24.8,4.8,48.5,7.3,70.4,6.6C902.9,564,903.4,418.6,817.3,411.5z M304.9,648.3c-23-10.3-11.6-36.8,42.1-36.8  c26.7,0,44.7,7.3,55.4,17.1C362.6,649.8,322.7,656.3,304.9,648.3z M660.8,452.5c32.8,18,42.8,55.9,29.6,90.8  c-5.2-1.4-10.4-3-15.8-4.7c-44.3-14.3-105.4-38.6-170.3-61.4C565.7,447.1,617.8,428.9,660.8,452.5z M464.3,487.2  c-24.8,15.8-51.4,30-78.3,42.2c-14.4-20.6-24.5-42.6-30.7-63.5c-1.5-5.2-2.6-10.4-3.4-15.6C387.6,459.8,425.6,473,464.3,487.2z   M148.3,555.5c-51.7-45-5.8-132.9,134.7-118.6c16.9,1.7,34.7,5,53.1,9.4c0.4,11.7,2.1,23.7,5.3,35.6c5.2,19.4,13,38.6,23.3,56.6  C275,575.4,185.5,587.9,148.3,555.5z M572,616.6c-86.9,4.6-146.3-33.8-182-81.6c0.3-0.1,0.6-0.3,0.9-0.4  c30-14.2,58.3-29.3,85.1-43.1c69.9,25.8,141.7,53.8,206.4,67.9C664.2,589.2,627.4,613.7,572,616.6z"/>
</svg>