<svg xmlns="http://www.w3.org/2000/svg" xmlns:xlink="http://www.w3.org/1999/xlink" version="1.1" id="Layer_1" x="0px" y="0px" style="enable-background:new 0 0 1000 1000;" xml:space="preserve" viewBox="17.6 443.3 956.4 93.3">
<style type="text/css">
	.st0{fill:rgb(54, 69, 79);}
</style>
<g>
	<path class="st0" d="M22.6,534.6c-1.5,0-2.8-0.4-3.7-1.1c-0.9-0.7-1.3-1.7-1.3-3c0-1.1,0.4-2,1.1-2.7c0.7-0.7,1.7-1.1,2.8-1.1h1.6   c1.2,0,2.1-0.4,2.6-1.1c0.6-0.6,1-1.3,1.2-2.1c0.1-0.8,0.2-2.6,0.2-5.4v-0.9v-53.7v-0.7l-0.1-4.7c0-1.1-0.4-2.1-1.1-2.8   c-0.7-0.7-1.6-1.1-2.7-1.1h-1.6c-2.6,0-3.9-1.3-3.9-3.8c0-2.5,1.7-3.8,5-3.8h39.3c13.5,0,24.3,4,32.5,12.1   c8.1,8.1,12.2,18.7,12.2,32.1c0,13.9-3.8,24.7-11.5,32.3c-7.6,7.6-18.4,11.5-32.3,11.5H22.6z M58.4,454.2c-2.6,0-4.4,0.5-5.4,1.6   c-1,1.1-1.5,3-1.5,6v59.4c0,2.3,0.3,3.7,1,4.1c0.3,0.4,1,0.7,2.1,1c1.1,0.2,2.4,0.4,3.8,0.4c4.6,0,8.7-1.5,12.2-4.5   c1.4-1.1,2.6-2.5,3.7-4c1.1-1.5,2-3.2,2.7-5.2c1.1-3.2,2-6.5,2.7-9.9c0.7-3.4,1-6.8,1-10.2c0-3.7-0.5-7.9-1.5-12.9   c-1-4.9-2.2-9.2-3.7-12.7c-1.7-4-4.1-7.2-7.1-9.5C65.5,455.4,62.1,454.2,58.4,454.2z"/>
	<path class="st0" d="M134,527.2h0.5c2.4,0,3.5,1.2,3.5,3.5c0,2.6-1.7,3.9-5.1,3.9h-22.2c-2.8,0-4.3-1.2-4.3-3.7   c0-0.8,0.3-1.5,1-2.3c0.7-0.8,1.4-1.2,2.3-1.4l0.7-0.1c2-0.5,3.9-2.2,5.5-5.1c2.3-4.2,4.3-8.9,6.1-14.1l15.7-45.1l0.4-1.5l-0.5-1.5   l-1.1-1.8l-0.2-1.2c0-0.5,0.3-1,1-1.6l12.4-9.8c1.6-1.4,2.9-2.1,3.8-2.1c1.1,0,2,0.9,2.7,2.8l30,73.7c0.6,1.5,1.2,2.7,1.6,3.6   c0.4,0.9,0.8,1.6,1.3,2.2c0.4,0.6,1.4,0.9,2.7,0.9h0.5c1.1,0,1.9,0.3,2.6,1c0.7,0.7,1,1.6,1,2.7c0,1.6-0.4,2.7-1.1,3.3   c-0.7,0.6-2.2,0.9-4.4,0.9h-33.2c-3.3,0-5-1.3-5-3.8c0-1.1,0.4-2.1,1.1-2.9c0.7-0.8,1.7-1.2,2.8-1.2h1.2h1.8c0.7,0,1.3-0.4,1.8-1.1   c0.5-0.7,0.7-1.6,0.7-2.7c0-0.7-0.1-1.4-0.2-2c-0.1-0.6-0.4-1.6-0.9-3.1l-4.5-12.3c-0.2-0.8-0.5-1.3-0.9-1.5   c-0.4-0.2-1.1-0.3-2.3-0.3h-18.3c-1.5,0-2.4,0.6-2.7,1.8l-1.8,6.9c-1,3.4-1.5,6.9-1.5,10.5c0,1.1,0.3,2,1,2.9   c0.7,0.9,1.4,1.3,2.2,1.3H134z M136.3,493.4c0,0.7,0.5,1.1,1.5,1.1h11.6c1.2,0,1.8-0.3,1.8-1l-0.4-1.3l-6.9-17.4   c-0.2-0.3-0.4-0.7-0.6-1c-0.2-0.1-0.3-0.2-0.4-0.2c-0.6,0.6-0.9,1-1,1.2l-5.5,17.8L136.3,493.4z"/>
	<path class="st0" d="M264.1,446.7l4,21.2l0.6,3.9c0,2-0.9,3-2.8,3l-1.6-0.2l-1.1-0.7l-3.2-3.8l-2.4-3.8c-0.9-1.1-1.9-2.3-2.9-3.4   c-1.1-1.1-2.3-2.4-3.8-3.8c-4.1-3.8-7.7-5.7-10.9-5.7c-1.1,0-1.9,0.4-2.4,1.3c-0.4,0.9-0.7,2.5-0.7,4.8l0.1,57.8l-0.1,1v2   c0,4.3,1.3,6.5,4,6.5h1.6c1.1,0,2,0.4,2.7,1.2c0.8,0.8,1.2,1.7,1.2,2.9c0,2.6-1.7,3.9-5.1,3.9h-33.3c-3.4,0-5.1-1.4-5.1-4.1   c0-1.1,0.4-2,1.1-2.7c0.7-0.7,1.7-1.1,2.9-1.1h1.6c1.1,0,2-0.4,2.6-1.2c0.6-0.6,0.9-1.2,1.1-2c0.2-0.8,0.2-2.5,0.2-5.3v-0.9v-57.7   l-0.1-3.5c-0.2-1.5-1.1-2.2-2.9-2.2c-0.9,0-2.4,0.5-4.6,1.5c-2.7,1.3-4.8,2.6-6.3,4c-1.5,1.4-3.5,3.5-5.7,6.5l-3.5,4.6L187,473   c-1.2,1.5-2.4,2.3-3.7,2.3c-0.7,0-1.4-0.3-2-0.9c-0.6-0.6-0.9-1.2-0.9-1.8l0.5-3.4l4.3-22.6H264.1z"/>
	<path class="st0" d="M345,534.6h-67.2c-3.3,0-5-1.3-5-3.8c0-2.6,1.3-3.9,4-3.9h1.5c1.5,0,2.6-0.6,3.2-1.7c0.6-1.1,0.9-3.4,0.9-6.7   v-1v-53.8v-0.7l-0.1-4.8c0-1.1-0.4-2-1.1-2.7c-0.7-0.7-1.6-1.1-2.7-1.1h-1.6c-2.6,0-3.9-1.3-3.9-3.8c0-1.1,0.5-2,1.5-2.8   c1-0.7,2.3-1.1,4-1.1h58.9l5,17.8l0.5,2c0.3,0.8,0.5,1.4,0.5,1.8c0,0.9-0.3,1.7-1,2.3c-0.7,0.7-1.5,1-2.6,1c-0.8,0-1.4-0.2-1.8-0.6   c-0.4-0.4-1.2-1.5-2.3-3.3c-2.3-3.4-5.8-6.5-10.6-9.2c-4.8-2.7-8.9-4.1-12.5-4.1c-2.3,0-3.9,0.7-4.8,2c-0.4,0.5-0.7,1.1-0.7,1.7   c-0.1,0.7-0.1,1.5-0.1,2.4v1.5v21.8c0,1.3,0.1,2.1,0.4,2.4c0.3,0.3,1,0.4,2.1,0.4c6.7,0,10.4-3.3,11.1-10l0.4-3.4   c0.4-2.7,1.5-4,3.2-4c1.3,0,2.4,0.5,3.2,1.5c0.3,0.7,0.5,1.3,0.5,2v3.8v28.5l-0.1,3.3v1.5c-0.5,1.5-1.5,2.2-3.1,2.2   c-2,0-3.1-1.1-3.5-3.3l-1.1-5.4c-0.5-2.9-1.6-5.2-3.4-7c-1.8-1.7-4-2.6-6.6-2.6c-1.1,0-1.9,0.2-2.4,0.5c-0.4,0.4-0.7,1.2-0.7,2.4   v20.7l0.1,4.5c0.5,3.4,2.6,5.1,6.5,5.1c6.3,0,12.6-2,19.2-6c3.7-2.3,6.5-4.6,8.5-6.8c0.9-0.7,1.5-1.3,2-1.8c0.2-0.2,1-1.3,2.6-3.3   c1.6-2,2.8-3,3.6-3c2.1,0,3.2,1.1,3.2,3.2c0,0.6-0.1,1.2-0.2,2c-0.2,0.8-0.5,2.1-1.1,3.8L345,534.6z"/>
	<path class="st0" d="M374.3,518.3v4.6c0,1.1,0.4,2,1.1,2.7c0.7,0.7,1.6,1.1,2.7,1.1h1.6c1.1,0,2,0.4,2.8,1.1   c0.8,0.7,1.2,1.6,1.2,2.7c0,2.8-1.7,4.1-5.1,4.1h-16.6c-3.4,0-5.1-1.4-5.1-4.1c0-1.1,0.4-2,1.1-2.7c0.7-0.7,1.7-1.1,2.9-1.1h1.5   c1.1,0,1.9-0.3,2.5-1c0.6-0.7,1-1.4,1.2-2.3c0.2-0.8,0.2-2.6,0.2-5.2v-0.9v-53.6v-0.6v-4.6c0-1.1-0.4-2.1-1.1-2.8   c-0.7-0.7-1.6-1.1-2.7-1.1h-1.5c-2.7,0-4.1-1.3-4.1-3.9c0-1.1,0.4-2,1.1-2.8c0.7-0.8,1.7-1.2,2.9-1.2h1h20.3l44,50   c1.4,1.5,2.3,2.2,2.7,2.2c0.7,0,1.1-1.1,1.1-3.2v-31.8v-0.7v-4.6c0-1.1-0.4-2.1-1.1-2.8c-0.7-0.7-1.6-1.1-2.7-1.1h-1.6   c-2.6,0-4-1.3-4-4c0-2.6,1.3-4,3.9-4h1.1h17.1h1.2c2.5,0,3.8,1.3,3.8,4c0,1.2-0.4,2.1-1.1,2.8c-0.7,0.7-1.6,1.1-2.7,1.1h-1.6   c-1.2,0-2.1,0.3-2.7,1c-0.6,0.7-0.9,1.3-1.1,1.8c-0.2,0.6-0.2,1.8-0.2,3.8v2v0.7v64.9v5.2c-0.1,0.7-0.5,1.2-1.2,1.8   c-0.7,0.5-1.6,0.8-2.6,0.8c-2.1,0-4.6-1.5-7.5-4.6l-52.9-58.8l0.1,44.2V518.3z"/>
	<path class="st0" d="M466.7,507l3,6.4c4.3,8.4,10.8,12.6,19.5,12.6c4.4,0,7.8-1,10.1-2.9c2.4-2,3.5-4.8,3.5-8.4c0-2-0.7-3.9-2-5.9   c-0.9-1.1-1.5-1.7-1.8-2.1c-1-0.8-1.7-1.4-2.2-1.8c-1.7-1.3-3.6-2.4-5.6-3.2c-2-0.9-5.4-2.1-10.3-3.6c-8.5-2.8-14.7-6.1-18.4-10.1   c-3.7-4-5.6-9.2-5.6-15.7c0-7.6,2.5-13.9,7.4-19.2c2.8-2.8,5.4-4.8,7.7-5.7c2.6-1,4.9-1.6,6.8-1.9c2-0.3,4.3-0.4,7.1-0.4h2.3   c2.3,0,4.7,0.3,7.1,0.9c2.5,0.6,4.5,1.3,6.2,2.2l1.8,0.5c0.5,0,0.9-0.2,1.1-0.5l0.7-1.5c0.7-1.1,1.5-1.6,2.7-1.6   c2.2,0,3.3,1.8,3.3,5.2l1.2,17.1l0.1,1.7c0,2.4-1,3.5-3,3.5l-1.6-0.4l-1.1-0.7l-1-1.5l-1.2-2.3c-4.6-8.8-10.9-13.2-19-13.2   c-3.4,0-6.2,0.8-8.2,2.5c-2.1,1.7-3.1,3.9-3.1,6.8c0,2.1,0.8,4.1,2.4,5.9c1.1,1.1,2.9,2.3,5.5,3.5c2.6,1.2,6.8,2.8,12.7,4.8   c5,1.7,8.7,3.1,10.9,4.1c2.2,1.1,4.4,2.4,6.5,4.1c6.1,4.8,9.2,11.4,9.2,19.9c0,8.9-3.2,16.3-9.6,22.2c-3.1,3-6.3,5.1-9.6,6.3   c-3.3,1.2-7.6,1.8-12.7,1.8c-3.2,0-6.2-0.2-9.1-0.7c-2.9-0.5-5.1-1.2-6.8-2l-3.4-2l-2-0.4c-1.3,0-2.3,0.7-2.9,2.2   c-0.7,1.5-1.5,2.2-2.6,2.2c-2.2,0-3.3-1.7-3.3-5.1l-1.3-23.6v-1.2c0-2.5,1.1-3.8,3.2-3.8c1.5,0,2.6,0.6,3.2,1.8l1.1,1.8L466.7,507z   "/>
	<path class="st0" d="M602,502.8c0.8-2.4,2.2-3.7,4-3.7c2.6,0,3.9,1.5,3.9,4.6c0,4.4-1.2,8.9-3.5,13.6c-2.4,4.7-5.4,8.4-9.2,11.3   c-6,4.9-13.3,7.3-21.8,7.3c-11.9,0-22-4.4-30.5-13.1c-8.5-8.7-12.7-19.2-12.7-31.6c0-13,4.1-23.9,12.4-32.8   c8.3-8.8,18.4-13.2,30.6-13.2c3.6,0,7.1,0.4,10.7,1.2c3.5,0.8,6.6,2,9.3,3.4c1.1,0.7,1.9,1,2.3,1.2c0.4,0.1,0.8,0.2,1.2,0.2   c0.7,0,1.1-0.1,1.3-0.4c0.2-0.2,0.7-1,1.2-2.4c0.6-1.3,1.5-2,2.7-2l2,0.4c0.5,0.2,0.9,0.6,1.1,1c0.2,0.4,0.4,1,0.5,1.5   c0.1,0.6,0.1,1.5,0.1,2.7v0.7v17.3c0,2.9-0.2,4.9-0.7,6c-0.5,1.1-1.3,1.6-2.6,1.6c-0.8,0-1.5-0.1-2-0.4c-0.5-0.3-1.1-0.8-1.8-1.6   l-0.9-2.3l-1.7-2.8c-3.1-5.2-6.1-8.8-9-10.9c-3.3-2.4-7-3.5-11.1-3.5c-6.2,0-11.1,3.1-14.7,9.2c-3.6,6.1-5.4,14.5-5.4,24.9   c0,10.2,2,18.2,5.9,23.7c3.9,5.6,9.5,8.4,16.8,8.4c5,0,9.4-1.5,13.1-4.5c3.7-3,6.3-7.2,7.9-12.6L602,502.8z"/>
	<path class="st0" d="M675,518.2v-0.9V497v-2.4c-0.1-0.3-0.6-0.5-1.7-0.5h-19.2c-0.4,0-0.7,0-0.9,0.1c-0.2,0-0.4,0.1-0.7,0.3v2.6   v20.3v0.9v4.7c0,2.5,1.3,3.8,4,3.8h1.4c2.7,0,4.1,1.3,4.1,4c0,2.6-1.7,4-5,4h-33.5c-3.3,0-5-1.3-5-4c0-1.2,0.4-2.1,1.1-2.9   c0.7-0.7,1.7-1.1,2.9-1.1h1.5c1.2,0,2.2-0.4,2.8-1.2c0.4-0.4,0.7-1.1,0.9-1.9c0.2-0.9,0.2-2.7,0.2-5.4v-1V464v-0.9l-0.1-4.6   c0-1.1-0.4-2.1-1.1-2.8c-0.7-0.7-1.6-1.1-2.7-1.1h-1.5c-2.7,0-4-1.3-4-3.9c0-2.7,1.7-4,5-4h32.3h2.1c1.1,0,2.1,0.4,2.9,1.1   c0.8,0.7,1.2,1.7,1.2,2.8c0,2.7-1.3,4-3.9,4h-1.6c-1.5,0-2.6,0.6-3.1,1.7c-0.6,1.1-0.8,3.4-0.8,6.8v0.9v17.6v3   c0.9,0.2,1.8,0.2,2.8,0.2h17.1h2.6v-3.2V464v-0.9c0-3.4-0.3-5.7-0.8-6.9s-1.5-1.7-3.1-1.7h-1.6c-2.6,0-4-1.3-4-4   c0-2.6,1.7-3.9,5.1-3.9h33.4c3.4,0,5.1,1.3,5.1,4c0,1.1-0.4,2.1-1.1,2.8c-0.7,0.7-1.7,1.1-2.8,1.1h-1.6c-1.2,0-2.2,0.4-2.8,1.2   c-0.7,0.6-1,1.5-1.1,2.7c-0.1,1.2-0.1,2.8-0.1,4.6v0.9v53.2v1l0.1,4.6c0,2.6,1.3,3.9,3.9,3.9h1.6c1.1,0,2,0.4,2.7,1.1   c0.7,0.7,1.1,1.7,1.1,2.9c0,2.6-1.7,4-5,4h-33.4c-3.4,0-5.1-1.3-5.1-4c0-1.2,0.4-2.1,1.1-2.9c0.7-0.7,1.7-1.1,2.9-1.1h1.6   c1,0,1.8-0.4,2.6-1.2c0.8-0.8,1.2-1.6,1.2-2.6V518.2z"/>
	<path class="st0" d="M720.3,454.3c-2.7,0-4-1.3-4-3.9c0-2.5,1.7-3.8,5-3.8h33.4c3.3,0,5,1.3,5,3.8c0,1.1-0.4,2-1.1,2.8   c-0.7,0.7-1.7,1.1-2.9,1.1h-1.3c-1.2,0-2.2,0.3-2.8,1c-0.7,0.7-1,1.7-1.1,2.9c-0.1,1.2-0.1,2.7-0.1,4.5v0.7V507   c0,5.8,1.4,10,4.2,12.5c2.8,2.6,7.3,3.9,13.6,3.9c12,0,18.1-7.1,18.1-21.3v-38.4v-0.7v-4.8c0-1.1-0.4-2-1.1-2.7   c-0.7-0.7-1.6-1.1-2.7-1.1h-1.6c-2.6,0-4-1.3-4-3.8c0-2.6,1.7-3.8,5.1-3.8H799c3.3,0,5,1.3,5,3.8c0,2.6-1.3,3.8-3.9,3.8h-1.6   c-0.6,0-1,0.1-1.3,0.2c-0.3,0.1-0.8,0.5-1.4,1c-0.6,0.6-1,1.5-1,2.7c-0.1,1.2-0.1,2.8-0.1,4.6v0.7v42.1c0,4.2-0.5,7.9-1.5,11   c-1,3.1-2.7,6-4.9,8.8c-5.8,7.3-15,11-27.8,11c-11.1,0-19.6-2.7-25.6-8.1c-6-5.4-9-13-9-23v-41.9v-0.7l-0.1-4.6   c0-1.1-0.4-2.1-1.1-2.8c-0.7-0.7-1.6-1.1-2.7-1.1H720.3z"/>
	<path class="st0" d="M891.6,446.7l4,21.2l0.6,3.9c0,2-0.9,3-2.8,3l-1.6-0.2l-1.1-0.7l-3.2-3.8l-2.4-3.8c-0.9-1.1-1.9-2.3-2.9-3.4   c-1.1-1.1-2.3-2.4-3.8-3.8c-4.1-3.8-7.7-5.7-10.9-5.7c-1.1,0-1.9,0.4-2.4,1.3c-0.4,0.9-0.7,2.5-0.7,4.8l0.1,57.8l-0.1,1v2   c0,4.3,1.3,6.5,4,6.5h1.6c1.1,0,2,0.4,2.7,1.2c0.8,0.8,1.2,1.7,1.2,2.9c0,2.6-1.7,3.9-5.1,3.9h-33.3c-3.4,0-5.1-1.4-5.1-4.1   c0-1.1,0.4-2,1.1-2.7c0.7-0.7,1.7-1.1,2.9-1.1h1.6c1.1,0,2-0.4,2.6-1.2c0.6-0.6,0.9-1.2,1.1-2c0.2-0.8,0.2-2.5,0.2-5.3v-0.9v-57.7   l-0.1-3.5c-0.2-1.5-1.1-2.2-2.9-2.2c-0.9,0-2.4,0.5-4.6,1.5c-2.7,1.3-4.8,2.6-6.3,4c-1.5,1.4-3.5,3.5-5.7,6.5l-3.5,4.6l-2.2,2.6   c-1.2,1.5-2.4,2.3-3.7,2.3c-0.7,0-1.4-0.3-2-0.9c-0.6-0.6-0.9-1.2-0.9-1.8l0.5-3.4l4.3-22.6H891.6z"/>
	<path class="st0" d="M898.5,531.6l0.4-1.2l0.1-0.5l38.3-73.3c0.2-0.3,0.4-0.9,0.6-1.6c0-0.1,0-0.2,0.1-0.4l-2.1-0.4h-2.4   c-2.1,0-4.6,0.5-7.6,1.5c-2.9,1-5.3,2.2-7.1,3.5c-2.8,2-5.5,4.6-7.9,7.6c-1.6,2-2.7,3.3-3.3,3.8c-0.6,0.5-1.3,0.7-2.2,0.7   c-1,0-1.6-0.2-2-0.5l-0.7-1.1c-0.4-0.6-0.6-1-0.6-1.2l0.2-0.7l0.4-1.8l7.8-19.3h52.3h2.4h0.9h0.9h1l0.4,0.7l0.1,0.5l-0.4,1   l-1.5,2.6l-35.9,68.9c-0.4,0.7-0.8,1.7-1.2,2.8c0,0.2-0.1,0.3-0.2,0.5c0,0.3,0.2,0.5,0.5,0.6c0.3,0.1,1.2,0.1,2.6,0.1h6.2   c2.3,0,4.9-0.5,7.9-1.5c3-1,5.5-2.1,7.6-3.5c3.6-2.5,7.4-6.6,11.3-12.4l1.5-1.9l1.1-1.5c0.7-0.8,1.7-1.2,3-1.2c2,0,3,1.3,3,4   l-0.7,3.8l-6.3,24.4h-63.9c-3.3,0-4.9-0.7-4.9-2.1L898.5,531.6z"/>
</g>
</svg>