<svg xmlns="http://www.w3.org/2000/svg" xmlns:xlink="http://www.w3.org/1999/xlink" version="1.1" id="Layer_1" x="0px" y="0px" style="enable-background:new 0 0 1089.8 1000;" xml:space="preserve" viewBox="10.8 444.6 1073.7 92.7">
<style type="text/css">
	.st0{fill:rgb(54, 69, 79);}
</style>
<g>
	<path class="st0" d="M83,534.6H15.8c-3.3,0-5-1.3-5-3.8c0-2.6,1.3-3.9,4-3.9h1.5c1.5,0,2.6-0.6,3.2-1.7c0.6-1.1,0.9-3.4,0.9-6.7v-1   v-53.8v-0.7l-0.1-4.8c0-1.1-0.4-2-1.1-2.7s-1.6-1.1-2.7-1.1h-1.6c-2.6,0-3.9-1.3-3.9-3.8c0-1.1,0.5-2,1.5-2.8c1-0.7,2.3-1.1,4-1.1   h58.9l5,17.8l0.5,2c0.3,0.8,0.5,1.4,0.5,1.8c0,0.9-0.3,1.7-1,2.3c-0.7,0.7-1.5,1-2.6,1c-0.8,0-1.4-0.2-1.8-0.6   c-0.4-0.4-1.2-1.5-2.3-3.3c-2.3-3.4-5.8-6.5-10.6-9.2c-4.8-2.7-8.9-4.1-12.5-4.1c-2.3,0-3.9,0.7-4.8,2c-0.4,0.5-0.7,1.1-0.7,1.7   c-0.1,0.7-0.1,1.5-0.1,2.4v1.5v21.8c0,1.3,0.1,2.1,0.4,2.4c0.3,0.3,1,0.4,2.1,0.4c6.7,0,10.4-3.3,11.1-10l0.4-3.4   c0.4-2.7,1.5-4,3.2-4c1.3,0,2.4,0.5,3.2,1.5c0.3,0.7,0.5,1.3,0.5,2v3.8v28.5l-0.1,3.3v1.5c-0.5,1.5-1.5,2.2-3,2.2   c-2,0-3.1-1.1-3.5-3.3l-1.1-5.4c-0.5-2.9-1.6-5.2-3.4-7c-1.8-1.7-4-2.6-6.6-2.6c-1.1,0-1.9,0.2-2.4,0.5c-0.4,0.4-0.7,1.2-0.7,2.4   v20.7l0.1,4.5c0.5,3.4,2.6,5.1,6.5,5.1c6.3,0,12.6-2,19.2-6c3.7-2.3,6.5-4.6,8.5-6.8c0.9-0.7,1.5-1.3,2-1.8c0.2-0.2,1-1.3,2.6-3.3   c1.6-2,2.8-3,3.6-3c2.1,0,3.2,1.1,3.2,3.2c0,0.6-0.1,1.2-0.2,2c-0.2,0.8-0.5,2.1-1.1,3.8L83,534.6z"/>
	<path class="st0" d="M112.7,468.4l0.1,48.9v0.9c0,3.4,0.3,5.7,0.8,6.8c0.5,1.1,1.6,1.7,3.2,1.7h1.7c2.8,0,4.3,1.4,4.3,4.1   c0,2.1-0.5,3.2-1.6,3.3l-2.8,0.5h-1.2H100c-3.3,0-5-1.3-5-4c0-1.2,0.4-2.1,1.1-2.8c0.7-0.7,1.7-1.1,2.9-1.1h1.5   c1.1,0,2-0.4,2.7-1.1c0.7-0.7,1-1.7,1.1-2.9c0.1-1.2,0.1-2.7,0.1-4.6v-1v-53.4v-0.7v-4.6c0-1.1-0.4-2.1-1.1-2.8   c-0.7-0.7-1.6-1.1-2.7-1.1h-1.5c-2.7,0-4.1-1.3-4.1-4c0-2.6,1.7-4,5-4h29.6l14.3,46.7c0.2,0.6,0.3,0.9,0.5,1.1   c0.2,0.2,0.4,0.4,0.6,0.6c0.2-0.2,0.3-0.4,0.4-0.5c0.4-0.5,0.7-0.9,0.9-1.3l17.4-46.6h29.9c3.4,0,5.1,1.4,5.1,4.2   c0,1-0.4,1.9-1.2,2.6c-0.8,0.7-1.7,1.1-2.9,1.1H193c-1.1,0-1.9,0.3-2.6,1c-0.7,0.7-1,1.4-1.2,2.1c-0.1,0.7-0.2,2.5-0.2,5.4v1v53v1   l0.1,4.6c0,2.6,1.3,3.9,3.8,3.9h1.6c2.7,0,4,1.2,4,3.7c0,2.8-1.7,4.3-5.1,4.3H160c-3.4,0-5.1-1.4-5.1-4.1c0-1.1,0.4-2,1.1-2.7   c0.7-0.7,1.7-1.1,2.8-1.1h1.6c1.5,0,2.6-0.6,3.2-1.8c0.6-1.2,0.9-3.5,0.9-6.7v-1v-47l-22.8,63.1l-1,1.8c-0.6,1.6-1.4,2.4-2.4,2.4   c-1.5,0-2.7-1.3-3.4-3.9L112.7,468.4z"/>
	<path class="st0" d="M239.9,495.6l-0.5,1.7v20.1v0.7v4.6c0.2,2.6,1.6,3.9,4,3.9h1.3c1.1,0,2.1,0.4,2.9,1.1c0.8,0.7,1.2,1.6,1.2,2.7   c0,2.8-1.7,4.1-5,4.1h-33.4c-1.5,0-2.8-0.4-3.7-1.1c-0.9-0.7-1.3-1.7-1.3-3c0-1.1,0.4-2,1.1-2.7c0.7-0.7,1.7-1.1,2.9-1.1h1.5   c1.1,0,2-0.4,2.7-1.2c0.6-0.6,1-1.5,1.1-2.7c0.1-1.3,0.1-2.8,0.1-4.6v-0.5V464v-0.9l-0.1-4.6c0-1.1-0.4-2.1-1.1-2.8   s-1.6-1.1-2.7-1.1h-1.5c-2.7,0-4-1.3-4-3.9c0-2.7,1.7-4,5-4h40.4H261c5.9,0,11,2.4,15.4,7.2c4.4,4.8,6.6,10.3,6.6,16.6   c0,6.3-2.2,12-6.7,17.1c-3.5,4.1-8.9,6.6-16.1,7.7l-4.4,0.4h-13.5H239.9z M239.4,458.6v28.3c0.7,0.2,1.6,0.3,2.7,0.5   c1.1,0.2,2.1,0.2,2.9,0.2c9.1,0,13.7-4.7,13.7-14.2V469l-0.5-3.8c0-1.1-0.2-2.2-0.6-3.4c-0.4-1.2-0.9-2.2-1.6-3.1   c-2-3.3-5.5-4.9-10.2-4.9c-3.8,0-5.9,1-6.3,2.9V458.6z"/>
	<path class="st0" d="M322.4,462.6v22.4c0,1,0.1,1.6,0.4,1.9c0.3,0.3,1,0.4,2,0.4c2.5,0,4.8-0.8,6.8-2.4c2-1.6,3.2-3.5,3.5-5.8   l0.7-5.1c0.5-2.3,1.7-3.4,3.5-3.4c1.3,0,2.2,0.4,2.7,1.3s0.8,2.4,0.8,4.6v31.1l-0.5,2.1l-0.2,1.5c-0.4,1.5-1.4,2.3-3,2.3   c-1.8,0-2.9-1.4-3.5-4.2c-0.5-2.8-1-5-1.5-6.7c-0.5-1.7-1.1-3-1.7-4.1c-1.5-2.8-4-4.1-7.4-4.1c-1.1,0-1.7,0.1-2,0.4   c-0.3,0.3-0.4,0.9-0.4,1.8l-0.1,2.3v18.4v1v4.6c0.2,2.6,1.6,3.9,4,3.9h1.3c2.7,0,4,1.3,4,4c0,2.6-1.7,4-5,4h-33.4c-3.3,0-5-1.3-5-4   c0-1.2,0.4-2.1,1.1-2.8s1.7-1.1,2.9-1.1h1.5c1.1,0,2-0.4,2.7-1.1c0.7-0.7,1-1.4,1.1-1.9c0.1-0.5,0.1-2.3,0.1-5.4v-1v-53.5v-0.7   l-0.1-4.6c0-1.1-0.4-2.1-1.1-2.8c-0.7-0.7-1.6-1.1-2.7-1.1h-1.5c-2.7,0-4-1.3-4-3.8c0-2.7,1.7-4.1,5-4.1h59.2l4.4,19   c0.1,0.3,0.2,0.9,0.4,1.6c0.2,0.7,0.2,1.4,0.2,2c0,0.8-0.3,1.5-0.9,2.2c-0.6,0.7-1.3,1-2.2,1c-1.1,0-1.8-0.1-2.3-0.4   c-0.5-0.2-1-0.8-1.6-1.6l-2.8-4.3c-1.1-1.5-2.7-3.1-5-4.8c-2.3-1.7-4.4-3.1-6.3-4.1c-1.5-0.6-3.2-1.2-5.1-1.7   c-1.8-0.5-3.4-0.7-4.6-0.7c-2.9,0-4.4,1.6-4.4,4.8V462.6z"/>
	<path class="st0" d="M433.6,534.6h-67.2c-3.3,0-5-1.3-5-3.8c0-2.6,1.3-3.9,4-3.9h1.5c1.5,0,2.6-0.6,3.2-1.7   c0.6-1.1,0.9-3.4,0.9-6.7v-1v-53.8v-0.7l-0.1-4.8c0-1.1-0.4-2-1.1-2.7c-0.7-0.7-1.6-1.1-2.7-1.1h-1.6c-2.6,0-3.9-1.3-3.9-3.8   c0-1.1,0.5-2,1.5-2.8c1-0.7,2.3-1.1,4-1.1h58.9l5,17.8l0.5,2c0.3,0.8,0.5,1.4,0.5,1.8c0,0.9-0.3,1.7-1,2.3c-0.7,0.7-1.5,1-2.6,1   c-0.8,0-1.4-0.2-1.8-0.6c-0.4-0.4-1.2-1.5-2.3-3.3c-2.3-3.4-5.8-6.5-10.6-9.2c-4.8-2.7-8.9-4.1-12.5-4.1c-2.3,0-3.9,0.7-4.8,2   c-0.4,0.5-0.7,1.1-0.7,1.7c-0.1,0.7-0.1,1.5-0.1,2.4v1.5v21.8c0,1.3,0.1,2.1,0.4,2.4c0.3,0.3,1,0.4,2.1,0.4c6.7,0,10.4-3.3,11.1-10   l0.4-3.4c0.4-2.7,1.5-4,3.2-4c1.3,0,2.4,0.5,3.2,1.5c0.3,0.7,0.5,1.3,0.5,2v3.8v28.5l-0.1,3.3v1.5c-0.5,1.5-1.5,2.2-3.1,2.2   c-2,0-3.1-1.1-3.5-3.3l-1.1-5.4c-0.5-2.9-1.6-5.2-3.4-7c-1.8-1.7-4-2.6-6.6-2.6c-1.1,0-1.9,0.2-2.4,0.5c-0.4,0.4-0.7,1.2-0.7,2.4   v20.7l0.1,4.5c0.5,3.4,2.6,5.1,6.5,5.1c6.3,0,12.6-2,19.2-6c3.7-2.3,6.5-4.6,8.5-6.8c0.9-0.7,1.5-1.3,2-1.8c0.2-0.2,1-1.3,2.6-3.3   c1.6-2,2.8-3,3.6-3c2.1,0,3.2,1.1,3.2,3.2c0,0.6-0.1,1.2-0.2,2c-0.2,0.8-0.5,2.1-1.1,3.8L433.6,534.6z"/>
	<path class="st0" d="M502.1,518.2v-0.9V497v-2.4c-0.1-0.3-0.6-0.5-1.7-0.5h-19.2c-0.4,0-0.7,0-0.9,0.1c-0.2,0-0.4,0.1-0.7,0.3v2.6   v20.3v0.9v4.7c0,2.5,1.3,3.8,4,3.8h1.4c2.7,0,4.1,1.3,4.1,4c0,2.6-1.7,4-5,4h-33.5c-3.3,0-5-1.3-5-4c0-1.2,0.4-2.1,1.1-2.8   s1.7-1.1,2.9-1.1h1.5c1.2,0,2.2-0.4,2.8-1.2c0.4-0.4,0.7-1.1,0.9-1.9c0.2-0.9,0.2-2.7,0.2-5.4v-1V464v-0.9l-0.1-4.6   c0-1.1-0.4-2.1-1.1-2.8c-0.7-0.7-1.6-1.1-2.7-1.1h-1.5c-2.7,0-4-1.3-4-3.9c0-2.7,1.7-4,5-4h32.3h2.1c1.1,0,2.1,0.4,2.9,1.1   c0.8,0.7,1.2,1.7,1.2,2.8c0,2.7-1.3,4-3.9,4h-1.6c-1.5,0-2.6,0.6-3.1,1.7c-0.6,1.1-0.8,3.4-0.8,6.8v0.9v17.6v3   c0.9,0.2,1.8,0.2,2.8,0.2h17.1h2.6v-3.2V464v-0.9c0-3.4-0.3-5.7-0.8-6.9c-0.5-1.1-1.5-1.7-3.1-1.7h-1.6c-2.6,0-4-1.3-4-4   c0-2.6,1.7-3.9,5.1-3.9h33.4c3.4,0,5.1,1.3,5.1,4c0,1.1-0.4,2.1-1.1,2.8s-1.7,1.1-2.8,1.1h-1.6c-1.2,0-2.2,0.4-2.8,1.2   c-0.7,0.6-1,1.5-1.1,2.7c-0.1,1.2-0.1,2.8-0.1,4.6v0.9v53.2v1l0.1,4.6c0,2.6,1.3,3.9,3.9,3.9h1.6c1.1,0,2,0.4,2.7,1.1   s1.1,1.7,1.1,2.8c0,2.6-1.7,4-5,4h-33.4c-3.4,0-5.1-1.3-5.1-4c0-1.2,0.4-2.1,1.1-2.8c0.7-0.7,1.7-1.1,2.9-1.1h1.6   c1,0,1.8-0.4,2.6-1.2c0.8-0.8,1.2-1.6,1.2-2.6V518.2z"/>
	<path class="st0" d="M615.1,534.6h-66.7c-3.3,0-5-1.4-5-4.1c0-1.1,0.4-2,1.1-2.7c0.7-0.7,1.7-1.1,2.9-1.1h1.5   c1.5,0,2.5-0.6,3.2-1.9c0.7-1.3,1-3.5,1-6.6v-0.9v-53.5v-0.7l-0.1-4.6c-0.2-2.6-1.5-3.9-3.8-3.9h-1.6c-2.7,0-4-1.3-4-4   c0-2.6,1.7-4,5-4h33.4c3.4,0,5.1,1.3,5.1,4c0,2.6-1.3,4-3.9,4h-1.6c-1.1,0-2,0.3-2.7,1c-0.7,0.7-1,1.4-1.2,2.1   c-0.1,0.8-0.2,2.6-0.2,5.4v0.7v53c0,1.7,0.1,3,0.4,3.9c0.7,3.2,3.6,4.9,8.5,4.9c1.4,0,2.6-0.1,3.7-0.4c1.1-0.2,1.9-0.4,2.4-0.6   l5.5-2c2.3-1.1,4.6-2.8,7-5c2.4-2.2,4.4-4.5,5.9-6.8l3-4.5c0.9-1.3,2-2,3.3-2c1.8,0,2.7,1.3,2.7,3.8l-0.1,3.3L615.1,534.6z"/>
	<path class="st0" d="M627.4,454.3c-2.7,0-4-1.3-4-3.9c0-2.5,1.7-3.8,5-3.8h33.4c3.3,0,5,1.3,5,3.8c0,1.1-0.4,2-1.1,2.8   c-0.7,0.7-1.7,1.1-2.9,1.1h-1.3c-1.2,0-2.2,0.3-2.8,1c-0.7,0.7-1,1.7-1.1,2.9c-0.1,1.2-0.1,2.7-0.1,4.5v0.7V507   c0,5.8,1.4,10,4.2,12.5c2.8,2.6,7.3,3.9,13.6,3.9c12,0,18.1-7.1,18.1-21.3v-38.4v-0.7v-4.8c0-1.1-0.4-2-1.1-2.7   c-0.7-0.7-1.6-1.1-2.7-1.1h-1.6c-2.6,0-4-1.3-4-3.8s1.7-3.8,5.1-3.8h17.1c3.3,0,5,1.3,5,3.8s-1.3,3.8-3.9,3.8h-1.6   c-0.6,0-1,0.1-1.3,0.2c-0.3,0.1-0.8,0.5-1.4,1c-0.6,0.6-1,1.5-1,2.7c-0.1,1.2-0.1,2.8-0.1,4.6v0.7v42.1c0,4.2-0.5,7.9-1.5,11   c-1,3.1-2.7,6-4.9,8.8c-5.8,7.3-15,11-27.8,11c-11.1,0-19.6-2.7-25.6-8.1c-6-5.4-9-13-9-23v-41.9v-0.7l-0.1-4.6   c0-1.1-0.4-2.1-1.1-2.8c-0.7-0.7-1.6-1.1-2.7-1.1H627.4z"/>
	<path class="st0" d="M735.4,518.3v4.6c0,1.1,0.4,2,1.1,2.7c0.7,0.7,1.6,1.1,2.7,1.1h1.6c1.1,0,2,0.4,2.8,1.1   c0.8,0.7,1.2,1.6,1.2,2.7c0,2.8-1.7,4.1-5.1,4.1h-16.6c-3.4,0-5.1-1.4-5.1-4.1c0-1.1,0.4-2,1.1-2.7c0.7-0.7,1.7-1.1,2.9-1.1h1.5   c1.1,0,1.9-0.3,2.5-1c0.6-0.7,1-1.4,1.2-2.3c0.2-0.8,0.2-2.6,0.2-5.2v-0.9v-53.6v-0.6v-4.6c0-1.1-0.4-2.1-1.1-2.8   c-0.7-0.7-1.6-1.1-2.7-1.1h-1.5c-2.7,0-4.1-1.3-4.1-3.9c0-1.1,0.4-2,1.1-2.8c0.7-0.8,1.7-1.2,2.9-1.2h1h20.3l44,50   c1.4,1.5,2.3,2.2,2.7,2.2c0.7,0,1.1-1.1,1.1-3.2v-31.8v-0.7v-4.6c0-1.1-0.4-2.1-1.1-2.8c-0.7-0.7-1.6-1.1-2.7-1.1h-1.6   c-2.6,0-4-1.3-4-4c0-2.6,1.3-4,3.9-4h1.1h17.1h1.2c2.5,0,3.8,1.3,3.8,4c0,1.2-0.4,2.1-1.1,2.9c-0.7,0.7-1.6,1.1-2.7,1.1h-1.6   c-1.2,0-2.1,0.3-2.7,1c-0.6,0.7-0.9,1.3-1.1,1.8c-0.2,0.6-0.2,1.8-0.2,3.8v2v0.7v64.9v5.2c-0.1,0.6-0.5,1.2-1.2,1.8   c-0.7,0.5-1.6,0.8-2.6,0.8c-2.1,0-4.6-1.5-7.5-4.6l-52.9-58.8l0.1,44.2V518.3z"/>
	<path class="st0" d="M894.5,524.6c0,1.3-0.3,2.2-0.9,2.6c-3.3,3-7.8,5.4-13.3,7.1c-5.5,1.7-11.5,2.6-17.8,2.6   c-13.5,0-24.4-4.2-32.6-12.6c-8.2-8.4-12.3-19.5-12.3-33.3c0-13.6,4.1-24.7,12.4-33.4c8.3-8.7,18.9-13,31.9-13   c4.1,0,8.8,0.6,13.9,1.8c2.4,0.7,3.8,1,4.1,1.1c2.4,0.7,4,1.4,4.9,2.1c0.7,0.4,1.1,0.7,1.3,0.8c0.2,0.1,0.5,0.2,0.9,0.3   c0.6,0,1.5-0.7,2.6-2.2l0.7-1.1l0.6-0.5l1.5-0.4c2.6,0,3.9,2.4,3.9,7.1v16.5c0,2.4-0.3,4-0.9,4.9c-0.6,0.9-1.7,1.4-3.2,1.4   c-1.2,0-2.1-0.3-2.7-0.9c-0.6-0.6-1.2-1.8-1.9-3.8c-1.2-4.1-3.9-8.1-7.9-11.7c-2.4-2.4-4.6-4-6.6-4.9c-2-0.9-4.4-1.3-7.2-1.3   c-10.4,0-16.8,6.7-19.2,20c-1.1,6-1.7,12.4-1.7,19.2c0,22.7,5.8,34,17.4,34c3.4,0,5.8-0.9,7.2-2.6c1.4-1.7,2.1-4.8,2.1-9.1v-5.6   v-0.9c0-1.3-0.4-2.4-1.2-3.4c-0.8-1-1.8-1.5-2.8-1.5H866c-1.1,0-2-0.4-2.7-1.1c-0.7-0.7-1.1-1.6-1.1-2.6c0-2.7,1.7-4,5-4h31.4   c3.3,0,5,1.3,5,4c0,1-0.4,1.9-1.1,2.6c-0.7,0.7-1.6,1.1-2.7,1.1h-1.6c-1.1,0-2,0.4-2.7,1.3c-0.7,0.9-1.1,2-1.1,3.4v1.1V524.6z"/>
	<path class="st0" d="M981.8,534.6h-67.2c-3.3,0-5-1.3-5-3.8c0-2.6,1.3-3.9,4-3.9h1.5c1.5,0,2.6-0.6,3.2-1.7   c0.6-1.1,0.9-3.4,0.9-6.7v-1v-53.8v-0.7l-0.1-4.8c0-1.1-0.4-2-1.1-2.7s-1.6-1.1-2.7-1.1h-1.6c-2.6,0-3.9-1.3-3.9-3.8   c0-1.1,0.5-2,1.5-2.8c1-0.7,2.3-1.1,4-1.1h58.9l5,17.8l0.5,2c0.3,0.8,0.5,1.4,0.5,1.8c0,0.9-0.3,1.7-1,2.3c-0.7,0.7-1.5,1-2.6,1   c-0.8,0-1.4-0.2-1.8-0.6c-0.4-0.4-1.2-1.5-2.3-3.3c-2.3-3.4-5.8-6.5-10.6-9.2c-4.8-2.7-8.9-4.1-12.5-4.1c-2.3,0-3.9,0.7-4.8,2   c-0.4,0.5-0.7,1.1-0.7,1.7c-0.1,0.7-0.1,1.5-0.1,2.4v1.5v21.8c0,1.3,0.1,2.1,0.4,2.4c0.3,0.3,1,0.4,2.1,0.4c6.7,0,10.4-3.3,11.1-10   l0.4-3.4c0.4-2.7,1.5-4,3.2-4c1.3,0,2.4,0.5,3.2,1.5c0.3,0.7,0.5,1.3,0.5,2v3.8v28.5l-0.1,3.3v1.5c-0.5,1.5-1.5,2.2-3,2.2   c-2,0-3.1-1.1-3.5-3.3l-1.1-5.4c-0.5-2.9-1.6-5.2-3.4-7c-1.8-1.7-4-2.6-6.6-2.6c-1.1,0-1.9,0.2-2.4,0.5c-0.4,0.4-0.7,1.2-0.7,2.4   v20.7l0.1,4.5c0.5,3.4,2.6,5.1,6.5,5.1c6.3,0,12.6-2,19.2-6c3.7-2.3,6.5-4.6,8.5-6.8c0.9-0.7,1.5-1.3,2-1.8c0.2-0.2,1-1.3,2.6-3.3   c1.6-2,2.8-3,3.6-3c2.1,0,3.2,1.1,3.2,3.2c0,0.6-0.1,1.2-0.2,2c-0.2,0.8-0.5,2.1-1.1,3.8L981.8,534.6z"/>
	<path class="st0" d="M1011.1,518.3v4.6c0,1.1,0.4,2,1.1,2.7c0.7,0.7,1.6,1.1,2.7,1.1h1.6c1.1,0,2,0.4,2.8,1.1   c0.8,0.7,1.2,1.6,1.2,2.7c0,2.8-1.7,4.1-5.1,4.1h-16.6c-3.4,0-5.1-1.4-5.1-4.1c0-1.1,0.4-2,1.1-2.7c0.7-0.7,1.7-1.1,2.9-1.1h1.5   c1.1,0,1.9-0.3,2.5-1c0.6-0.7,1-1.4,1.2-2.3c0.2-0.8,0.2-2.6,0.2-5.2v-0.9v-53.6v-0.6v-4.6c0-1.1-0.4-2.1-1.1-2.8   c-0.7-0.7-1.6-1.1-2.7-1.1h-1.5c-2.7,0-4.1-1.3-4.1-3.9c0-1.1,0.4-2,1.1-2.8c0.7-0.8,1.7-1.2,2.9-1.2h1h20.3l44,50   c1.4,1.5,2.3,2.2,2.7,2.2c0.7,0,1.1-1.1,1.1-3.2v-31.8v-0.7v-4.6c0-1.1-0.4-2.1-1.1-2.8c-0.7-0.7-1.6-1.1-2.7-1.1h-1.6   c-2.6,0-4-1.3-4-4c0-2.6,1.3-4,3.9-4h1.1h17.1h1.2c2.5,0,3.8,1.3,3.8,4c0,1.2-0.4,2.1-1.1,2.9c-0.7,0.7-1.6,1.1-2.7,1.1h-1.6   c-1.2,0-2.1,0.3-2.7,1c-0.6,0.7-0.9,1.3-1.1,1.8c-0.2,0.6-0.2,1.8-0.2,3.8v2v0.7v64.9v5.2c-0.1,0.6-0.5,1.2-1.2,1.8   c-0.7,0.5-1.6,0.8-2.6,0.8c-2.1,0-4.6-1.5-7.5-4.6l-52.9-58.8l0.1,44.2V518.3z"/>
</g>
</svg>