<svg id="Layer_1" data-name="Layer 1" xmlns="http://www.w3.org/2000/svg" viewBox="0 0 429.9 429.89">
    <defs>
        <style>
            .cls-1 {
            }

            .cls-2 {
                fill:rgb(79, 121, 66);
                fill: rgba(255,0,0,0.5);
                fill: #9B3430;
                fill: rgba(155,52,48,0.8)
            }

            .cls-3 {
                fill: white;
            }
        </style>
    </defs>
    <title>Screenshot_2024-10-04-23-19-49-337_com.fiverr.fiverr</title>
    <polygon class="cls-1" points="316.88 214.95 316.89 214.94 298.11 214.94 298.1 214.95 316.88 214.95" />
    <polygon class="cls-1" points="214.94 64.19 214.96 64.17 214.96 45.42 214.94 45.43 214.94 64.19" />
    <polygon class="cls-1" points="214.94 165.24 214.96 165.22 214.96 146.47 214.94 146.49 214.94 165.24" />
    <polygon class="cls-1" points="214.94 190.48 214.96 190.46 214.96 171.71 214.94 171.73 214.94 190.48" />
    <polygon class="cls-1" points="214.94 89.47 214.96 89.45 214.96 70.7 214.94 70.72 214.94 89.47" />
    <polygon class="cls-1" points="214.94 114.71 214.96 114.69 214.96 95.94 214.94 95.96 214.94 114.71" />
    <polygon class="cls-1" points="214.94 139.99 214.96 139.98 214.96 121.22 214.94 121.24 214.94 139.99" />
    <polygon class="cls-1" points="214.96 38.92 214.96 20.17 214.94 20.19 214.94 38.94 214.96 38.92" />
    <polygon class="cls-1" points="291.6 214.95 291.61 214.94 272.86 214.94 272.85 214.95 291.6 214.95" />
    <polygon class="cls-1" points="266.32 214.95 266.33 214.94 247.58 214.94 247.57 214.95 266.32 214.95" />
    <polygon class="cls-1" points="241.04 214.95 241.05 214.94 222.3 214.94 222.29 214.95 241.04 214.95" />
    <polygon class="cls-1" points="215.75 214.95 215.76 214.94 214.96 214.94 214.96 214.95 215.75 214.95" />
    <polygon class="cls-1" points="342.13 214.95 342.14 214.94 323.39 214.94 323.38 214.95 342.13 214.95" />
    <polygon class="cls-1" points="214.94 214.94 214.96 214.94 214.96 197 214.94 197.01 214.94 214.94" />
    <polygon class="cls-1" points="367.41 214.95 367.42 214.94 348.67 214.94 348.66 214.95 367.41 214.95" />
    <rect class="cls-2" y="0.01" width="429.88" height="429.88" />
    <polygon class="cls-3"
        points="405.54 0 214.96 190.46 214.94 190.48 214.94 171.73 214.96 171.71 386.79 0 380.29 0 214.96 165.22 214.94 165.24 214.94 146.49 214.96 146.47 361.54 0 355.01 0 214.96 139.98 214.94 139.99 214.94 121.24 214.96 121.22 336.26 0 329.77 0 214.96 114.69 214.94 114.71 214.94 95.96 214.96 95.94 310.98 0 304.44 0 214.96 89.45 214.94 89.47 214.94 70.72 214.96 70.7 285.69 0 279.16 0 214.96 64.17 214.94 64.19 214.94 45.43 214.96 45.42 260.41 0 253.92 0 214.96 38.92 214.94 38.94 214.94 20.19 214.96 20.17 235.17 0 228.64 0 214.96 13.64 214.94 13.66 214.94 0.01 0 0.01 0 214.95 0.02 214.95 13.53 214.95 0.02 228.43 0.02 234.96 20.03 214.95 38.78 214.95 0.02 253.67 0.02 260.2 45.31 214.95 64.06 214.95 0.02 278.95 0.02 285.49 70.59 214.95 89.34 214.95 0.02 304.24 0.02 310.73 95.87 214.95 114.66 214.95 0.02 329.48 0.02 336.01 121.16 214.95 139.91 214.95 0.02 354.76 0.02 361.22 146.4 214.95 165.19 214.95 0.02 380.01 0.02 386.5 171.68 214.95 190.43 214.95 0.02 405.25 0.02 411.78 196.97 214.95 214.94 214.95 214.94 214.94 214.94 197.01 214.96 197 412.11 0 405.54 0" />
    <polygon class="cls-3" points="7.16 429.88 214.94 222.26 214.94 215.76 0.63 429.88 7.16 429.88" />
    <polygon class="cls-3"
        points="215.76 214.94 215.75 214.95 222.29 214.95 222.3 214.94 429.9 7.49 429.9 0.96 215.76 214.94" />
    <polygon class="cls-3"
        points="241.04 214.95 247.57 214.95 247.58 214.94 429.9 32.74 429.9 26.2 241.05 214.94 241.04 214.95" />
    <polygon class="cls-3" points="32.48 429.88 214.94 247.54 214.94 241.01 25.95 429.88 32.48 429.88" />
    <polygon class="cls-3"
        points="266.32 214.95 272.85 214.95 272.86 214.94 429.9 58.02 429.9 51.49 266.33 214.94 266.32 214.95" />
    <polygon class="cls-3" points="57.73 429.88 214.94 272.79 214.94 266.25 51.2 429.88 57.73 429.88" />
    <polygon class="cls-3"
        points="291.6 214.95 298.1 214.95 298.11 214.94 429.9 83.22 429.9 76.77 291.61 214.94 291.6 214.95" />
    <polygon class="cls-3" points="83.01 429.88 214.94 298.03 214.94 291.54 76.48 429.88 83.01 429.88" />
    <polygon class="cls-3"
        points="316.88 214.95 323.38 214.95 323.39 214.94 429.9 108.51 429.9 102.01 316.89 214.94 316.88 214.95" />
    <polygon class="cls-3" points="108.29 429.88 214.94 323.31 214.94 316.82 101.76 429.88 108.29 429.88" />
    <polygon class="cls-3"
        points="342.13 214.95 348.66 214.95 348.67 214.94 429.9 133.75 429.9 127.26 342.14 214.94 342.13 214.95" />
    <polygon class="cls-3" points="133.58 429.88 214.94 348.56 214.94 342.06 127.05 429.88 133.58 429.88" />
    <polygon class="cls-3"
        points="367.41 214.95 373.94 214.95 373.95 214.94 429.9 159.03 429.9 152.5 367.42 214.94 367.41 214.95" />
    <polygon class="cls-3" points="158.86 429.88 214.94 373.84 214.94 367.34 152.37 429.88 158.86 429.88" />
    <polygon class="cls-3"
        points="392.69 214.95 399.23 214.95 399.24 214.94 429.9 184.32 429.9 177.78 392.7 214.94 392.69 214.95" />
    <polygon class="cls-3" points="184.1 429.88 214.94 399.08 214.94 392.55 177.57 429.88 184.1 429.88" />
    <polygon class="cls-3"
        points="417.98 214.95 424.51 214.95 424.52 214.94 429.9 209.56 429.9 203.03 417.99 214.94 417.98 214.95" />
    <polygon class="cls-3" points="209.38 429.88 214.94 424.33 214.94 417.83 202.89 429.88 209.38 429.88" />
</svg>