<svg xmlns="http://www.w3.org/2000/svg" xmlns:xlink="http://www.w3.org/1999/xlink" version="1.1" id="Layer_1" x="0px" y="0px" style="enable-background:new 0 0 1000 1000;" xml:space="preserve" viewBox="119.3 428.9 769 92.3">
<style type="text/css">
	.st0{fill:rgb(54, 69, 79);}
</style>
<g>
	<path class="st0" d="M157.9,430.4h1.2c1.1,0,2.1,0.4,2.8,1.1c0.7,0.7,1.1,1.7,1.1,2.8c0,2.6-1.3,4-3.9,4h-1.6c-1.1,0-1.9,0.3-2.6,1   c-0.7,0.7-1.1,1.6-1.2,2.9c-0.1,1.2-0.1,2.8-0.1,4.6v0.7v53.5v0.9v4.7c0.2,2.5,1.5,3.8,3.9,3.8h1.6c2.6,0,3.9,1.3,3.9,4   c0,2.6-1.7,4-5.1,4h-33.4c-3.4,0-5.1-1.3-5.1-4c0-1.2,0.4-2.1,1.1-2.9c0.7-0.7,1.7-1.1,2.9-1.1h1.6c1.5,0,2.5-0.6,3.1-1.9   c0.6-1.3,0.9-3.5,0.9-6.6v-0.9v-53.5v-0.7c0-3-0.3-5.2-1-6.5c-0.7-1.3-1.7-2-3.2-2h-1.5c-2.7,0-4-1.3-4-4c0-2.6,1.7-4,5-4H157.9z"/>
	<path class="st0" d="M187.7,452.1l0.1,48.9v0.9c0,3.4,0.3,5.7,0.8,6.8c0.5,1.1,1.6,1.7,3.2,1.7h1.7c2.8,0,4.3,1.4,4.3,4.1   c0,2.1-0.5,3.2-1.6,3.3l-2.8,0.5h-1.2H175c-3.3,0-5-1.3-5-4c0-1.2,0.4-2.1,1.1-2.9c0.7-0.7,1.7-1.1,2.9-1.1h1.5   c1.1,0,2-0.4,2.7-1.1c0.7-0.7,1-1.7,1.1-2.9c0.1-1.2,0.1-2.7,0.1-4.6v-1v-53.4v-0.7v-4.6c0-1.1-0.4-2.1-1.1-2.8   c-0.7-0.7-1.6-1.1-2.7-1.1h-1.5c-2.7,0-4.1-1.3-4.1-4c0-2.6,1.7-4,5-4h29.6l14.3,46.7c0.2,0.6,0.3,0.9,0.5,1.1   c0.2,0.2,0.4,0.4,0.6,0.6c0.2-0.2,0.3-0.4,0.4-0.5c0.4-0.5,0.7-0.9,0.9-1.3l17.4-46.6h29.9c3.4,0,5.1,1.4,5.1,4.2   c0,1-0.4,1.9-1.2,2.6c-0.8,0.7-1.7,1.1-2.9,1.1h-1.6c-1.1,0-1.9,0.3-2.6,1c-0.7,0.7-1,1.4-1.2,2.1c-0.1,0.7-0.2,2.5-0.2,5.4v1v53v1   l0.1,4.6c0,2.6,1.3,3.9,3.8,3.9h1.6c2.7,0,4,1.2,4,3.7c0,2.8-1.7,4.3-5.1,4.3H235c-3.4,0-5.1-1.4-5.1-4.1c0-1.1,0.4-2,1.1-2.7   c0.7-0.7,1.7-1.1,2.8-1.1h1.6c1.5,0,2.6-0.6,3.2-1.8c0.6-1.2,0.9-3.5,0.9-6.7v-1v-47L216.7,517l-1,1.8c-0.6,1.6-1.4,2.4-2.4,2.4   c-1.5,0-2.7-1.3-3.4-3.9L187.7,452.1z"/>
	<path class="st0" d="M314.9,479.3l-0.5,1.7v20.1v0.7v4.6c0.2,2.6,1.6,3.9,4,3.9h1.3c1.1,0,2.1,0.4,2.9,1.1c0.8,0.7,1.2,1.6,1.2,2.7   c0,2.8-1.7,4.1-5,4.1h-33.4c-1.5,0-2.8-0.4-3.7-1.1c-0.9-0.7-1.3-1.7-1.3-3c0-1.1,0.4-2,1.1-2.7c0.7-0.7,1.7-1.1,2.9-1.1h1.5   c1.1,0,2-0.4,2.7-1.2c0.6-0.6,1-1.5,1.1-2.7c0.1-1.3,0.1-2.8,0.1-4.6v-0.5v-53.7v-0.9l-0.1-4.6c0-1.1-0.4-2.1-1.1-2.8   c-0.7-0.7-1.6-1.1-2.7-1.1h-1.5c-2.7,0-4-1.3-4-3.9c0-2.7,1.7-4,5-4h40.4H336c5.9,0,11,2.4,15.4,7.2c4.4,4.8,6.6,10.3,6.6,16.6   c0,6.3-2.2,12-6.7,17.1c-3.5,4.1-8.9,6.6-16.1,7.7l-4.4,0.4h-13.5H314.9z M314.4,442.4v28.3c0.7,0.2,1.6,0.3,2.7,0.5   c1.1,0.2,2.1,0.2,2.9,0.2c9.1,0,13.7-4.7,13.7-14.2v-4.5l-0.5-3.8c0-1.1-0.2-2.2-0.6-3.4c-0.4-1.2-0.9-2.2-1.6-3.1   c-2-3.3-5.5-4.9-10.2-4.9c-3.8,0-5.9,1-6.3,2.9V442.4z"/>
	<path class="st0" d="M368,518.4h-1.3c-0.9,0-1.7-0.4-2.3-1.2c-0.7-0.8-1-1.8-1-3c0-1.1,0.4-2,1.2-2.7c0.8-0.7,1.7-1.1,2.9-1.1h1.5   c2.7,0,4-2.4,4-7.1l-0.1-1.5v-1v-53.2v-0.9l-0.1-4.7c0-1.1-0.4-1.9-1.1-2.7c-0.7-0.7-1.6-1.1-2.7-1.1h-1.5c-2.7,0-4-1.3-4-3.9   c0-2.7,1.7-4,5-4h43.4c4,0,7.6,0.2,10.9,0.6c5.8,0.8,10.4,3.3,13.8,7.3c3.4,4.1,5.1,9.1,5.1,15.1c0,7.2-2.4,13-7.2,17.3   c-1.1,1-2.2,1.8-3.4,2.4c-1.2,0.6-2.2,0.9-3,0.9c-1.5,0.2-2.2,0.4-2.2,0.9l0.2,0.9l1.1,1.7l16.7,26c2.5,4,4.3,6.1,5.2,6.5l1.5,0.5   c2.4,0.9,3.5,2.2,3.5,3.8c0,1.2-0.4,2.2-1.3,3c-0.9,0.8-1.9,1.2-3.2,1.2h-26.2l-17.5-36.5c-1-2.5-2.7-3.8-5.3-3.8h-1.1l-2.1,0.7   v2.4V501v1v4.6c0.2,1.1,0.6,2,1.3,2.7c0.7,0.8,1.6,1.2,2.7,1.2h1.6c2.6,0,3.9,1.3,3.9,4c0,2.6-1.7,4-5,4H368z M397.4,442.7v27.8   c2,0.6,4,1,5.9,1c3.7,0,6.8-1.6,9.3-4.9c2.5-3.2,3.8-7.3,3.8-12.3c0-4.9-1.1-8.8-3.4-11.7c-2.3-2.9-5.3-4.4-9.1-4.4h-2.3   c-1.6,0-2.7,0.3-3.2,0.8C397.7,439.7,397.4,440.9,397.4,442.7z"/>
	<path class="st0" d="M527,518.4h-67.2c-3.3,0-5-1.3-5-3.8c0-2.6,1.3-3.9,4-3.9h1.5c1.5,0,2.6-0.6,3.2-1.7c0.6-1.1,0.9-3.4,0.9-6.7   v-1v-53.8v-0.7l-0.1-4.8c0-1.1-0.4-2-1.1-2.7c-0.7-0.7-1.6-1.1-2.7-1.1h-1.6c-2.6,0-3.9-1.3-3.9-3.8c0-1.1,0.5-2,1.5-2.8   c1-0.7,2.3-1.1,4-1.1h58.9l5,17.8l0.5,2c0.3,0.8,0.5,1.4,0.5,1.8c0,0.9-0.3,1.7-1,2.3c-0.7,0.7-1.5,1-2.6,1c-0.8,0-1.4-0.2-1.8-0.6   c-0.4-0.4-1.2-1.5-2.3-3.3c-2.3-3.4-5.8-6.5-10.6-9.2c-4.8-2.7-8.9-4.1-12.5-4.1c-2.3,0-3.9,0.7-4.8,2c-0.4,0.5-0.7,1.1-0.7,1.7   c-0.1,0.7-0.1,1.5-0.1,2.4v1.5v21.8c0,1.3,0.1,2.1,0.4,2.4c0.3,0.3,1,0.4,2.1,0.4c6.7,0,10.4-3.3,11.1-10l0.4-3.4   c0.4-2.7,1.5-4,3.2-4c1.3,0,2.4,0.5,3.2,1.5c0.3,0.7,0.5,1.3,0.5,2v3.8v28.5l-0.1,3.3v1.5c-0.5,1.5-1.5,2.2-3,2.2   c-2,0-3.1-1.1-3.5-3.3l-1.1-5.4c-0.5-2.9-1.6-5.2-3.4-7c-1.8-1.7-4-2.6-6.6-2.6c-1.1,0-1.9,0.2-2.4,0.5c-0.4,0.4-0.7,1.2-0.7,2.4   v20.7l0.1,4.5c0.5,3.4,2.6,5.1,6.5,5.1c6.3,0,12.6-2,19.2-6c3.7-2.3,6.5-4.6,8.5-6.8c0.9-0.7,1.5-1.3,2-1.8c0.2-0.2,1-1.3,2.6-3.3   c1.6-2,2.8-3,3.6-3c2.1,0,3.2,1.1,3.2,3.2c0,0.6-0.1,1.2-0.2,2c-0.2,0.8-0.5,2.1-1.1,3.8L527,518.4z"/>
	<path class="st0" d="M550.9,490.8l3,6.4c4.3,8.4,10.8,12.6,19.5,12.6c4.4,0,7.8-1,10.1-2.9c2.4-2,3.5-4.8,3.5-8.4   c0-2-0.7-3.9-2-5.9c-0.9-1.1-1.5-1.7-1.8-2.1c-1-0.8-1.7-1.4-2.2-1.8c-1.7-1.3-3.6-2.4-5.6-3.2c-2-0.9-5.4-2.1-10.3-3.6   c-8.5-2.8-14.7-6.1-18.4-10.1c-3.7-4-5.6-9.2-5.6-15.7c0-7.6,2.5-13.9,7.4-19.2c2.8-2.8,5.4-4.8,7.7-5.7c2.6-1,4.9-1.6,6.8-1.9   c2-0.3,4.3-0.4,7.1-0.4h2.3c2.3,0,4.7,0.3,7.1,0.9c2.5,0.6,4.5,1.3,6.2,2.2l1.8,0.5c0.5,0,0.9-0.2,1.1-0.5l0.7-1.5   c0.7-1.1,1.5-1.6,2.7-1.6c2.2,0,3.3,1.8,3.3,5.2l1.2,17.1l0.1,1.7c0,2.4-1,3.5-3,3.5l-1.6-0.4l-1.1-0.7l-1-1.5l-1.2-2.3   c-4.6-8.8-10.9-13.2-19-13.2c-3.4,0-6.2,0.8-8.2,2.5c-2.1,1.7-3.1,3.9-3.1,6.8c0,2.1,0.8,4.1,2.4,5.9c1.1,1.1,2.9,2.3,5.5,3.5   c2.6,1.2,6.8,2.8,12.7,4.8c5,1.7,8.7,3.1,10.9,4.1c2.2,1.1,4.4,2.4,6.5,4.1c6.1,4.8,9.2,11.4,9.2,19.9c0,8.9-3.2,16.3-9.6,22.2   c-3.1,3-6.3,5.1-9.6,6.3c-3.3,1.2-7.6,1.8-12.7,1.8c-3.2,0-6.2-0.2-9.1-0.7c-2.9-0.5-5.1-1.2-6.8-2l-3.4-2l-2-0.4   c-1.3,0-2.3,0.7-2.9,2.2c-0.7,1.5-1.5,2.2-2.6,2.2c-2.2,0-3.3-1.7-3.3-5.1l-1.3-23.6v-1.2c0-2.5,1.1-3.8,3.2-3.8   c1.5,0,2.6,0.6,3.2,1.8l1.1,1.8L550.9,490.8z"/>
	<path class="st0" d="M626.4,490.8l3,6.4c4.3,8.4,10.8,12.6,19.5,12.6c4.4,0,7.8-1,10.1-2.9c2.4-2,3.5-4.8,3.5-8.4   c0-2-0.7-3.9-2-5.9c-0.9-1.1-1.5-1.7-1.8-2.1c-1-0.8-1.7-1.4-2.2-1.8c-1.7-1.3-3.6-2.4-5.6-3.2c-2-0.9-5.4-2.1-10.3-3.6   c-8.5-2.8-14.7-6.1-18.4-10.1c-3.7-4-5.6-9.2-5.6-15.7c0-7.6,2.5-13.9,7.4-19.2c2.8-2.8,5.4-4.8,7.7-5.7c2.6-1,4.9-1.6,6.8-1.9   c2-0.3,4.3-0.4,7.1-0.4h2.3c2.3,0,4.7,0.3,7.1,0.9c2.5,0.6,4.5,1.3,6.2,2.2l1.8,0.5c0.5,0,0.9-0.2,1.1-0.5l0.7-1.5   c0.7-1.1,1.5-1.6,2.7-1.6c2.2,0,3.3,1.8,3.3,5.2l1.2,17.1l0.1,1.7c0,2.4-1,3.5-3.1,3.5l-1.6-0.4l-1.1-0.7l-1-1.5l-1.2-2.3   c-4.6-8.8-10.9-13.2-19-13.2c-3.4,0-6.2,0.8-8.2,2.5c-2.1,1.7-3.1,3.9-3.1,6.8c0,2.1,0.8,4.1,2.4,5.9c1.1,1.1,2.9,2.3,5.5,3.5   c2.6,1.2,6.8,2.8,12.7,4.8c5,1.7,8.7,3.1,10.9,4.1c2.2,1.1,4.4,2.4,6.5,4.1c6.1,4.8,9.2,11.4,9.2,19.9c0,8.9-3.2,16.3-9.6,22.2   c-3.1,3-6.3,5.1-9.6,6.3c-3.3,1.2-7.6,1.8-12.7,1.8c-3.2,0-6.2-0.2-9.1-0.7c-2.9-0.5-5.1-1.2-6.8-2l-3.4-2l-2-0.4   c-1.3,0-2.3,0.7-2.9,2.2c-0.7,1.5-1.5,2.2-2.6,2.2c-2.2,0-3.3-1.7-3.3-5.1l-1.3-23.6v-1.2c0-2.5,1.1-3.8,3.2-3.8   c1.5,0,2.6,0.6,3.2,1.8l1.1,1.8L626.4,490.8z"/>
	<path class="st0" d="M694,438.1c-2.7,0-4-1.3-4-3.9c0-2.5,1.7-3.8,5-3.8h33.4c3.3,0,5,1.3,5,3.8c0,1.1-0.4,2-1.1,2.8   c-0.7,0.7-1.7,1.1-2.9,1.1H728c-1.2,0-2.2,0.3-2.8,1c-0.7,0.7-1,1.7-1.1,2.9c-0.1,1.2-0.1,2.7-0.1,4.5v0.7v43.5   c0,5.8,1.4,10,4.2,12.5c2.8,2.6,7.3,3.9,13.6,3.9c12,0,18.1-7.1,18.1-21.3v-38.4v-0.7v-4.8c0-1.1-0.4-2-1.1-2.7   c-0.7-0.7-1.6-1.1-2.7-1.1h-1.6c-2.6,0-4-1.3-4-3.8c0-2.6,1.7-3.8,5.1-3.8h17.1c3.3,0,5,1.3,5,3.8c0,2.6-1.3,3.8-3.9,3.8h-1.6   c-0.6,0-1,0.1-1.3,0.2c-0.3,0.1-0.8,0.5-1.4,1c-0.6,0.6-1,1.5-1,2.7c-0.1,1.2-0.1,2.8-0.1,4.6v0.7v42.1c0,4.2-0.5,7.9-1.5,11   c-1,3.1-2.7,6-4.9,8.8c-5.8,7.3-15,11-27.8,11c-11.1,0-19.6-2.7-25.6-8.1c-6-5.4-9-13-9-23v-41.9v-0.7l-0.1-4.6   c0-1.1-0.4-2.1-1.1-2.8c-0.7-0.7-1.6-1.1-2.7-1.1H694z"/>
	<path class="st0" d="M802.3,452.1l0.1,48.9v0.9c0,3.4,0.3,5.7,0.8,6.8c0.5,1.1,1.6,1.7,3.2,1.7h1.7c2.8,0,4.3,1.4,4.3,4.1   c0,2.1-0.5,3.2-1.6,3.3l-2.8,0.5h-1.2h-17.2c-3.3,0-5-1.3-5-4c0-1.2,0.4-2.1,1.1-2.9c0.7-0.7,1.7-1.1,2.9-1.1h1.5   c1.1,0,2-0.4,2.7-1.1c0.7-0.7,1-1.7,1.1-2.9c0.1-1.2,0.1-2.7,0.1-4.6v-1v-53.4v-0.7v-4.6c0-1.1-0.4-2.1-1.1-2.8   c-0.7-0.7-1.6-1.1-2.7-1.1h-1.5c-2.7,0-4.1-1.3-4.1-4c0-2.6,1.7-4,5-4h29.6l14.3,46.7c0.2,0.6,0.3,0.9,0.5,1.1   c0.2,0.2,0.4,0.4,0.6,0.6c0.2-0.2,0.3-0.4,0.4-0.5c0.4-0.5,0.7-0.9,0.9-1.3l17.4-46.6h29.9c3.4,0,5.1,1.4,5.1,4.2   c0,1-0.4,1.9-1.2,2.6c-0.8,0.7-1.7,1.1-2.9,1.1h-1.6c-1.1,0-1.9,0.3-2.6,1c-0.7,0.7-1,1.4-1.2,2.1c-0.1,0.7-0.2,2.5-0.2,5.4v1v53v1   l0.1,4.6c0,2.6,1.3,3.9,3.8,3.9h1.6c2.7,0,4,1.2,4,3.7c0,2.8-1.7,4.3-5.1,4.3h-33.4c-3.4,0-5.1-1.4-5.1-4.1c0-1.1,0.4-2,1.1-2.7   c0.7-0.7,1.7-1.1,2.8-1.1h1.6c1.5,0,2.6-0.6,3.2-1.8c0.6-1.2,0.9-3.5,0.9-6.7v-1v-47L831.3,517l-1,1.8c-0.6,1.6-1.4,2.4-2.4,2.4   c-1.5,0-2.7-1.3-3.4-3.9L802.3,452.1z"/>
</g>
</svg>