<svg xmlns="http://www.w3.org/2000/svg" xmlns:xlink="http://www.w3.org/1999/xlink" version="1.1" id="Layer_1" x="0px" y="0px" style="enable-background:new 0 0 1000 1000;" xml:space="preserve" viewBox="208.9 443.3 621.3 93.3">
<style type="text/css">
	.st0{fill:rgb(54, 69, 79);}
</style>
<g>
	<path class="st0" d="M247.5,534.6h-33.6c-3.4,0-5-1.4-5-4.1c0-1.1,0.4-2,1.1-2.7c0.7-0.7,1.7-1.1,2.9-1.1h1.5c1.1,0,2-0.3,2.7-1   c0.6-0.7,1-1.7,1.1-2.9c0.1-1.2,0.1-2.8,0.1-4.7v-0.9v-53.5v-1l0.1-4.7c0-1.1-0.4-2-1.1-2.7c-0.7-0.7-1.6-1.1-2.7-1.1H213   c-1.1,0-2.1-0.4-2.8-1.1c-0.7-0.7-1.1-1.7-1.1-2.8c0-0.9,0.4-1.8,1.1-2.6s1.7-1.2,2.8-1.2h1.1h33.4h1.1c2.6,0,3.9,1.3,3.9,3.8   s-1.3,3.8-3.9,3.8h-1.6c-1.1,0-1.9,0.3-2.6,1c-0.7,0.7-1.1,1.5-1.2,2.3c-0.2,0.8-0.2,2.6-0.2,5.3v1v20c0,0.6,0,0.9,0.1,1.1   c0.1,0.2,0.2,0.2,0.2,0.2c0.4,0,0.8-0.2,1.1-0.7l16.7-22.9c1.5-2,2.2-3.4,2.2-4.3c0-0.7-0.4-1.4-1.2-2c-0.8-0.6-1.7-0.9-2.7-0.9h-1   c-2.5,0-3.8-1.3-3.8-3.8c0-2.6,1.3-3.9,4-3.9h25.1c3,0,4.5,1.2,4.5,3.7c0,1-0.4,2-1.1,2.8c-0.7,0.8-1.6,1.2-2.7,1.2h-1.8   c-2,0-4.7,2.2-7.9,6.7l-15.6,20.3l-0.2,0.7c0.2,0.5,0.3,0.8,0.5,1l30.4,37.5c1.9,2.3,3.1,3.8,3.8,4.5c0.7,0.7,1.2,1.1,1.7,1.3   l2.1,0.4c1.6,0.4,2.6,0.8,3,1.2c0.4,0.4,0.5,1.2,0.5,2.5c0,1.5-0.4,2.6-1.3,3.3c-0.9,0.7-2.3,1-4.4,1h-34.6c-2.9,0-4.4-1.3-4.4-3.9   c0-2.4,1.2-3.7,3.5-4h0.8h1.3c0.9,0,1.4-0.5,1.4-1.6c0-0.6-0.3-1.4-0.9-2.5c-0.6-1.1-1.3-2.2-2.2-3.3L243.2,497l-0.2,2.7v17.6v1   v4.6c0.2,2.5,1.6,3.8,4.1,3.8h1.4c2.8,0,4.1,1.3,4.1,4c0,1.1-0.4,2-1.2,2.7c-0.8,0.8-1.7,1.2-2.9,1.2H247.5z"/>
	<path class="st0" d="M296.7,491.1c0-7.8,1.2-14.5,3.5-20c2.1-4.8,4.9-9,8.4-12.7c8.4-8.9,18.7-13.3,31-13.3c6.5,0,12.2,1,17.1,3   c4.9,2,9.6,5.4,14,10.1c4.1,4.3,7.1,9.1,9,14.3c1.9,5.2,2.9,11.2,2.9,17.9c0,7.2-0.9,13.3-2.7,18.4c-1.8,5.1-4.8,9.7-8.8,14   c-3.4,3.6-7.3,6.5-11.7,8.9c-5.5,3-12,4.5-19.5,4.5c-12.4,0-22.7-4.4-31.1-13.3C300.7,514.7,296.7,504.1,296.7,491.1z M323.1,475.1   c0,1.7-0.1,4.5-0.2,8.4c-0.2,3.9-0.2,6.3-0.2,7.2c0,5.7,0.1,10.2,0.2,13.4c0.2,3.3,0.5,6,1,8.3c0.8,4.6,2.6,8.2,5.4,10.7   c2.8,2.5,6.3,3.8,10.6,3.8c5.2,0,9.3-1.7,12.2-5.2c2.9-3.5,4.4-8.6,4.4-15.4l0.4-15.6l-0.1-8.3c0-3.3-0.1-5.7-0.2-7.4   s-0.4-3.7-0.8-6c-0.8-4.6-2.6-8.2-5.4-10.7c-2.8-2.5-6.3-3.8-10.6-3.8c-5.2,0-9.3,1.7-12.2,5.2   C324.6,463.2,323.1,468.3,323.1,475.1z"/>
	<path class="st0" d="M409,518.3v4.6c0,1.1,0.4,2,1.1,2.7c0.7,0.7,1.6,1.1,2.7,1.1h1.6c1.1,0,2,0.4,2.8,1.1c0.8,0.7,1.2,1.6,1.2,2.7   c0,2.8-1.7,4.1-5.1,4.1h-16.6c-3.4,0-5.1-1.4-5.1-4.1c0-1.1,0.4-2,1.1-2.7c0.7-0.7,1.7-1.1,2.9-1.1h1.5c1.1,0,1.9-0.3,2.5-1   c0.6-0.7,1-1.4,1.2-2.3c0.2-0.8,0.2-2.6,0.2-5.2v-0.9v-53.6v-0.6v-4.6c0-1.1-0.4-2.1-1.1-2.8c-0.7-0.7-1.6-1.1-2.7-1.1h-1.5   c-2.7,0-4.1-1.3-4.1-3.9c0-1.1,0.4-2,1.1-2.8c0.7-0.8,1.7-1.2,2.9-1.2h1h20.3l44,50c1.4,1.5,2.3,2.2,2.7,2.2c0.7,0,1.1-1.1,1.1-3.2   v-31.8v-0.7v-4.6c0-1.1-0.4-2.1-1.1-2.8c-0.7-0.7-1.6-1.1-2.7-1.1h-1.6c-2.6,0-4-1.3-4-4c0-2.6,1.3-4,3.9-4h1.1h17.1h1.2   c2.5,0,3.8,1.3,3.8,4c0,1.2-0.4,2.1-1.1,2.8c-0.7,0.7-1.6,1.1-2.7,1.1h-1.6c-1.2,0-2.1,0.3-2.7,1c-0.6,0.7-0.9,1.3-1.1,1.8   c-0.2,0.6-0.2,1.8-0.2,3.8v2v0.7v64.9v5.2c-0.1,0.7-0.5,1.2-1.2,1.8c-0.7,0.5-1.6,0.8-2.6,0.8c-2.1,0-4.6-1.5-7.5-4.6l-52.9-58.8   l0.1,44.2V518.3z"/>
	<path class="st0" d="M570,446.7l4,21.2l0.6,3.9c0,2-0.9,3-2.8,3l-1.6-0.2l-1.1-0.7l-3.2-3.8l-2.4-3.8c-0.9-1.1-1.9-2.3-2.9-3.4   c-1.1-1.1-2.3-2.4-3.8-3.8c-4.1-3.8-7.7-5.7-10.9-5.7c-1.1,0-1.9,0.4-2.4,1.3c-0.4,0.9-0.7,2.5-0.7,4.8l0.1,57.8l-0.1,1v2   c0,4.3,1.3,6.5,4,6.5h1.6c1.1,0,2,0.4,2.7,1.2c0.8,0.8,1.2,1.7,1.2,2.9c0,2.6-1.7,3.9-5.1,3.9H514c-3.4,0-5.1-1.4-5.1-4.1   c0-1.1,0.4-2,1.1-2.7c0.7-0.7,1.7-1.1,2.9-1.1h1.6c1.1,0,2-0.4,2.6-1.2c0.6-0.6,0.9-1.2,1.1-2c0.2-0.8,0.2-2.5,0.2-5.3v-0.9v-57.7   l-0.1-3.5c-0.2-1.5-1.1-2.2-2.9-2.2c-0.9,0-2.4,0.5-4.6,1.5c-2.7,1.3-4.8,2.6-6.3,4c-1.5,1.4-3.5,3.5-5.7,6.5l-3.5,4.6l-2.2,2.6   c-1.2,1.5-2.4,2.3-3.7,2.3c-0.7,0-1.4-0.3-2-0.9c-0.6-0.6-0.9-1.2-0.9-1.8l0.5-3.4l4.3-22.6H570z"/>
	<path class="st0" d="M587.6,527.2h0.5c2.4,0,3.5,1.2,3.5,3.5c0,2.6-1.7,3.9-5.1,3.9h-22.2c-2.8,0-4.3-1.2-4.3-3.7   c0-0.8,0.3-1.5,1-2.3c0.7-0.8,1.4-1.2,2.3-1.4l0.7-0.1c2-0.5,3.9-2.2,5.5-5.1c2.3-4.2,4.3-8.9,6.1-14.1l15.7-45.1l0.4-1.5l-0.5-1.5   l-1.1-1.8l-0.2-1.2c0-0.5,0.3-1,1-1.6l12.4-9.8c1.6-1.4,2.9-2.1,3.8-2.1c1.1,0,2,0.9,2.7,2.8l30,73.7c0.7,1.5,1.2,2.7,1.6,3.6   c0.4,0.9,0.8,1.6,1.3,2.2c0.4,0.6,1.4,0.9,2.7,0.9h0.5c1.1,0,1.9,0.3,2.6,1c0.7,0.7,1,1.6,1,2.7c0,1.6-0.4,2.7-1.1,3.3   c-0.7,0.6-2.2,0.9-4.4,0.9h-33.2c-3.3,0-5-1.3-5-3.8c0-1.1,0.4-2.1,1.1-2.9c0.7-0.8,1.7-1.2,2.8-1.2h1.2h1.8c0.7,0,1.3-0.4,1.8-1.1   c0.5-0.7,0.7-1.6,0.7-2.7c0-0.7-0.1-1.4-0.2-2c-0.1-0.6-0.4-1.6-0.9-3.1l-4.5-12.3c-0.2-0.8-0.5-1.3-0.9-1.5s-1.1-0.3-2.3-0.3   h-18.3c-1.5,0-2.4,0.6-2.7,1.8l-1.8,6.9c-1,3.4-1.5,6.9-1.5,10.5c0,1.1,0.3,2,1,2.9c0.6,0.9,1.4,1.3,2.2,1.3H587.6z M589.9,493.4   c0,0.7,0.5,1.1,1.5,1.1H603c1.2,0,1.8-0.3,1.8-1l-0.4-1.3l-6.9-17.4c-0.2-0.3-0.4-0.7-0.6-1c-0.2-0.1-0.3-0.2-0.4-0.2   c-0.6,0.6-0.9,1-1,1.2l-5.5,17.8L589.9,493.4z"/>
	<path class="st0" d="M690.6,534.6H657c-3.4,0-5-1.4-5-4.1c0-1.1,0.4-2,1.1-2.7c0.7-0.7,1.7-1.1,2.9-1.1h1.5c1.1,0,2-0.3,2.7-1   c0.7-0.7,1-1.7,1.1-2.9c0.1-1.2,0.1-2.8,0.1-4.7v-0.9v-53.5v-1l0.1-4.7c0-1.1-0.4-2-1.1-2.7c-0.7-0.7-1.6-1.1-2.7-1.1h-1.6   c-1.1,0-2.1-0.4-2.8-1.1c-0.7-0.7-1.1-1.7-1.1-2.8c0-0.9,0.4-1.8,1.1-2.6c0.7-0.8,1.7-1.2,2.8-1.2h1.1h33.4h1.1   c2.6,0,3.9,1.3,3.9,3.8s-1.3,3.8-3.9,3.8h-1.6c-1.1,0-1.9,0.3-2.6,1c-0.7,0.7-1.1,1.5-1.2,2.3c-0.2,0.8-0.2,2.6-0.2,5.3v1v20   c0,0.6,0,0.9,0.1,1.1c0.1,0.2,0.2,0.2,0.2,0.2c0.4,0,0.8-0.2,1.1-0.7l16.7-22.9c1.5-2,2.2-3.4,2.2-4.3c0-0.7-0.4-1.4-1.2-2   c-0.8-0.6-1.7-0.9-2.7-0.9h-1c-2.5,0-3.8-1.3-3.8-3.8c0-2.6,1.3-3.9,4-3.9H727c3,0,4.5,1.2,4.5,3.7c0,1-0.4,2-1.1,2.8   c-0.7,0.8-1.6,1.2-2.7,1.2h-1.8c-2,0-4.7,2.2-7.9,6.7l-15.6,20.3l-0.2,0.7c0.2,0.5,0.3,0.8,0.5,1l30.4,37.5   c1.9,2.3,3.1,3.8,3.8,4.5c0.7,0.7,1.2,1.1,1.7,1.3l2.1,0.4c1.6,0.4,2.6,0.8,3,1.2c0.4,0.4,0.5,1.2,0.5,2.5c0,1.5-0.4,2.6-1.3,3.3   c-0.9,0.7-2.3,1-4.4,1h-34.6c-2.9,0-4.4-1.3-4.4-3.9c0-2.4,1.2-3.7,3.5-4h0.8h1.3c0.9,0,1.4-0.5,1.4-1.6c0-0.6-0.3-1.4-0.9-2.5   c-0.6-1.1-1.3-2.2-2.2-3.3L686.3,497l-0.2,2.7v17.6v1v4.6c0.3,2.5,1.6,3.8,4.1,3.8h1.4c2.8,0,4.1,1.3,4.1,4c0,1.1-0.4,2-1.2,2.7   c-0.8,0.8-1.7,1.2-2.9,1.2H690.6z"/>
	<path class="st0" d="M825.6,446.7l4,21.2l0.6,3.9c0,2-0.9,3-2.8,3l-1.6-0.2l-1.1-0.7l-3.2-3.8l-2.4-3.8c-0.9-1.1-1.9-2.3-2.9-3.4   c-1.1-1.1-2.3-2.4-3.8-3.8c-4.1-3.8-7.7-5.7-10.9-5.7c-1.1,0-1.9,0.4-2.4,1.3c-0.4,0.9-0.7,2.5-0.7,4.8l0.1,57.8l-0.1,1v2   c0,4.3,1.3,6.5,4,6.5h1.6c1.1,0,2,0.4,2.7,1.2c0.8,0.8,1.2,1.7,1.2,2.9c0,2.6-1.7,3.9-5.1,3.9h-33.3c-3.4,0-5.1-1.4-5.1-4.1   c0-1.1,0.4-2,1.1-2.7c0.7-0.7,1.7-1.1,2.9-1.1h1.6c1.1,0,2-0.4,2.6-1.2c0.6-0.6,0.9-1.2,1.1-2c0.2-0.8,0.2-2.5,0.2-5.3v-0.9v-57.7   l-0.1-3.5c-0.2-1.5-1.1-2.2-2.9-2.2c-0.9,0-2.4,0.5-4.6,1.5c-2.7,1.3-4.8,2.6-6.3,4c-1.5,1.4-3.5,3.5-5.7,6.5l-3.5,4.6l-2.2,2.6   c-1.2,1.5-2.4,2.3-3.7,2.3c-0.7,0-1.4-0.3-2-0.9c-0.6-0.6-0.9-1.2-0.9-1.8l0.5-3.4l4.3-22.6H825.6z"/>
</g>
</svg>