<svg xmlns="http://www.w3.org/2000/svg" xmlns:xlink="http://www.w3.org/1999/xlink" version="1.1" id="Layer_1" x="0px" y="0px" style="enable-background:new 0 0 1073.1 1000;" xml:space="preserve" viewBox="35.3 443.3 1012.9 93.9">
<style type="text/css">
	.st0{fill:rgb(54, 69, 79);}
</style>
<g>
	<path class="st0" d="M53,468.4l0.1,48.9v0.9c0,3.4,0.3,5.7,0.8,6.8c0.5,1.1,1.6,1.7,3.2,1.7h1.7c2.8,0,4.3,1.4,4.3,4.1   c0,2.1-0.5,3.2-1.6,3.3l-2.8,0.5h-1.2H40.3c-3.3,0-5-1.3-5-4c0-1.2,0.4-2.1,1.1-2.9c0.7-0.7,1.7-1.1,2.9-1.1h1.5   c1.1,0,2-0.4,2.7-1.1c0.7-0.7,1-1.7,1.1-2.9c0.1-1.2,0.1-2.7,0.1-4.6v-1v-53.4v-0.7v-4.6c0-1.1-0.4-2.1-1.1-2.8   c-0.7-0.7-1.6-1.1-2.7-1.1h-1.5c-2.7,0-4.1-1.3-4.1-4c0-2.6,1.7-4,5-4h29.6l14.3,46.7c0.2,0.6,0.3,0.9,0.5,1.1   c0.2,0.2,0.4,0.4,0.6,0.6c0.2-0.2,0.3-0.4,0.4-0.5c0.4-0.5,0.7-0.9,0.9-1.3l17.4-46.6h29.9c3.4,0,5.1,1.4,5.1,4.2   c0,1-0.4,1.9-1.2,2.6c-0.8,0.7-1.7,1.1-2.9,1.1h-1.6c-1.1,0-1.9,0.3-2.6,1c-0.7,0.7-1,1.4-1.2,2.1c-0.1,0.7-0.2,2.5-0.2,5.4v1v53v1   l0.1,4.6c0,2.6,1.3,3.9,3.8,3.9h1.6c2.7,0,4,1.2,4,3.7c0,2.8-1.7,4.3-5.1,4.3h-33.4c-3.4,0-5.1-1.4-5.1-4.1c0-1.1,0.4-2,1.1-2.7   c0.7-0.7,1.7-1.1,2.8-1.1h1.6c1.5,0,2.6-0.6,3.2-1.8c0.6-1.2,0.9-3.5,0.9-6.7v-1v-47l-22.8,63.1l-1,1.8c-0.6,1.6-1.4,2.4-2.4,2.4   c-1.5,0-2.7-1.3-3.4-3.9L53,468.4z"/>
	<path class="st0" d="M184.3,446.7h1.2c1.1,0,2.1,0.4,2.8,1.1c0.7,0.7,1.1,1.7,1.1,2.8c0,2.6-1.3,4-3.9,4h-1.6c-1.1,0-1.9,0.3-2.6,1   c-0.7,0.7-1.1,1.6-1.2,2.9c-0.1,1.2-0.1,2.8-0.1,4.6v0.7v53.5v0.9v4.7c0.2,2.5,1.5,3.8,3.9,3.8h1.6c2.6,0,3.9,1.3,3.9,4   c0,2.6-1.7,4-5.1,4h-33.4c-3.4,0-5.1-1.3-5.1-4c0-1.2,0.4-2.1,1.1-2.9c0.7-0.7,1.7-1.1,2.9-1.1h1.6c1.5,0,2.5-0.6,3.1-1.9   c0.6-1.3,0.9-3.5,0.9-6.6v-0.9v-53.5v-0.7c0-3-0.3-5.2-1-6.5c-0.7-1.3-1.7-2-3.2-2h-1.5c-2.7,0-4-1.3-4-4c0-2.6,1.7-4,5-4H184.3z"/>
	<path class="st0" d="M277,446.7l4,21.2l0.6,3.9c0,2-0.9,3-2.8,3l-1.6-0.2l-1.1-0.7l-3.2-3.8l-2.4-3.8c-0.9-1.1-1.9-2.3-2.9-3.4   c-1.1-1.1-2.3-2.4-3.8-3.8c-4.1-3.8-7.7-5.7-10.9-5.7c-1.1,0-1.9,0.4-2.4,1.3c-0.4,0.9-0.7,2.5-0.7,4.8l0.1,57.8l-0.1,1v2   c0,4.3,1.3,6.5,4,6.5h1.6c1.1,0,2,0.4,2.7,1.2c0.8,0.8,1.2,1.7,1.2,2.9c0,2.6-1.7,3.9-5.1,3.9H221c-3.4,0-5.1-1.4-5.1-4.1   c0-1.1,0.4-2,1.1-2.7c0.7-0.7,1.7-1.1,2.9-1.1h1.6c1.1,0,2-0.4,2.6-1.2c0.6-0.6,0.9-1.2,1.1-2c0.2-0.8,0.2-2.5,0.2-5.3v-0.9v-57.7   l-0.1-3.5c-0.2-1.5-1.1-2.2-2.9-2.2c-0.9,0-2.4,0.5-4.6,1.5c-2.7,1.3-4.8,2.6-6.3,4c-1.5,1.4-3.5,3.5-5.7,6.5l-3.5,4.6l-2.2,2.6   c-1.2,1.5-2.4,2.3-3.7,2.3c-0.7,0-1.4-0.3-2-0.9c-0.6-0.6-0.9-1.2-0.9-1.8l0.5-3.4l4.3-22.6H277z"/>
	<path class="st0" d="M361.9,446.7l4,21.2l0.6,3.9c0,2-0.9,3-2.8,3l-1.6-0.2l-1.1-0.7l-3.2-3.8l-2.4-3.8c-0.9-1.1-1.9-2.3-2.9-3.4   c-1.1-1.1-2.3-2.4-3.8-3.8c-4.1-3.8-7.7-5.7-10.9-5.7c-1.1,0-1.9,0.4-2.4,1.3c-0.4,0.9-0.7,2.5-0.7,4.8l0.1,57.8l-0.1,1v2   c0,4.3,1.3,6.5,4,6.5h1.6c1.1,0,2,0.4,2.7,1.2c0.8,0.8,1.2,1.7,1.2,2.9c0,2.6-1.7,3.9-5.1,3.9h-33.3c-3.4,0-5.1-1.4-5.1-4.1   c0-1.1,0.4-2,1.1-2.7c0.7-0.7,1.7-1.1,2.9-1.1h1.6c1.1,0,2-0.4,2.6-1.2c0.6-0.6,0.9-1.2,1.1-2c0.2-0.8,0.2-2.5,0.2-5.3v-0.9v-57.7   l-0.1-3.5c-0.2-1.5-1.1-2.2-2.9-2.2c-0.9,0-2.4,0.5-4.6,1.5c-2.7,1.3-4.8,2.6-6.3,4c-1.5,1.4-3.5,3.5-5.7,6.5l-3.5,4.6l-2.2,2.6   c-1.2,1.5-2.4,2.3-3.7,2.3c-0.7,0-1.4-0.3-2-0.9c-0.6-0.6-0.9-1.2-0.9-1.8l0.5-3.4l4.3-22.6H361.9z"/>
	<path class="st0" d="M379.5,527.2h0.5c2.4,0,3.5,1.2,3.5,3.5c0,2.6-1.7,3.9-5.1,3.9h-22.2c-2.8,0-4.3-1.2-4.3-3.7   c0-0.8,0.3-1.5,1-2.3c0.7-0.8,1.4-1.2,2.3-1.4l0.7-0.1c2-0.5,3.9-2.2,5.5-5.1c2.3-4.2,4.3-8.9,6.1-14.1l15.7-45.1l0.4-1.5l-0.5-1.5   l-1.1-1.8l-0.2-1.2c0-0.5,0.3-1,1-1.6l12.4-9.8c1.6-1.4,2.9-2.1,3.8-2.1c1.1,0,2,0.9,2.7,2.8l30,73.7c0.6,1.5,1.2,2.7,1.6,3.6   c0.4,0.9,0.8,1.6,1.3,2.2c0.4,0.6,1.4,0.9,2.7,0.9h0.5c1.1,0,1.9,0.3,2.6,1c0.7,0.7,1,1.6,1,2.7c0,1.6-0.4,2.7-1.1,3.3   c-0.7,0.6-2.2,0.9-4.4,0.9h-33.2c-3.3,0-5-1.3-5-3.8c0-1.1,0.4-2.1,1.1-2.9c0.7-0.8,1.7-1.2,2.8-1.2h1.2h1.8c0.7,0,1.3-0.4,1.8-1.1   c0.5-0.7,0.7-1.6,0.7-2.7c0-0.7-0.1-1.4-0.2-2c-0.1-0.6-0.4-1.6-0.9-3.1l-4.5-12.3c-0.2-0.8-0.5-1.3-0.9-1.5   c-0.4-0.2-1.1-0.3-2.3-0.3h-18.3c-1.5,0-2.4,0.6-2.7,1.8l-1.8,6.9c-1,3.4-1.5,6.9-1.5,10.5c0,1.1,0.3,2,1,2.9   c0.7,0.9,1.4,1.3,2.2,1.3H379.5z M381.8,493.4c0,0.7,0.5,1.1,1.5,1.1h11.6c1.2,0,1.8-0.3,1.8-1l-0.4-1.3l-6.9-17.4   c-0.2-0.3-0.4-0.7-0.6-1c-0.2-0.1-0.3-0.2-0.4-0.2c-0.6,0.6-0.9,1-1,1.2l-5.5,17.8L381.8,493.4z"/>
	<path class="st0" d="M516.5,524.6c0,1.3-0.3,2.2-0.9,2.6c-3.3,3-7.8,5.4-13.3,7.1c-5.5,1.7-11.5,2.6-17.8,2.6   c-13.5,0-24.4-4.2-32.6-12.6c-8.2-8.4-12.3-19.5-12.3-33.3c0-13.6,4.1-24.7,12.4-33.4c8.3-8.7,18.9-13,31.9-13   c4.1,0,8.8,0.6,13.9,1.8c2.4,0.7,3.8,1,4.1,1.1c2.4,0.7,4,1.4,4.9,2.1c0.7,0.4,1.1,0.7,1.3,0.8s0.5,0.2,0.9,0.3   c0.6,0,1.5-0.7,2.6-2.2l0.7-1.1l0.6-0.5l1.5-0.4c2.6,0,3.9,2.4,3.9,7.1v16.5c0,2.4-0.3,4-0.9,4.9c-0.6,0.9-1.7,1.4-3.2,1.4   c-1.2,0-2.1-0.3-2.7-0.9c-0.6-0.6-1.2-1.8-1.9-3.8c-1.2-4.1-3.9-8.1-7.9-11.7c-2.4-2.4-4.6-4-6.6-4.9c-2-0.9-4.4-1.3-7.2-1.3   c-10.4,0-16.8,6.7-19.2,20c-1.1,6-1.7,12.4-1.7,19.2c0,22.7,5.8,34,17.4,34c3.4,0,5.8-0.9,7.2-2.6c1.4-1.7,2.1-4.8,2.1-9.2v-5.6   v-0.9c0-1.3-0.4-2.4-1.2-3.4c-0.8-1-1.8-1.5-2.8-1.5h-1.6c-1.1,0-2-0.4-2.7-1.1c-0.7-0.7-1.1-1.6-1.1-2.6c0-2.7,1.7-4,5-4h31.4   c3.3,0,5,1.3,5,4c0,1-0.4,1.9-1.1,2.6c-0.7,0.7-1.6,1.1-2.7,1.1h-1.6c-1.1,0-2,0.4-2.7,1.3c-0.7,0.9-1.1,2-1.1,3.4v1.1V524.6z"/>
	<path class="st0" d="M543.6,507l3,6.4c4.3,8.4,10.8,12.6,19.5,12.6c4.4,0,7.8-1,10.1-2.9c2.4-2,3.5-4.8,3.5-8.4c0-2-0.7-3.9-2-5.9   c-0.9-1.1-1.5-1.7-1.8-2.1c-1-0.8-1.7-1.4-2.2-1.8c-1.7-1.3-3.6-2.4-5.6-3.2c-2-0.9-5.4-2.1-10.3-3.6c-8.5-2.8-14.7-6.1-18.4-10.1   c-3.7-4-5.6-9.2-5.6-15.7c0-7.6,2.5-13.9,7.4-19.2c2.8-2.8,5.4-4.8,7.7-5.7c2.6-1,4.9-1.6,6.8-1.9c2-0.3,4.3-0.4,7.1-0.4h2.3   c2.3,0,4.7,0.3,7.1,0.9c2.5,0.6,4.5,1.3,6.2,2.2l1.8,0.5c0.5,0,0.9-0.2,1.1-0.5l0.7-1.5c0.6-1.1,1.5-1.6,2.7-1.6   c2.2,0,3.3,1.8,3.3,5.2l1.2,17.1l0.1,1.7c0,2.4-1,3.5-3,3.5l-1.6-0.4l-1.1-0.7l-1-1.5l-1.2-2.3c-4.6-8.8-10.9-13.2-19-13.2   c-3.4,0-6.2,0.8-8.2,2.5c-2.1,1.7-3.1,3.9-3.1,6.8c0,2.1,0.8,4.1,2.4,5.9c1.1,1.1,2.9,2.3,5.5,3.5c2.6,1.2,6.8,2.8,12.7,4.8   c5,1.7,8.7,3.1,10.9,4.1c2.2,1.1,4.4,2.4,6.5,4.1c6.1,4.8,9.2,11.4,9.2,19.9c0,8.9-3.2,16.3-9.6,22.2c-3.1,3-6.3,5.1-9.6,6.3   c-3.3,1.2-7.6,1.8-12.7,1.8c-3.2,0-6.2-0.2-9.1-0.7c-2.9-0.5-5.1-1.2-6.8-2l-3.4-2l-2-0.4c-1.3,0-2.3,0.7-2.9,2.2   c-0.7,1.5-1.5,2.2-2.6,2.2c-2.2,0-3.3-1.7-3.3-5.1l-1.3-23.6v-1.2c0-2.5,1.1-3.8,3.2-3.8c1.5,0,2.6,0.6,3.2,1.8l1.1,1.8L543.6,507z   "/>
	<path class="st0" d="M645.8,534.6h-33.6c-3.4,0-5-1.4-5-4.1c0-1.1,0.4-2,1.1-2.7c0.7-0.7,1.7-1.1,2.9-1.1h1.5c1.1,0,2-0.3,2.7-1   c0.6-0.7,1-1.7,1.1-2.9c0.1-1.2,0.1-2.8,0.1-4.7v-0.9v-53.5v-1l0.1-4.7c0-1.1-0.4-2-1.1-2.7c-0.7-0.7-1.6-1.1-2.7-1.1h-1.6   c-1.1,0-2.1-0.4-2.8-1.1s-1.1-1.7-1.1-2.8c0-0.9,0.4-1.8,1.1-2.6s1.7-1.2,2.8-1.2h1.1h33.4h1.1c2.6,0,3.9,1.3,3.9,3.8   c0,2.6-1.3,3.8-3.9,3.8h-1.6c-1.1,0-1.9,0.3-2.6,1c-0.7,0.7-1.1,1.5-1.2,2.3c-0.2,0.8-0.2,2.6-0.2,5.3v1v20c0,0.6,0,0.9,0.1,1.1   c0.1,0.2,0.2,0.2,0.2,0.2c0.4,0,0.8-0.2,1.1-0.7l16.7-22.9c1.5-2,2.2-3.4,2.2-4.3c0-0.7-0.4-1.4-1.2-2c-0.8-0.6-1.7-0.9-2.7-0.9h-1   c-2.5,0-3.8-1.3-3.8-3.8c0-2.6,1.3-3.9,4-3.9h25.1c3,0,4.5,1.2,4.5,3.7c0,1-0.4,2-1.1,2.8c-0.7,0.8-1.6,1.2-2.7,1.2h-1.8   c-2,0-4.7,2.2-7.9,6.7l-15.6,20.3l-0.2,0.7c0.2,0.5,0.3,0.8,0.5,1l30.4,37.5c1.9,2.3,3.1,3.8,3.8,4.5c0.6,0.7,1.2,1.1,1.7,1.3   l2.1,0.4c1.6,0.4,2.6,0.8,3,1.2s0.5,1.2,0.5,2.5c0,1.5-0.4,2.6-1.3,3.3c-0.9,0.7-2.3,1-4.4,1h-34.6c-2.9,0-4.4-1.3-4.4-3.9   c0-2.4,1.2-3.7,3.5-4h0.8h1.3c0.9,0,1.4-0.5,1.4-1.6c0-0.6-0.3-1.4-0.9-2.5c-0.6-1.1-1.3-2.2-2.2-3.3L641.4,497l-0.2,2.7v17.6v1   v4.6c0.2,2.5,1.6,3.8,4.1,3.8h1.4c2.8,0,4.1,1.3,4.1,4c0,1.1-0.4,2-1.2,2.7c-0.8,0.8-1.7,1.2-2.9,1.2H645.8z"/>
	<path class="st0" d="M723.1,527.2h0.5c2.4,0,3.5,1.2,3.5,3.5c0,2.6-1.7,3.9-5.1,3.9h-22.2c-2.8,0-4.3-1.2-4.3-3.7   c0-0.8,0.3-1.5,1-2.3c0.7-0.8,1.4-1.2,2.3-1.4l0.7-0.1c2-0.5,3.9-2.2,5.5-5.1c2.3-4.2,4.3-8.9,6.1-14.1l15.7-45.1l0.4-1.5l-0.5-1.5   l-1.1-1.8l-0.2-1.2c0-0.5,0.3-1,1-1.6l12.4-9.8c1.6-1.4,2.9-2.1,3.8-2.1c1.1,0,2,0.9,2.7,2.8l30,73.7c0.7,1.5,1.2,2.7,1.6,3.6   c0.4,0.9,0.8,1.6,1.3,2.2c0.4,0.6,1.4,0.9,2.7,0.9h0.5c1.1,0,1.9,0.3,2.6,1c0.7,0.7,1,1.6,1,2.7c0,1.6-0.4,2.7-1.1,3.3   c-0.7,0.6-2.2,0.9-4.4,0.9h-33.2c-3.3,0-5-1.3-5-3.8c0-1.1,0.4-2.1,1.1-2.9c0.7-0.8,1.7-1.2,2.8-1.2h1.2h1.8c0.7,0,1.3-0.4,1.8-1.1   c0.5-0.7,0.7-1.6,0.7-2.7c0-0.7-0.1-1.4-0.2-2c-0.1-0.6-0.4-1.6-0.9-3.1l-4.5-12.3c-0.2-0.8-0.5-1.3-0.9-1.5   c-0.4-0.2-1.1-0.3-2.3-0.3h-18.3c-1.5,0-2.4,0.6-2.7,1.8l-1.8,6.9c-1,3.4-1.5,6.9-1.5,10.5c0,1.1,0.3,2,1,2.9   c0.6,0.9,1.4,1.3,2.2,1.3H723.1z M725.4,493.4c0,0.7,0.5,1.1,1.5,1.1h11.6c1.2,0,1.8-0.3,1.8-1l-0.4-1.3l-6.9-17.4   c-0.2-0.3-0.4-0.7-0.6-1c-0.2-0.1-0.3-0.2-0.4-0.2c-0.6,0.6-0.9,1-1,1.2l-5.5,17.8L725.4,493.4z"/>
	<path class="st0" d="M792.1,534.6h-1.3c-0.9,0-1.7-0.4-2.3-1.2c-0.7-0.8-1-1.8-1-3c0-1.1,0.4-2,1.2-2.7c0.8-0.7,1.7-1.1,2.9-1.1   h1.5c2.7,0,4-2.4,4-7.1l-0.1-1.5v-1V464v-0.9l-0.1-4.7c0-1.1-0.4-1.9-1.1-2.7c-0.7-0.7-1.6-1.1-2.7-1.1h-1.5c-2.7,0-4-1.3-4-3.9   c0-2.7,1.7-4,5-4h43.4c4,0,7.6,0.2,10.9,0.6c5.8,0.8,10.4,3.3,13.8,7.3c3.4,4.1,5.1,9.1,5.1,15.1c0,7.2-2.4,13-7.2,17.3   c-1.1,1-2.2,1.8-3.4,2.4c-1.2,0.6-2.2,0.9-3,0.9c-1.5,0.2-2.2,0.4-2.2,0.9l0.2,0.9l1.1,1.7l16.7,26c2.5,4,4.3,6.1,5.2,6.5l1.5,0.5   c2.4,0.9,3.5,2.2,3.5,3.8c0,1.2-0.4,2.2-1.3,3c-0.9,0.8-1.9,1.2-3.2,1.2h-26.2L830,498.1c-1-2.5-2.7-3.8-5.3-3.8h-1.1l-2.1,0.7v2.4   v19.7v1v4.6c0.2,1.1,0.6,2,1.3,2.7c0.7,0.8,1.6,1.2,2.7,1.2h1.6c2.6,0,3.9,1.3,3.9,4c0,2.6-1.7,4-5,4H792.1z M821.5,459v27.8   c2,0.6,4,1,5.9,1c3.7,0,6.8-1.6,9.3-4.9c2.5-3.2,3.8-7.3,3.8-12.3c0-4.9-1.1-8.8-3.4-11.7c-2.3-2.9-5.3-4.4-9.2-4.4h-2.3   c-1.6,0-2.7,0.3-3.2,0.8C821.8,455.9,821.5,457.1,821.5,459z"/>
	<path class="st0" d="M959.5,446.7l4,21.2l0.6,3.9c0,2-0.9,3-2.8,3l-1.6-0.2l-1.1-0.7l-3.2-3.8l-2.4-3.8c-0.9-1.1-1.9-2.3-2.9-3.4   c-1.1-1.1-2.3-2.4-3.8-3.8c-4.1-3.8-7.7-5.7-10.9-5.7c-1.1,0-1.9,0.4-2.4,1.3c-0.4,0.9-0.7,2.5-0.7,4.8l0.1,57.8l-0.1,1v2   c0,4.3,1.3,6.5,4,6.5h1.6c1.1,0,2,0.4,2.7,1.2c0.8,0.8,1.2,1.7,1.2,2.9c0,2.6-1.7,3.9-5.1,3.9h-33.3c-3.4,0-5.1-1.4-5.1-4.1   c0-1.1,0.4-2,1.1-2.7c0.7-0.7,1.7-1.1,2.9-1.1h1.6c1.1,0,2-0.4,2.6-1.2c0.6-0.6,0.9-1.2,1.1-2c0.2-0.8,0.2-2.5,0.2-5.3v-0.9v-57.7   l-0.1-3.5c-0.2-1.5-1.1-2.2-2.9-2.2c-0.9,0-2.4,0.5-4.6,1.5c-2.7,1.3-4.8,2.6-6.3,4c-1.5,1.4-3.5,3.5-5.7,6.5l-3.5,4.6l-2.2,2.6   c-1.2,1.5-2.4,2.3-3.7,2.3c-0.7,0-1.4-0.3-2-0.9c-0.6-0.6-0.9-1.2-0.9-1.8l0.5-3.4l4.3-22.6H959.5z"/>
	<path class="st0" d="M1040.4,534.6h-67.2c-3.3,0-5-1.3-5-3.8c0-2.6,1.3-3.9,4-3.9h1.5c1.5,0,2.6-0.6,3.2-1.7   c0.6-1.1,0.9-3.4,0.9-6.7v-1v-53.8v-0.7l-0.1-4.8c0-1.1-0.4-2-1.1-2.7c-0.7-0.7-1.6-1.1-2.7-1.1h-1.6c-2.6,0-3.9-1.3-3.9-3.8   c0-1.1,0.5-2,1.5-2.8c1-0.7,2.3-1.1,4-1.1h58.9l5,17.8l0.5,2c0.3,0.8,0.5,1.4,0.5,1.8c0,0.9-0.3,1.7-1,2.3c-0.7,0.7-1.5,1-2.6,1   c-0.8,0-1.4-0.2-1.8-0.6c-0.4-0.4-1.2-1.5-2.3-3.3c-2.3-3.4-5.8-6.5-10.6-9.2c-4.8-2.7-8.9-4.1-12.5-4.1c-2.3,0-3.9,0.7-4.8,2   c-0.4,0.5-0.7,1.1-0.7,1.7c-0.1,0.7-0.1,1.5-0.1,2.4v1.5v21.8c0,1.3,0.1,2.1,0.4,2.4c0.3,0.3,1,0.4,2.1,0.4c6.7,0,10.4-3.3,11.1-10   l0.4-3.4c0.4-2.7,1.5-4,3.2-4c1.3,0,2.4,0.5,3.2,1.5c0.3,0.7,0.5,1.3,0.5,2v3.8v28.5l-0.1,3.3v1.5c-0.5,1.5-1.5,2.2-3,2.2   c-2,0-3.1-1.1-3.5-3.3l-1.1-5.4c-0.5-2.9-1.6-5.2-3.4-7c-1.8-1.7-4-2.6-6.6-2.6c-1.1,0-1.9,0.2-2.4,0.5c-0.4,0.4-0.7,1.2-0.7,2.4   v20.7l0.1,4.5c0.5,3.4,2.6,5.1,6.5,5.1c6.3,0,12.6-2,19.2-6c3.7-2.3,6.5-4.6,8.5-6.8c0.9-0.7,1.5-1.3,2-1.8c0.2-0.2,1-1.3,2.6-3.3   c1.6-2,2.8-3,3.6-3c2.1,0,3.2,1.1,3.2,3.2c0,0.6-0.1,1.2-0.2,2c-0.2,0.8-0.5,2.1-1.1,3.8L1040.4,534.6z"/>
</g>
</svg>