<svg xmlns="http://www.w3.org/2000/svg" xmlns:xlink="http://www.w3.org/1999/xlink" version="1.1" id="Layer_1" x="0px" y="0px" style="enable-background:new 0 0 1000 1000;" xml:space="preserve" viewBox="91.2 437.6 817.7 125">
<style type="text/css">
	.st0{fill:rgb(54, 69, 79);}
	.st1{fill:#C79F46;}
	.st2{fill:#FFA500;}
	.st3{fill:#AAAAAA;}
	.st4{fill:#FFFFFF;}
</style>
<g>
	<path class="st0" d="M138.5,508.9l-0.7,2.3v27.6v1v6.4c0.3,3.6,2.2,5.3,5.5,5.3h1.8c1.6,0,2.9,0.5,3.9,1.5c1.1,1,1.6,2.2,1.6,3.7   c0,3.8-2.3,5.7-6.9,5.7H98c-2.1,0-3.8-0.5-5-1.5c-1.2-1-1.8-2.4-1.8-4.2c0-1.4,0.5-2.7,1.5-3.7s2.3-1.5,4-1.5h2   c1.6,0,2.8-0.6,3.7-1.7c0.9-0.8,1.4-2,1.5-3.8c0.1-1.7,0.2-3.8,0.2-6.3v-0.7v-73.5v-1.2l-0.2-6.4c0-1.6-0.5-2.8-1.5-3.8   c-1-1-2.2-1.5-3.7-1.5h-2c-3.7,0-5.5-1.8-5.5-5.3c0-3.7,2.3-5.5,6.9-5.5h55.3h14c8,0,15,3.3,21.1,9.9c6,6.6,9,14.2,9,22.7   c0,8.6-3.1,16.4-9.2,23.4c-4.8,5.6-12.1,9.1-22.1,10.5l-6,0.5h-18.6H138.5z M137.8,458.3v38.8c1,0.2,2.3,0.4,3.8,0.7   c1.5,0.2,2.8,0.3,3.9,0.3c12.5,0,18.7-6.5,18.7-19.4v-6.2l-0.7-5.2c0-1.4-0.3-3-0.8-4.6c-0.6-1.6-1.3-3-2.2-4.3   c-2.8-4.5-7.5-6.7-14-6.7c-5.2,0-8.1,1.3-8.7,4V458.3z"/>
	<path class="st0" d="M256.8,441.9h1.7c1.6,0,2.8,0.5,3.8,1.5c1,1,1.5,2.3,1.5,3.9c0,3.6-1.8,5.4-5.3,5.4h-2.2   c-1.4,0-2.6,0.5-3.6,1.4c-0.9,0.9-1.5,2.2-1.6,3.9c-0.1,1.7-0.2,3.8-0.2,6.3v1v73.3v1.2v6.5c0.3,3.4,2.1,5.2,5.3,5.2h2.2   c3.6,0,5.3,1.8,5.3,5.4c0,3.6-2.3,5.4-7,5.4H211c-4.7,0-7-1.8-7-5.4c0-1.6,0.5-2.9,1.5-3.9s2.3-1.5,4-1.5h2.2c2,0,3.4-0.9,4.3-2.6   c0.8-1.7,1.3-4.7,1.3-9.1v-1.2v-73.3v-1c0-4.1-0.4-7.1-1.3-8.9c-0.9-1.8-2.3-2.8-4.3-2.8h-2c-3.7,0-5.5-1.8-5.5-5.4   c0-3.6,2.3-5.4,6.9-5.4H256.8z"/>
	<path class="st0" d="M270.2,558.2l0.5-1.7l0.2-0.7l52.5-100.4c0.2-0.4,0.5-1.2,0.8-2.2c0-0.1,0.1-0.3,0.2-0.5l-2.8-0.5h-3.3   c-2.9,0-6.4,0.7-10.4,2c-4,1.3-7.2,3-9.7,4.8c-3.9,2.8-7.5,6.2-10.9,10.4c-2.2,2.8-3.7,4.5-4.5,5.2c-0.8,0.7-1.8,1-3,1   c-1.3,0-2.2-0.2-2.7-0.7l-1-1.5c-0.6-0.8-0.8-1.3-0.8-1.7l0.3-1l0.5-2.5l10.7-26.4h71.7h3.3h1.2h1.2h1.3l0.5,1l0.2,0.7l-0.5,1.3   l-2,3.5l-49.1,94.4c-0.6,1-1.1,2.3-1.7,3.8c0,0.2-0.1,0.4-0.3,0.7c0,0.4,0.2,0.7,0.7,0.8c0.4,0.1,1.6,0.2,3.5,0.2h8.5   c3.1,0,6.7-0.7,10.8-2c4.1-1.3,7.5-2.9,10.4-4.8c4.9-3.4,10.1-9.1,15.5-17l2-2.7l1.5-2c1-1.1,2.4-1.7,4.2-1.7   c2.8,0,4.2,1.8,4.2,5.5l-1,5.2l-8.7,33.5h-87.6c-4.5,0-6.7-0.9-6.7-2.8L270.2,558.2z"/>
	<path class="st0" d="M376.5,558.2l0.5-1.7l0.2-0.7l52.5-100.4c0.2-0.4,0.5-1.2,0.8-2.2c0-0.1,0.1-0.3,0.2-0.5l-2.8-0.5h-3.3   c-2.9,0-6.4,0.7-10.4,2c-4,1.3-7.2,3-9.7,4.8c-3.9,2.8-7.5,6.2-10.9,10.4c-2.2,2.8-3.7,4.5-4.5,5.2c-0.8,0.7-1.8,1-3,1   c-1.3,0-2.2-0.2-2.7-0.7l-1-1.5c-0.6-0.8-0.8-1.3-0.8-1.7l0.3-1l0.5-2.5l10.7-26.4h71.7h3.3h1.2h1.2h1.3l0.5,1l0.2,0.7l-0.5,1.3   l-2,3.5l-49.1,94.4c-0.6,1-1.1,2.3-1.7,3.8c0,0.2-0.1,0.4-0.3,0.7c0,0.4,0.2,0.7,0.7,0.8c0.4,0.1,1.6,0.2,3.5,0.2h8.5   c3.1,0,6.7-0.7,10.8-2c4.1-1.3,7.5-2.9,10.4-4.8c4.9-3.4,10.1-9.1,15.5-17l2-2.7l1.5-2c1-1.1,2.4-1.7,4.2-1.7   c2.8,0,4.2,1.8,4.2,5.5l-1,5.2l-8.7,33.5h-87.6c-4.5,0-6.7-0.9-6.7-2.8L376.5,558.2z"/>
	<path class="st0" d="M584.1,562.4H492c-4.6,0-6.9-1.7-6.9-5.2c0-3.6,1.8-5.3,5.5-5.3h2c2.1,0,3.6-0.8,4.3-2.4   c0.8-1.6,1.2-4.6,1.2-9.2V539v-73.7v-1l-0.2-6.6c0-1.5-0.5-2.7-1.5-3.7s-2.2-1.5-3.7-1.5h-2.2c-3.6,0-5.3-1.8-5.3-5.3   c0-1.5,0.7-2.8,2-3.8s3.2-1.5,5.5-1.5h80.7l6.9,24.4l0.7,2.7c0.4,1.1,0.7,2,0.7,2.5c0,1.2-0.4,2.3-1.3,3.2   c-0.9,0.9-2.1,1.3-3.5,1.3c-1.1,0-2-0.3-2.5-0.8c-0.6-0.6-1.6-2.1-3.2-4.5c-3.1-4.7-7.9-8.9-14.5-12.6c-6.5-3.7-12.2-5.6-17.1-5.6   c-3.1,0-5.3,0.9-6.5,2.7c-0.6,0.7-0.9,1.4-1,2.3c-0.1,0.9-0.2,2-0.2,3.3v2v29.9c0,1.8,0.2,2.9,0.6,3.3c0.4,0.4,1.4,0.6,2.9,0.6   c9.1,0,14.2-4.6,15.2-13.7l0.5-4.7c0.6-3.7,2-5.5,4.3-5.5c1.8,0,3.2,0.7,4.3,2c0.4,0.9,0.7,1.8,0.7,2.7v5.2v39.1l-0.2,4.5v2   c-0.7,2-2.1,3-4.2,3c-2.7,0-4.3-1.5-4.8-4.5l-1.5-7.4c-0.7-4-2.2-7.2-4.7-9.5c-2.5-2.3-5.5-3.5-9-3.5c-1.6,0-2.6,0.3-3.3,0.8   c-0.6,0.5-0.9,1.6-0.9,3.3v28.4l0.2,6.2c0.7,4.7,3.6,7,8.9,7c8.6,0,17.3-2.7,26.2-8.2c5-3.1,8.9-6.2,11.7-9.4   c1.2-1,2.1-1.8,2.7-2.5c0.2-0.2,1.4-1.7,3.6-4.5c2.2-2.8,3.8-4.2,4.9-4.2c2.9,0,4.3,1.5,4.3,4.3c0,0.8-0.1,1.7-0.3,2.8   c-0.2,1.1-0.7,2.8-1.5,5.3L584.1,562.4z"/>
	<path class="st0" d="M606,562.4h-1.8c-1.2,0-2.3-0.6-3.2-1.7c-0.9-1.1-1.3-2.5-1.3-4.1c0-1.5,0.5-2.7,1.6-3.6   c1.1-1,2.4-1.4,3.9-1.4h2c3.7,0,5.5-3.2,5.5-9.7l-0.2-2v-1.3v-72.9v-1.2l-0.2-6.5c0-1.4-0.5-2.7-1.5-3.7c-1-1-2.2-1.5-3.7-1.5h-2   c-3.7,0-5.5-1.8-5.5-5.3c0-3.7,2.3-5.5,6.9-5.5H666c5.5,0,10.4,0.3,14.9,0.8c7.9,1.1,14.2,4.5,18.9,10c4.7,5.6,7,12.5,7,20.7   c0,9.9-3.3,17.8-9.9,23.7c-1.5,1.3-3,2.4-4.6,3.3c-1.6,0.8-3,1.3-4.1,1.3c-2,0.2-3,0.6-3,1.2l0.3,1.2l1.5,2.3l22.9,35.6   c3.5,5.5,5.8,8.4,7.2,8.9l2,0.7c3.2,1.2,4.8,3,4.8,5.2c0,1.7-0.6,3-1.8,4.1c-1.2,1.1-2.7,1.6-4.4,1.6h-35.9l-24-50   c-1.3-3.5-3.8-5.2-7.2-5.2h-1.5l-2.9,1v3.3v27v1.3v6.3c0.2,1.4,0.8,2.7,1.8,3.7s2.2,1.6,3.7,1.6h2.2c3.6,0,5.3,1.8,5.3,5.4   c0,3.6-2.3,5.4-6.9,5.4H606z M646.2,458.8v38.1c2.8,0.9,5.5,1.3,8,1.3c5,0,9.2-2.2,12.7-6.7c3.5-4.4,5.2-10,5.2-16.8   c0-6.7-1.6-12-4.7-16c-3.1-4-7.3-6-12.5-6h-3.2c-2.2,0-3.7,0.4-4.4,1.1C646.6,454.6,646.2,456.2,646.2,458.8z"/>
	<path class="st0" d="M776.8,441.9h1.7c1.6,0,2.8,0.5,3.8,1.5s1.5,2.3,1.5,3.9c0,3.6-1.8,5.4-5.3,5.4h-2.2c-1.4,0-2.6,0.5-3.6,1.4   c-0.9,0.9-1.5,2.2-1.6,3.9c-0.1,1.7-0.2,3.8-0.2,6.3v1v73.3v1.2v6.5c0.3,3.4,2.1,5.2,5.3,5.2h2.2c3.6,0,5.3,1.8,5.3,5.4   c0,3.6-2.3,5.4-7,5.4H731c-4.7,0-7-1.8-7-5.4c0-1.6,0.5-2.9,1.5-3.9c1-1,2.3-1.5,4-1.5h2.2c2,0,3.4-0.9,4.3-2.6   c0.8-1.7,1.3-4.7,1.3-9.1v-1.2v-73.3v-1c0-4.1-0.4-7.1-1.3-8.9c-0.9-1.8-2.3-2.8-4.3-2.8h-2c-3.7,0-5.5-1.8-5.5-5.4   c0-3.6,2.3-5.4,6.9-5.4H776.8z"/>
	<path class="st0" d="M823.9,552.2h0.7c3.2,0,4.8,1.6,4.8,4.8c0,3.6-2.3,5.4-7,5.4H792c-3.9,0-5.8-1.7-5.8-5c0-1,0.4-2.1,1.3-3.1   c0.9-1,2-1.7,3.2-1.9l1-0.2c2.8-0.7,5.3-3,7.5-6.9c3.1-5.7,5.9-12.2,8.4-19.3l21.5-61.8l0.5-2l-0.7-2l-1.5-2.5l-0.3-1.7   c0-0.7,0.4-1.4,1.3-2.2l17-13.4c2.2-1.9,4-2.8,5.2-2.8c1.6,0,2.8,1.3,3.7,3.8l41.1,100.9c0.9,2.1,1.6,3.8,2.2,4.9   c0.6,1.2,1.1,2.2,1.8,3c0.6,0.8,1.9,1.3,3.8,1.3h0.7c1.4,0,2.6,0.5,3.6,1.4c0.9,0.9,1.4,2.2,1.4,3.8c0,2.2-0.5,3.7-1.5,4.5   c-1,0.8-3,1.2-6,1.2h-45.5c-4.6,0-6.9-1.7-6.9-5.2c0-1.6,0.5-2.9,1.5-4c1-1.1,2.3-1.7,3.8-1.7h1.7h2.5c1,0,1.8-0.5,2.5-1.5   c0.7-1,1-2.2,1-3.7c0-1-0.1-1.9-0.3-2.8c-0.2-0.8-0.6-2.3-1.3-4.3l-6.2-16.9c-0.3-1.1-0.8-1.8-1.3-2.1c-0.5-0.3-1.5-0.4-3.1-0.4   h-25.1c-2,0-3.2,0.8-3.7,2.5l-2.5,9.4c-1.3,4.6-2,9.4-2,14.4c0,1.5,0.4,2.8,1.3,4c0.9,1.2,1.9,1.8,3,1.8H823.9z M827.1,505.9   c0,1,0.7,1.5,2,1.5H845c1.7,0,2.5-0.4,2.5-1.3l-0.5-1.8l-9.5-23.9c-0.2-0.4-0.5-0.9-0.8-1.3c-0.2-0.1-0.4-0.2-0.5-0.3   c-0.8,0.8-1.2,1.3-1.3,1.7l-7.5,24.4L827.1,505.9z"/>
</g>
</svg>