<svg xmlns="http://www.w3.org/2000/svg" xmlns:xlink="http://www.w3.org/1999/xlink" version="1.1" id="Layer_1" x="0px" y="0px" style="enable-background:new 0 0 1000 1000;" xml:space="preserve" viewBox="64.8 451 870.3 98.4">
<style type="text/css">
	.st0{fill:rgb(54, 69, 79);}
	.st1{fill:#C79F46;}
	.st2{fill:#FFA500;}
	.st3{fill:#AAAAAA;}
	.st4{fill:#FFFFFF;}
</style>
<g>
	<g>
		<path class="st0" d="M69.6,546.9h-1.4c-0.9,0-1.8-0.4-2.4-1.3c-0.7-0.9-1-1.9-1-3.1c0-1.1,0.4-2.1,1.2-2.8c0.8-0.7,1.8-1.1,3-1.1    h1.5c2.8,0,4.2-2.5,4.2-7.4l-0.1-1.5v-1v-55.9v-0.9l-0.1-5c0-1.1-0.4-2-1.2-2.8c-0.8-0.8-1.7-1.2-2.8-1.2h-1.5    c-2.8,0-4.2-1.4-4.2-4.1c0-2.8,1.8-4.2,5.3-4.2h45.7c4.2,0,8,0.2,11.4,0.6c6.1,0.9,10.9,3.4,14.5,7.7c3.6,4.3,5.4,9.6,5.4,15.9    c0,7.6-2.5,13.7-7.6,18.2c-1.1,1-2.3,1.9-3.5,2.5c-1.2,0.6-2.3,1-3.1,1c-1.5,0.2-2.3,0.5-2.3,0.9l0.3,0.9l1.2,1.8l17.6,27.3    c2.6,4.2,4.5,6.5,5.5,6.8l1.5,0.5c2.5,0.9,3.7,2.3,3.7,4c0,1.3-0.5,2.3-1.4,3.1c-0.9,0.8-2,1.2-3.4,1.2h-27.6l-18.4-38.3    c-1-2.6-2.9-4-5.5-4h-1.2l-2.2,0.8v2.6v20.7v1v4.9c0.2,1.1,0.6,2.1,1.4,2.9c0.8,0.8,1.7,1.2,2.8,1.2h1.7c2.7,0,4.1,1.4,4.1,4.2    c0,2.8-1.8,4.2-5.3,4.2H69.6z M100.5,467.3v29.3c2.1,0.7,4.2,1,6.2,1c3.8,0,7.1-1.7,9.7-5.1c2.6-3.4,4-7.7,4-12.9    c0-5.1-1.2-9.2-3.6-12.3c-2.4-3.1-5.6-4.6-9.6-4.6h-2.4c-1.7,0-2.8,0.3-3.4,0.8C100.7,464.1,100.5,465.4,100.5,467.3z"/>
		<path class="st0" d="M202.6,454.4h1.3c1.2,0,2.2,0.4,2.9,1.2c0.8,0.8,1.2,1.8,1.2,3c0,2.8-1.4,4.2-4.1,4.2h-1.7    c-1.1,0-2,0.4-2.8,1.1c-0.7,0.7-1.1,1.7-1.2,3c-0.1,1.3-0.1,2.9-0.1,4.9v0.8v56.2v0.9v5c0.3,2.6,1.6,4,4.1,4h1.7    c2.7,0,4.1,1.4,4.1,4.2c0,2.8-1.8,4.2-5.4,4.2h-35.1c-3.6,0-5.4-1.4-5.4-4.2c0-1.2,0.4-2.2,1.2-3c0.8-0.8,1.8-1.2,3.1-1.2h1.7    c1.5,0,2.6-0.7,3.3-2c0.6-1.3,1-3.6,1-7v-0.9v-56.2v-0.8c0-3.2-0.3-5.4-1-6.8c-0.7-1.4-1.8-2.1-3.3-2.1h-1.5    c-2.8,0-4.2-1.4-4.2-4.2c0-2.8,1.8-4.2,5.3-4.2H202.6z"/>
		<path class="st0" d="M222,517.9l3.2,6.8c4.5,8.8,11.4,13.3,20.5,13.3c4.6,0,8.2-1,10.6-3.1c2.5-2.1,3.7-5,3.7-8.8    c0-2.1-0.7-4.1-2.1-6.2c-0.9-1.1-1.6-1.8-1.9-2.2c-1-0.9-1.8-1.5-2.3-1.9c-1.8-1.4-3.7-2.5-5.8-3.4c-2.1-0.9-5.7-2.2-10.8-3.8    c-9-2.9-15.4-6.5-19.3-10.6c-3.9-4.2-5.8-9.7-5.8-16.5c0-8,2.6-14.7,7.8-20.1c3-3,5.7-5,8.1-6c2.7-1,5.1-1.7,7.2-2    c2.1-0.3,4.5-0.4,7.4-0.4h2.4c2.4,0,4.9,0.3,7.5,0.9c2.6,0.6,4.8,1.4,6.5,2.3l1.9,0.5c0.5,0,0.9-0.2,1.2-0.5l0.8-1.5    c0.7-1.1,1.6-1.7,2.8-1.7c2.3,0,3.5,1.8,3.5,5.5l1.3,18l0.1,1.8c0,2.5-1.1,3.7-3.2,3.7l-1.7-0.4l-1.2-0.8l-1-1.5l-1.3-2.4    c-4.8-9.2-11.5-13.8-20-13.8c-3.6,0-6.5,0.9-8.7,2.6c-2.2,1.8-3.3,4.1-3.3,7.1c0,2.2,0.9,4.3,2.6,6.2c1.1,1.2,3,2.4,5.8,3.7    c2.7,1.2,7.2,2.9,13.3,5.1c5.3,1.8,9.1,3.3,11.5,4.4c2.4,1.1,4.6,2.6,6.9,4.4c6.4,5,9.6,12,9.6,20.9c0,9.3-3.4,17.1-10.1,23.3    c-3.3,3.2-6.6,5.4-10.1,6.7c-3.5,1.3-8,1.9-13.3,1.9c-3.3,0-6.5-0.3-9.6-0.8c-3-0.5-5.4-1.2-7.1-2.1l-3.6-2.1l-2.1-0.4    c-1.4,0-2.4,0.8-3.1,2.3c-0.7,1.5-1.6,2.3-2.7,2.3c-2.3,0-3.5-1.8-3.5-5.4l-1.4-24.8v-1.3c0-2.6,1.1-4,3.3-4    c1.6,0,2.7,0.6,3.3,1.9l1.2,1.9L222,517.9z"/>
		<path class="st0" d="M362.2,454.4l4.2,22.3l0.6,4.1c0,2.1-1,3.2-2.9,3.2l-1.7-0.3l-1.2-0.8l-3.3-4l-2.6-4c-0.9-1.2-2-2.4-3.1-3.6    c-1.1-1.2-2.4-2.5-4-4c-4.3-4-8.1-6-11.4-6c-1.2,0-2,0.5-2.5,1.4c-0.5,0.9-0.7,2.6-0.7,5l0.1,60.8l-0.1,1v2.1    c0,4.5,1.4,6.8,4.2,6.8h1.7c1.1,0,2.1,0.4,2.9,1.2c0.8,0.8,1.2,1.8,1.2,3c0,2.7-1.8,4.1-5.4,4.1h-35c-3.6,0-5.4-1.5-5.4-4.4    c0-1.1,0.4-2.1,1.2-2.8s1.8-1.2,3.1-1.2h1.7c1.2,0,2.1-0.4,2.7-1.3c0.6-0.6,1-1.3,1.2-2.1c0.2-0.8,0.3-2.7,0.3-5.6v-0.9V468    l-0.1-3.7c-0.2-1.5-1.2-2.3-3.1-2.3c-0.9,0-2.6,0.5-4.9,1.5c-2.8,1.4-5,2.8-6.7,4.2c-1.6,1.5-3.6,3.7-6,6.8l-3.7,4.9l-2.3,2.7    c-1.3,1.6-2.6,2.4-3.8,2.4c-0.8,0-1.5-0.3-2.1-0.9c-0.6-0.6-0.9-1.2-0.9-1.9l0.5-3.6l4.5-23.7H362.2z"/>
		<path class="st0" d="M465.8,546.9h-1.4c-0.9,0-1.8-0.4-2.4-1.3c-0.7-0.9-1-1.9-1-3.1c0-1.1,0.4-2.1,1.2-2.8c0.8-0.7,1.8-1.1,3-1.1    h1.5c2.8,0,4.2-2.5,4.2-7.4l-0.1-1.5v-1v-55.9v-0.9l-0.1-5c0-1.1-0.4-2-1.2-2.8c-0.8-0.8-1.7-1.2-2.8-1.2h-1.5    c-2.8,0-4.2-1.4-4.2-4.1c0-2.8,1.8-4.2,5.3-4.2h45.7c4.2,0,8,0.2,11.4,0.6c6.1,0.9,10.9,3.4,14.5,7.7c3.6,4.3,5.4,9.6,5.4,15.9    c0,7.6-2.5,13.7-7.6,18.2c-1.1,1-2.3,1.9-3.5,2.5c-1.2,0.6-2.3,1-3.1,1c-1.5,0.2-2.3,0.5-2.3,0.9l0.3,0.9l1.2,1.8l17.6,27.3    c2.6,4.2,4.5,6.5,5.5,6.8l1.5,0.5c2.5,0.9,3.7,2.3,3.7,4c0,1.3-0.5,2.3-1.4,3.1c-0.9,0.8-2,1.2-3.4,1.2h-27.6l-18.4-38.3    c-1-2.6-2.9-4-5.5-4h-1.2l-2.2,0.8v2.6v20.7v1v4.9c0.2,1.1,0.6,2.1,1.4,2.9c0.8,0.8,1.7,1.2,2.8,1.2h1.7c2.7,0,4.1,1.4,4.1,4.2    c0,2.8-1.8,4.2-5.3,4.2H465.8z M496.8,467.3v29.3c2.1,0.7,4.2,1,6.2,1c3.8,0,7.1-1.7,9.7-5.1c2.6-3.4,4-7.7,4-12.9    c0-5.1-1.2-9.2-3.6-12.3c-2.4-3.1-5.6-4.6-9.6-4.6H501c-1.7,0-2.8,0.3-3.4,0.8C497,464.1,496.8,465.4,496.8,467.3z"/>
		<path class="st0" d="M589.2,539h0.5c2.5,0,3.7,1.2,3.7,3.7c0,2.7-1.8,4.1-5.4,4.1h-23.3c-3,0-4.5-1.3-4.5-3.8c0-0.8,0.3-1.6,1-2.4    c0.7-0.8,1.5-1.3,2.4-1.5l0.8-0.1c2.1-0.5,4.1-2.3,5.8-5.3c2.4-4.4,4.5-9.3,6.4-14.8l16.5-47.5l0.4-1.5l-0.5-1.5l-1.1-1.9    l-0.3-1.3c0-0.5,0.3-1.1,1-1.7l13.1-10.3c1.7-1.5,3-2.2,4-2.2c1.2,0,2.1,1,2.8,2.9l31.5,77.5c0.7,1.6,1.2,2.9,1.7,3.8    c0.4,0.9,0.9,1.7,1.3,2.3c0.5,0.6,1.4,1,2.9,1h0.5c1.1,0,2,0.4,2.8,1.1c0.7,0.7,1.1,1.7,1.1,2.9c0,1.7-0.4,2.9-1.2,3.5    c-0.8,0.6-2.3,0.9-4.6,0.9h-34.9c-3.5,0-5.3-1.3-5.3-4c0-1.2,0.4-2.2,1.2-3.1c0.8-0.9,1.8-1.3,2.9-1.3h1.3h1.9    c0.8,0,1.4-0.4,1.9-1.2c0.5-0.8,0.8-1.7,0.8-2.8c0-0.8-0.1-1.5-0.2-2.1c-0.1-0.6-0.4-1.7-1-3.3l-4.7-13c-0.3-0.9-0.6-1.4-1-1.6    c-0.4-0.2-1.2-0.3-2.4-0.3h-19.2c-1.5,0-2.5,0.6-2.8,1.9l-1.9,7.2c-1,3.5-1.5,7.2-1.5,11.1c0,1.1,0.3,2.2,1,3.1    c0.7,0.9,1.5,1.4,2.3,1.4H589.2z M591.6,503.5c0,0.8,0.5,1.2,1.5,1.2h12.2c1.3,0,1.9-0.3,1.9-1l-0.4-1.4l-7.3-18.3    c-0.2-0.3-0.4-0.7-0.6-1c-0.2-0.1-0.3-0.2-0.4-0.3c-0.6,0.6-0.9,1-1,1.3l-5.8,18.7L591.6,503.5z"/>
		<path class="st0" d="M676.3,529.7v4.9c0,1.1,0.4,2.1,1.2,2.8c0.8,0.8,1.7,1.2,2.9,1.2h1.7c1.1,0,2.1,0.4,3,1.2    c0.9,0.8,1.3,1.7,1.3,2.8c0,2.9-1.8,4.4-5.4,4.4h-17.4c-3.6,0-5.4-1.5-5.4-4.4c0-1.1,0.4-2.1,1.2-2.8c0.8-0.8,1.8-1.2,3.1-1.2h1.5    c1.1,0,2-0.4,2.6-1.1c0.6-0.7,1-1.5,1.2-2.4c0.2-0.9,0.3-2.7,0.3-5.5v-0.9v-56.3v-0.6v-4.9c0-1.2-0.4-2.2-1.2-2.9    c-0.8-0.8-1.7-1.2-2.9-1.2h-1.6c-2.9,0-4.3-1.4-4.3-4.1c0-1.1,0.4-2.1,1.2-2.9c0.8-0.9,1.8-1.3,3.1-1.3h1h21.3L731,507    c1.5,1.5,2.4,2.3,2.8,2.3c0.8,0,1.2-1.1,1.2-3.3v-33.5v-0.8v-4.9c0-1.2-0.4-2.2-1.2-2.9c-0.8-0.8-1.7-1.2-2.9-1.2h-1.7    c-2.8,0-4.2-1.4-4.2-4.2c0-2.8,1.4-4.2,4.1-4.2h1.2h18h1.3c2.6,0,4,1.4,4,4.2c0,1.2-0.4,2.2-1.2,3c-0.8,0.8-1.7,1.2-2.8,1.2h-1.7    c-1.3,0-2.2,0.3-2.8,1c-0.6,0.7-1,1.3-1.2,1.9c-0.2,0.6-0.3,1.9-0.3,4v2.1v0.8v68.2v5.5c-0.1,0.7-0.5,1.3-1.3,1.9    c-0.8,0.6-1.7,0.8-2.7,0.8c-2.2,0-4.8-1.6-7.8-4.9l-55.6-61.8l0.1,46.4V529.7z"/>
		<path class="st0" d="M843,454.4l4.2,22.3l0.6,4.1c0,2.1-1,3.2-2.9,3.2l-1.7-0.3l-1.2-0.8l-3.3-4l-2.6-4c-0.9-1.2-2-2.4-3.1-3.6    c-1.1-1.2-2.4-2.5-4-4c-4.3-4-8.1-6-11.4-6c-1.2,0-2,0.5-2.5,1.4c-0.5,0.9-0.7,2.6-0.7,5l0.1,60.8l-0.1,1v2.1    c0,4.5,1.4,6.8,4.2,6.8h1.7c1.1,0,2.1,0.4,2.9,1.2c0.8,0.8,1.2,1.8,1.2,3c0,2.7-1.8,4.1-5.4,4.1h-35c-3.6,0-5.4-1.5-5.4-4.4    c0-1.1,0.4-2.1,1.2-2.8s1.8-1.2,3.1-1.2h1.7c1.2,0,2.1-0.4,2.7-1.3c0.6-0.6,1-1.3,1.2-2.1c0.2-0.8,0.3-2.7,0.3-5.6v-0.9V468    l-0.1-3.7c-0.2-1.5-1.2-2.3-3.1-2.3c-0.9,0-2.6,0.5-4.9,1.5c-2.8,1.4-5,2.8-6.7,4.2c-1.6,1.5-3.6,3.7-6,6.8l-3.7,4.9l-2.3,2.7    c-1.3,1.6-2.6,2.4-3.8,2.4c-0.8,0-1.5-0.3-2.1-0.9c-0.6-0.6-0.9-1.2-0.9-1.9l0.5-3.6l4.5-23.7H843z"/>
		<path class="st0" d="M927.4,546.9h-70.7c-3.5,0-5.3-1.3-5.3-4c0-2.7,1.4-4.1,4.2-4.1h1.5c1.6,0,2.7-0.6,3.3-1.8    c0.6-1.2,0.9-3.6,0.9-7.1v-1v-56.6v-0.8l-0.1-5c0-1.1-0.4-2.1-1.2-2.8c-0.8-0.8-1.7-1.2-2.8-1.2h-1.7c-2.7,0-4.1-1.3-4.1-4    c0-1.2,0.5-2.1,1.5-2.9c1-0.8,2.4-1.1,4.2-1.1h61.9l5.3,18.7l0.5,2.1c0.3,0.9,0.5,1.5,0.5,1.9c0,0.9-0.3,1.8-1,2.4    c-0.7,0.7-1.6,1-2.7,1c-0.9,0-1.5-0.2-1.9-0.6c-0.4-0.4-1.2-1.6-2.4-3.5c-2.4-3.6-6.1-6.8-11.1-9.7c-5-2.9-9.4-4.3-13.1-4.3    c-2.4,0-4.1,0.7-5,2.1c-0.4,0.5-0.7,1.1-0.8,1.8c-0.1,0.7-0.1,1.5-0.1,2.6v1.5v23c0,1.4,0.1,2.2,0.4,2.5c0.3,0.3,1,0.4,2.2,0.4    c7,0,10.9-3.5,11.7-10.5l0.4-3.6c0.4-2.8,1.5-4.2,3.3-4.2c1.4,0,2.5,0.5,3.3,1.5c0.3,0.7,0.5,1.4,0.5,2.1v4v30l-0.1,3.5v1.5    c-0.5,1.5-1.6,2.3-3.2,2.3c-2.1,0-3.3-1.2-3.7-3.5l-1.2-5.6c-0.5-3.1-1.7-5.5-3.6-7.3c-1.9-1.8-4.2-2.7-6.9-2.7    c-1.2,0-2,0.2-2.5,0.6c-0.5,0.4-0.7,1.2-0.7,2.5v21.8l0.1,4.7c0.5,3.6,2.8,5.4,6.8,5.4c6.6,0,13.3-2.1,20.1-6.3    c3.8-2.4,6.8-4.8,9-7.2c0.9-0.8,1.6-1.4,2.1-1.9c0.2-0.2,1.1-1.3,2.8-3.5c1.7-2.1,2.9-3.2,3.8-3.2c2.2,0,3.3,1.1,3.3,3.3    c0,0.6-0.1,1.3-0.3,2.1c-0.2,0.8-0.6,2.2-1.2,4L927.4,546.9z"/>
		<g>
			<g>
				<path class="st0" d="M455.8,481.4c-2-5.5-5.1-10.4-9.4-15c-4.7-4.9-9.6-8.5-14.7-10.6c-5.1-2.1-11.1-3.2-17.9-3.2      c-12.9,0-23.7,4.6-32.5,13.9c-3.7,3.8-6.6,8.3-8.8,13.3c-2.5,5.8-3.7,12.8-3.7,21c0,13.6,4.2,24.8,12.5,33.4      c8.8,9.3,19.7,13.9,32.6,13.9c7.8,0,14.7-1.6,20.5-4.7c4.6-2.5,8.7-5.6,12.3-9.3c4.3-4.4,7.4-9.3,9.3-14.6      c1.9-5.3,2.9-11.7,2.9-19.2C458.8,493.1,457.8,486.8,455.8,481.4z M413.7,534c-9.1,0-14-7.5-14-31.2c0-23.7,3-35.5,14-35.5      c11,0,14,11.8,14,35.5C427.7,526.5,422.8,534,413.7,534z"/>
			</g>
		</g>
	</g>
</g>
</svg>