<svg xmlns="http://www.w3.org/2000/svg" xmlns:xlink="http://www.w3.org/1999/xlink" version="1.1" id="Layer_1" x="0px" y="0px" style="enable-background:new 0 0 1000 1000;" xml:space="preserve" viewBox="119.4 443.5 743.9 93.4">
<style type="text/css">
	.st0{fill:rgb(54, 69, 79);}
</style>
<g>
	<path class="st0" d="M124,534.6h-1.3c-0.9,0-1.7-0.4-2.3-1.2c-0.7-0.8-1-1.8-1-3c0-1.1,0.4-2,1.2-2.7c0.8-0.7,1.7-1.1,2.9-1.1h1.5   c2.7,0,4-2.4,4-7.1l-0.1-1.5v-1V464v-0.9l-0.1-4.7c0-1.1-0.4-1.9-1.1-2.7c-0.7-0.7-1.6-1.1-2.7-1.1h-1.5c-2.7,0-4-1.3-4-3.9   c0-2.7,1.7-4,5-4h43.4c4,0,7.6,0.2,10.9,0.6c5.8,0.8,10.4,3.3,13.8,7.3c3.4,4.1,5.1,9.1,5.1,15.1c0,7.2-2.4,13-7.2,17.3   c-1.1,1-2.2,1.8-3.4,2.4c-1.2,0.6-2.2,0.9-3,0.9c-1.5,0.2-2.2,0.4-2.2,0.9l0.2,0.9l1.1,1.7l16.7,26c2.5,4,4.3,6.1,5.2,6.5l1.5,0.5   c2.4,0.9,3.5,2.2,3.5,3.8c0,1.2-0.4,2.2-1.3,3c-0.9,0.8-1.9,1.2-3.2,1.2h-26.2l-17.5-36.5c-1-2.5-2.7-3.8-5.3-3.8h-1.1l-2.1,0.7   v2.4v19.7v1v4.6c0.2,1.1,0.6,2,1.3,2.7s1.6,1.2,2.7,1.2h1.6c2.6,0,3.9,1.3,3.9,4c0,2.6-1.7,4-5,4H124z M153.4,459v27.8   c2,0.6,4,1,5.9,1c3.7,0,6.8-1.6,9.3-4.9c2.5-3.2,3.8-7.3,3.8-12.3c0-4.9-1.1-8.8-3.4-11.7c-2.3-2.9-5.3-4.4-9.1-4.4h-2.3   c-1.6,0-2.7,0.3-3.2,0.8C153.7,455.9,153.4,457.1,153.4,459z"/>
	<path class="st0" d="M214.8,454.3c-2.7,0-4-1.3-4-3.9c0-2.5,1.7-3.8,5-3.8h33.4c3.3,0,5,1.3,5,3.8c0,1.1-0.4,2-1.1,2.8   s-1.7,1.1-2.9,1.1h-1.3c-1.2,0-2.2,0.3-2.8,1c-0.7,0.7-1,1.7-1.1,2.9c-0.1,1.2-0.1,2.7-0.1,4.5v0.7V507c0,5.8,1.4,10,4.2,12.5   c2.8,2.6,7.3,3.9,13.6,3.9c12,0,18.1-7.1,18.1-21.3v-38.4v-0.7v-4.8c0-1.1-0.4-2-1.1-2.7c-0.7-0.7-1.6-1.1-2.7-1.1h-1.6   c-2.6,0-4-1.3-4-3.8c0-2.6,1.7-3.8,5.1-3.8h17.1c3.3,0,5,1.3,5,3.8c0,2.6-1.3,3.8-3.9,3.8H293c-0.6,0-1,0.1-1.3,0.2   c-0.3,0.1-0.8,0.5-1.4,1c-0.6,0.6-1,1.5-1,2.7c-0.1,1.2-0.1,2.8-0.1,4.6v0.7v42.1c0,4.2-0.5,7.9-1.5,11c-1,3.1-2.7,6-4.9,8.8   c-5.8,7.3-15,11-27.8,11c-11.1,0-19.6-2.7-25.6-8.1c-6-5.4-9-13-9-23v-41.9v-0.7l-0.1-4.6c0-1.1-0.4-2.1-1.1-2.8   c-0.7-0.7-1.6-1.1-2.7-1.1H214.8z"/>
	<path class="st0" d="M322.7,518.3v4.6c0,1.1,0.4,2,1.1,2.7c0.7,0.7,1.6,1.1,2.7,1.1h1.6c1.1,0,2,0.4,2.8,1.1   c0.8,0.7,1.2,1.6,1.2,2.7c0,2.8-1.7,4.1-5.1,4.1h-16.6c-3.4,0-5.1-1.4-5.1-4.1c0-1.1,0.4-2,1.1-2.7c0.7-0.7,1.7-1.1,2.9-1.1h1.5   c1.1,0,1.9-0.3,2.5-1c0.6-0.7,1-1.4,1.2-2.3c0.2-0.8,0.2-2.6,0.2-5.2v-0.9v-53.6v-0.6v-4.6c0-1.1-0.4-2.1-1.1-2.8   c-0.7-0.7-1.6-1.1-2.7-1.1h-1.5c-2.7,0-4.1-1.3-4.1-3.9c0-1.1,0.4-2,1.1-2.8c0.7-0.8,1.7-1.2,2.9-1.2h1h20.3l44,50   c1.4,1.5,2.3,2.2,2.7,2.2c0.7,0,1.1-1.1,1.1-3.2v-31.8v-0.7v-4.6c0-1.1-0.4-2.1-1.1-2.8c-0.7-0.7-1.6-1.1-2.7-1.1H373   c-2.6,0-4-1.3-4-4c0-2.6,1.3-4,3.9-4h1.1h17.1h1.2c2.5,0,3.8,1.3,3.8,4c0,1.2-0.4,2.1-1.1,2.9c-0.7,0.7-1.6,1.1-2.7,1.1h-1.6   c-1.2,0-2.1,0.3-2.7,1c-0.6,0.7-0.9,1.3-1.1,1.8c-0.2,0.6-0.2,1.8-0.2,3.8v2v0.7v64.9v5.2c-0.1,0.6-0.5,1.2-1.2,1.8   c-0.7,0.5-1.6,0.8-2.6,0.8c-2.1,0-4.6-1.5-7.5-4.6l-52.9-58.8l0.1,44.2V518.3z"/>
	<path class="st0" d="M408.1,534.6c-1.5,0-2.8-0.4-3.7-1.1c-0.9-0.7-1.3-1.7-1.3-3c0-1.1,0.4-2,1.1-2.7c0.7-0.7,1.7-1.1,2.8-1.1h1.6   c1.2,0,2.1-0.4,2.6-1.1c0.6-0.6,1-1.3,1.2-2.1s0.2-2.6,0.2-5.4v-0.9v-53.7v-0.7l-0.1-4.7c0-1.1-0.4-2.1-1.1-2.8   c-0.7-0.7-1.6-1.1-2.7-1.1H407c-2.6,0-3.9-1.3-3.9-3.8c0-2.5,1.7-3.8,5-3.8h39.3c13.5,0,24.3,4,32.5,12.1   c8.1,8.1,12.2,18.7,12.2,32.1c0,13.9-3.8,24.7-11.5,32.3c-7.6,7.6-18.4,11.5-32.3,11.5H408.1z M444,454.2c-2.6,0-4.4,0.5-5.4,1.6   c-1,1.1-1.5,3-1.5,6v59.4c0,2.3,0.3,3.7,1,4.1c0.3,0.4,1,0.7,2.1,1s2.4,0.4,3.8,0.4c4.6,0,8.7-1.5,12.2-4.5c1.4-1.1,2.6-2.5,3.7-4   c1.1-1.5,2-3.2,2.7-5.2c1.1-3.2,2-6.5,2.7-9.9c0.7-3.4,1-6.8,1-10.2c0-3.7-0.5-7.9-1.5-12.9c-1-4.9-2.2-9.2-3.7-12.7   c-1.7-4-4.1-7.2-7.1-9.5C451,455.4,447.6,454.2,444,454.2z"/>
	<path class="st0" d="M579.7,524.6c0,1.3-0.3,2.2-0.9,2.6c-3.3,3-7.8,5.4-13.3,7.1c-5.5,1.7-11.5,2.6-17.8,2.6   c-13.5,0-24.4-4.2-32.6-12.6c-8.2-8.4-12.3-19.5-12.3-33.3c0-13.6,4.1-24.7,12.4-33.4c8.3-8.7,18.9-13,31.9-13   c4.1,0,8.8,0.6,13.9,1.8c2.4,0.7,3.8,1,4.1,1.1c2.4,0.7,4,1.4,4.9,2.1c0.7,0.4,1.1,0.7,1.3,0.8c0.2,0.1,0.5,0.2,0.9,0.3   c0.7,0,1.5-0.7,2.6-2.2l0.7-1.1l0.6-0.5l1.5-0.4c2.6,0,3.9,2.4,3.9,7.1v16.5c0,2.4-0.3,4-0.9,4.9c-0.6,0.9-1.7,1.4-3.2,1.4   c-1.2,0-2.1-0.3-2.7-0.9c-0.6-0.6-1.2-1.8-1.9-3.8c-1.2-4.1-3.9-8.1-7.9-11.7c-2.4-2.4-4.6-4-6.6-4.9c-2-0.9-4.4-1.3-7.2-1.3   c-10.4,0-16.8,6.7-19.2,20c-1.1,6-1.7,12.4-1.7,19.2c0,22.7,5.8,34,17.4,34c3.4,0,5.8-0.9,7.2-2.6c1.4-1.7,2.1-4.8,2.1-9.1v-5.6   v-0.9c0-1.3-0.4-2.4-1.2-3.4c-0.8-1-1.8-1.5-2.8-1.5h-1.6c-1.1,0-2-0.4-2.7-1.1s-1.1-1.6-1.1-2.6c0-2.7,1.7-4,5-4h31.4   c3.3,0,5,1.3,5,4c0,1-0.4,1.9-1.1,2.6c-0.7,0.7-1.6,1.1-2.7,1.1h-1.6c-1.1,0-2,0.4-2.7,1.3s-1.1,2-1.1,3.4v1.1V524.6z"/>
	<path class="st0" d="M613.3,527.2h0.5c2.4,0,3.5,1.2,3.5,3.5c0,2.6-1.7,3.9-5.1,3.9H590c-2.8,0-4.3-1.2-4.3-3.7   c0-0.8,0.3-1.5,1-2.3c0.7-0.8,1.4-1.2,2.3-1.4l0.7-0.1c2-0.5,3.9-2.2,5.5-5.1c2.3-4.2,4.3-8.9,6.1-14.1l15.7-45.1l0.4-1.5L617,460   l-1.1-1.8l-0.2-1.2c0-0.5,0.3-1,1-1.6l12.4-9.8c1.6-1.4,2.9-2.1,3.8-2.1c1.1,0,2,0.9,2.7,2.8l30,73.7c0.6,1.5,1.2,2.7,1.6,3.6   c0.4,0.9,0.8,1.6,1.3,2.2c0.4,0.6,1.4,0.9,2.7,0.9h0.5c1.1,0,1.9,0.3,2.6,1c0.7,0.7,1,1.6,1,2.7c0,1.6-0.4,2.7-1.1,3.3   c-0.7,0.6-2.2,0.9-4.4,0.9h-33.2c-3.3,0-5-1.3-5-3.8c0-1.1,0.4-2.1,1.1-2.9c0.7-0.8,1.7-1.2,2.8-1.2h1.2h1.8c0.7,0,1.3-0.4,1.8-1.1   c0.5-0.7,0.7-1.6,0.7-2.7c0-0.7-0.1-1.4-0.2-2c-0.1-0.6-0.4-1.6-0.9-3.1l-4.5-12.3c-0.2-0.8-0.5-1.3-0.9-1.5   c-0.4-0.2-1.1-0.3-2.3-0.3h-18.3c-1.5,0-2.4,0.6-2.7,1.8l-1.8,6.9c-1,3.4-1.5,6.9-1.5,10.5c0,1.1,0.3,2,1,2.9   c0.7,0.9,1.4,1.3,2.2,1.3H613.3z M615.6,493.4c0,0.7,0.5,1.1,1.5,1.1h11.6c1.2,0,1.8-0.3,1.8-1l-0.4-1.3l-6.9-17.4   c-0.2-0.3-0.4-0.7-0.6-1c-0.2-0.1-0.3-0.2-0.4-0.2c-0.6,0.6-0.9,1-1,1.2l-5.5,17.8L615.6,493.4z"/>
	<path class="st0" d="M695.1,518.3v4.6c0,1.1,0.4,2,1.1,2.7c0.7,0.7,1.6,1.1,2.7,1.1h1.6c1.1,0,2,0.4,2.8,1.1   c0.8,0.7,1.2,1.6,1.2,2.7c0,2.8-1.7,4.1-5.1,4.1h-16.6c-3.4,0-5.1-1.4-5.1-4.1c0-1.1,0.4-2,1.1-2.7c0.7-0.7,1.7-1.1,2.9-1.1h1.5   c1.1,0,1.9-0.3,2.5-1c0.6-0.7,1-1.4,1.2-2.3c0.2-0.8,0.2-2.6,0.2-5.2v-0.9v-53.6v-0.6v-4.6c0-1.1-0.4-2.1-1.1-2.8   c-0.7-0.7-1.6-1.1-2.7-1.1h-1.5c-2.7,0-4.1-1.3-4.1-3.9c0-1.1,0.4-2,1.1-2.8c0.7-0.8,1.7-1.2,2.9-1.2h1H703l44,50   c1.4,1.5,2.3,2.2,2.7,2.2c0.7,0,1.1-1.1,1.1-3.2v-31.8v-0.7v-4.6c0-1.1-0.4-2.1-1.1-2.8c-0.7-0.7-1.6-1.1-2.7-1.1h-1.6   c-2.6,0-4-1.3-4-4c0-2.6,1.3-4,3.9-4h1.1h17.1h1.2c2.5,0,3.8,1.3,3.8,4c0,1.2-0.4,2.1-1.1,2.9c-0.7,0.7-1.6,1.1-2.7,1.1h-1.6   c-1.2,0-2.1,0.3-2.7,1c-0.6,0.7-0.9,1.3-1.1,1.8c-0.2,0.6-0.2,1.8-0.2,3.8v2v0.7v64.9v5.2c-0.1,0.6-0.5,1.2-1.2,1.8   c-0.7,0.5-1.6,0.8-2.6,0.8c-2.1,0-4.6-1.5-7.5-4.6l-52.9-58.8l0.1,44.2V518.3z"/>
	<path class="st0" d="M854.1,524.6c0,1.3-0.3,2.2-0.9,2.6c-3.3,3-7.8,5.4-13.3,7.1c-5.5,1.7-11.5,2.6-17.8,2.6   c-13.5,0-24.4-4.2-32.6-12.6c-8.2-8.4-12.3-19.5-12.3-33.3c0-13.6,4.1-24.7,12.4-33.4c8.3-8.7,18.9-13,31.9-13   c4.1,0,8.8,0.6,13.9,1.8c2.4,0.7,3.8,1,4.1,1.1c2.4,0.7,4,1.4,4.9,2.1c0.7,0.4,1.1,0.7,1.3,0.8c0.2,0.1,0.5,0.2,0.9,0.3   c0.6,0,1.5-0.7,2.6-2.2l0.7-1.1l0.6-0.5l1.5-0.4c2.6,0,3.9,2.4,3.9,7.1v16.5c0,2.4-0.3,4-0.9,4.9c-0.6,0.9-1.7,1.4-3.2,1.4   c-1.2,0-2.1-0.3-2.7-0.9c-0.6-0.6-1.2-1.8-1.9-3.8c-1.2-4.1-3.9-8.1-7.9-11.7c-2.4-2.4-4.6-4-6.6-4.9c-2-0.9-4.4-1.3-7.2-1.3   c-10.4,0-16.8,6.7-19.2,20c-1.1,6-1.7,12.4-1.7,19.2c0,22.7,5.8,34,17.4,34c3.4,0,5.8-0.9,7.2-2.6c1.4-1.7,2.1-4.8,2.1-9.1v-5.6   v-0.9c0-1.3-0.4-2.4-1.2-3.4c-0.8-1-1.8-1.5-2.8-1.5h-1.6c-1.1,0-2-0.4-2.7-1.1c-0.7-0.7-1.1-1.6-1.1-2.6c0-2.7,1.7-4,5-4h31.4   c3.3,0,5,1.3,5,4c0,1-0.4,1.9-1.1,2.6c-0.7,0.7-1.6,1.1-2.7,1.1h-1.6c-1.1,0-2,0.4-2.7,1.3c-0.7,0.9-1.1,2-1.1,3.4v1.1V524.6z"/>
</g>
</svg>