<?xml version="1.0" encoding="utf-8"?>
<!-- Generator: Adobe Illustrator 24.0.0, SVG Export Plug-In . SVG Version: 6.00 Build 0)  -->
<svg version="1.1" id="Layer_1" xmlns="http://www.w3.org/2000/svg" xmlns:xlink="http://www.w3.org/1999/xlink" x="0px" y="0px"
	 viewBox="0 0 331.5 352" style="enable-background:new 0 0 331.5 352;" xml:space="preserve">
<style type="text/css">
	.st0{fill:rgba(0,0,0,0.1);}
</style>
<title>Latinio | Pizzeria Ristorante Berlin</title>
<g>
	<g>
		<g>
			<path class="st0" d="M199.7,214.5c3.2-6.5,7.5-12.3,12.9-17.2c4.9-4.5,11-6.8,18.6-6.8c4.1-0.1,8.1,0.7,11.8,2.5
				c3,1.3,5.5,3.4,7.4,6c1.9,2.1,3.4,4.5,4.4,7.1c0.8,2.4,1.5,4.3,1.9,5.8c4.4,15.5,0.6,28.4-11.2,38.7
				c-11.6,10.4-29.1,15.8-52.4,16.2c-14.8-0.4-33.7-4.5-56.5-12.3c-13.8,7.7-29.3,11.9-45.2,12.3c-8,0-14.8-1.3-20.4-3.9
				c-5.7-2.6-9.4-6.3-11-11.5c-1-3.2-0.3-6.7,2-9.1c2.4-2.7,7.4-4.2,15.2-4.4c15.9,0.2,33.8,4.1,53.6,11.8
				c6.9-10.2,12-21.5,15.1-33.5c3.4-12.4,7.3-24.5,11.5-36.3c-16.2,0.1-32.3-3.3-47.1-10.1c-7-3.2-13.4-7.7-18.9-13.2
				c-5.5-5.2-9.6-11.8-11.7-19c-4.8-16.9-2.6-29.3,6.7-37.3c2.2-2.1,4.8-4,7.5-5.4c2.8-1.4,5.7-2.6,8.7-3.5c3.4-1,6.8-1.8,10.3-2.2
				c3.7-0.5,7.4-0.8,11.1-0.7c8.9,0,17.7,0.9,26.4,2.9c8.4,2.1,18.1,5.9,29,11.5l-0.8,2.9c-12.4-6.3-22.5-10.4-30.4-12.4
				c-7.7-1.6-15.5-2.3-23.4-2.1c-9.2,0.2-16.6,1.6-22.1,4.4c-5,2.5-9.1,6.4-11.7,11.3c-2.2,4.4-3.4,9.3-3.3,14.3
				c-0.3,4.9,0.3,9.8,1.6,14.5c4.5,14.6,13,25.1,25.3,31.6c12.1,6.6,26.6,9.9,43.5,9.9c3.3-11.2,7.9-22,13.6-32.1
				c6.2-10.9,13.2-21.3,21-31.1c8.2-9.6,16.6-17.6,25.6-23.6c8.7-5.9,17.3-9.1,25.6-9.2c4.5-0.1,9,0.8,13.2,2.6
				c3.8,2.1,6.7,6.3,8.7,12.4c1.7,6.3,0.9,13.4-2.6,21.2c-3.5,8-9.1,16.2-16.6,24.4c-15.5,17.1-35.4,29.2-59.6,36.4
				c-8.3,31.2-24.3,56.1-47.8,74.8c21.3,7.1,38.4,10.8,51.3,11c7.9-0.1,15.6-2.1,22.6-5.8c7.5-3.7,14.6-8.4,20.9-14
				c5.7-5.4,10.4-11.8,13.8-18.9c2.9-6.8,3.5-13.2,1.9-19.2c-1.3-4.4-3.5-7.7-6.4-9.6c-2.9-2-6.4-3-10-3c-7.8,0.2-13.9,2.3-18.4,6.5
				c-5.1,5-9.6,10.6-13.4,16.7L199.7,214.5z M62.5,251.5c2.4,7.9,11.7,12,27.9,12.3c5.5,0,11.8-1.1,18.9-3.2
				c6.8-1.8,13.2-4.8,19-8.9c-20.9-7.5-37.3-11.2-49.6-11.2c-7.7,0.2-12.4,1.3-14.4,3.5C62.2,246.4,61.6,249,62.5,251.5L62.5,251.5z
				 M247,83.8c-12.8,0.3-23.7,9.3-32.7,27.1c-9,17.4-18,38.6-27,63.6l0.6,0.5c22.4-7.4,41.2-19.4,56.4-35.9
				c7.3-7.8,12.8-15.6,16.3-23.1c3.3-7.7,4.2-14.4,2.7-20C260.7,87.8,255.3,83.8,247,83.8L247,83.8z"/>
		</g>
	</g>
	<g>
		<path class="st0" d="M165.7,320.4c-79.6,0-144.4-64.8-144.4-144.4c0-79.6,64.8-144.4,144.4-144.4S310.1,96.4,310.1,176
			C310.1,255.6,245.3,320.4,165.7,320.4z M165.7,37.6C89.5,37.6,27.4,99.7,27.4,176c0,76.3,62.1,138.4,138.4,138.4
			c76.3,0,138.4-62.1,138.4-138.4C304.1,99.7,242,37.6,165.7,37.6z"/>
	</g>
</g>
</svg>
