<svg xmlns="http://www.w3.org/2000/svg" xmlns:xlink="http://www.w3.org/1999/xlink" version="1.1" id="Layer_1" x="0px" y="0px" style="enable-background:new 0 0 1000 1000;" xml:space="preserve" viewBox="216.8 445.1 523.4 91.5">
<style type="text/css">
	.st0{fill:rgb(54, 69, 79);}
</style>
<g>
	<path class="st0" d="M220.8,454.3c-2.7,0-4-1.3-4-3.9c0-2.5,1.7-3.8,5-3.8h33.4c3.3,0,5,1.3,5,3.8c0,1.1-0.4,2-1.1,2.8   s-1.7,1.1-2.9,1.1h-1.3c-1.2,0-2.2,0.3-2.8,1c-0.7,0.7-1,1.7-1.1,2.9c-0.1,1.2-0.1,2.7-0.1,4.5v0.7V507c0,5.8,1.4,10,4.2,12.5   c2.8,2.6,7.3,3.9,13.6,3.9c12,0,18.1-7.1,18.1-21.3v-38.4v-0.7v-4.8c0-1.1-0.4-2-1.1-2.7c-0.7-0.7-1.6-1.1-2.7-1.1h-1.6   c-2.6,0-4-1.3-4-3.8c0-2.6,1.7-3.8,5.1-3.8h17.1c3.3,0,5,1.3,5,3.8c0,2.6-1.3,3.8-3.9,3.8H299c-0.6,0-1,0.1-1.3,0.2   c-0.3,0.1-0.8,0.5-1.4,1c-0.6,0.6-1,1.5-1,2.7c-0.1,1.2-0.1,2.8-0.1,4.6v0.7v42.1c0,4.2-0.5,7.9-1.5,11c-1,3.1-2.7,6-4.9,8.8   c-5.8,7.3-15,11-27.8,11c-11.1,0-19.6-2.7-25.6-8.1c-6-5.4-9-13-9-23v-41.9v-0.7l-0.1-4.6c0-1.1-0.4-2.1-1.1-2.8   c-0.7-0.7-1.6-1.1-2.7-1.1H220.8z"/>
	<path class="st0" d="M328.8,518.3v4.6c0,1.1,0.4,2,1.1,2.7c0.7,0.7,1.6,1.1,2.7,1.1h1.6c1.1,0,2,0.4,2.8,1.1   c0.8,0.7,1.2,1.6,1.2,2.7c0,2.8-1.7,4.1-5.1,4.1h-16.6c-3.4,0-5.1-1.4-5.1-4.1c0-1.1,0.4-2,1.1-2.7c0.7-0.7,1.7-1.1,2.9-1.1h1.5   c1.1,0,1.9-0.3,2.5-1c0.6-0.7,1-1.4,1.2-2.3c0.2-0.8,0.2-2.6,0.2-5.2v-0.9v-53.6v-0.6v-4.6c0-1.1-0.4-2.1-1.1-2.8   c-0.7-0.7-1.6-1.1-2.7-1.1h-1.5c-2.7,0-4.1-1.3-4.1-3.9c0-1.1,0.4-2,1.1-2.8c0.7-0.8,1.7-1.2,2.9-1.2h1h20.3l44,50   c1.4,1.5,2.3,2.2,2.7,2.2c0.7,0,1.1-1.1,1.1-3.2v-31.8v-0.7v-4.6c0-1.1-0.4-2.1-1.1-2.8c-0.7-0.7-1.6-1.1-2.7-1.1h-1.6   c-2.6,0-4-1.3-4-4c0-2.6,1.3-4,3.9-4h1.1h17.1h1.2c2.5,0,3.8,1.3,3.8,4c0,1.2-0.4,2.1-1.1,2.8s-1.6,1.1-2.7,1.1h-1.6   c-1.2,0-2.1,0.3-2.7,1c-0.6,0.7-0.9,1.3-1.1,1.8c-0.2,0.6-0.2,1.8-0.2,3.8v2v0.7v64.9v5.2c-0.1,0.7-0.5,1.2-1.2,1.8   c-0.7,0.5-1.6,0.8-2.6,0.8c-2.1,0-4.6-1.5-7.5-4.6l-52.9-58.8l0.1,44.2V518.3z"/>
	<path class="st0" d="M421.1,507l3.1,6.4c4.3,8.4,10.8,12.6,19.5,12.6c4.4,0,7.8-1,10.1-2.9c2.4-2,3.5-4.8,3.5-8.4   c0-2-0.7-3.9-2-5.9c-0.9-1.1-1.5-1.7-1.8-2.1c-1-0.8-1.7-1.4-2.2-1.8c-1.7-1.3-3.6-2.4-5.6-3.2c-2-0.9-5.4-2.1-10.3-3.6   c-8.5-2.8-14.7-6.1-18.4-10.1c-3.7-4-5.6-9.2-5.6-15.7c0-7.6,2.5-13.9,7.4-19.2c2.8-2.8,5.4-4.8,7.7-5.7c2.6-1,4.9-1.6,6.8-1.9   c2-0.3,4.3-0.4,7.1-0.4h2.3c2.3,0,4.7,0.3,7.1,0.9c2.5,0.6,4.5,1.3,6.2,2.2l1.8,0.5c0.5,0,0.9-0.2,1.1-0.5l0.7-1.5   c0.6-1.1,1.5-1.6,2.7-1.6c2.2,0,3.3,1.8,3.3,5.2l1.2,17.1l0.1,1.7c0,2.4-1,3.5-3,3.5l-1.6-0.4l-1.1-0.7l-1-1.5l-1.2-2.3   c-4.6-8.8-10.9-13.2-19-13.2c-3.4,0-6.2,0.8-8.2,2.5c-2.1,1.7-3.1,3.9-3.1,6.8c0,2.1,0.8,4.1,2.4,5.9c1.1,1.1,2.9,2.3,5.5,3.5   c2.6,1.2,6.8,2.8,12.7,4.8c5,1.7,8.7,3.1,10.9,4.1c2.2,1.1,4.4,2.4,6.5,4.1c6.1,4.8,9.2,11.4,9.2,19.9c0,8.9-3.2,16.3-9.6,22.2   c-3.1,3-6.3,5.1-9.6,6.3c-3.3,1.2-7.6,1.8-12.7,1.8c-3.2,0-6.2-0.2-9.1-0.7s-5.1-1.2-6.8-2l-3.4-2l-2-0.4c-1.3,0-2.3,0.7-2.9,2.2   c-0.7,1.5-1.5,2.2-2.6,2.2c-2.2,0-3.3-1.7-3.3-5.1l-1.3-23.6v-1.2c0-2.5,1.1-3.8,3.2-3.8c1.5,0,2.6,0.6,3.2,1.8l1.1,1.8L421.1,507z   "/>
	<path class="st0" d="M556.9,534.6h-67.2c-3.3,0-5-1.3-5-3.8c0-2.6,1.3-3.9,4-3.9h1.5c1.5,0,2.6-0.6,3.2-1.7   c0.6-1.1,0.9-3.4,0.9-6.7v-1v-53.8v-0.7l-0.1-4.8c0-1.1-0.4-2-1.1-2.7c-0.7-0.7-1.6-1.1-2.7-1.1h-1.6c-2.6,0-3.9-1.3-3.9-3.8   c0-1.1,0.5-2,1.5-2.8c1-0.7,2.3-1.1,4-1.1h58.9l5,17.8l0.5,2c0.3,0.8,0.5,1.4,0.5,1.8c0,0.9-0.3,1.7-1,2.3c-0.7,0.7-1.5,1-2.6,1   c-0.8,0-1.4-0.2-1.8-0.6c-0.4-0.4-1.2-1.5-2.3-3.3c-2.3-3.4-5.8-6.5-10.6-9.2c-4.8-2.7-8.9-4.1-12.5-4.1c-2.3,0-3.9,0.7-4.8,2   c-0.4,0.5-0.7,1.1-0.7,1.7c-0.1,0.7-0.1,1.5-0.1,2.4v1.5v21.8c0,1.3,0.1,2.1,0.4,2.4c0.3,0.3,1,0.4,2.1,0.4c6.7,0,10.4-3.3,11.1-10   l0.4-3.4c0.4-2.7,1.5-4,3.2-4c1.3,0,2.4,0.5,3.2,1.5c0.3,0.7,0.5,1.3,0.5,2v3.8v28.5l-0.1,3.3v1.5c-0.5,1.5-1.5,2.2-3,2.2   c-2,0-3.1-1.1-3.5-3.3l-1.1-5.4c-0.5-2.9-1.6-5.2-3.4-7s-4-2.6-6.6-2.6c-1.1,0-1.9,0.2-2.4,0.5c-0.4,0.4-0.7,1.2-0.7,2.4v20.7   l0.1,4.5c0.5,3.4,2.6,5.1,6.5,5.1c6.3,0,12.6-2,19.2-6c3.7-2.3,6.5-4.6,8.5-6.8c0.9-0.7,1.5-1.3,2-1.8c0.2-0.2,1-1.3,2.6-3.3   c1.6-2,2.8-3,3.6-3c2.1,0,3.2,1.1,3.2,3.2c0,0.6-0.1,1.2-0.2,2c-0.2,0.8-0.5,2.1-1.1,3.8L556.9,534.6z"/>
	<path class="st0" d="M573.5,534.6h-1.3c-0.9,0-1.7-0.4-2.3-1.2c-0.7-0.8-1-1.8-1-3c0-1.1,0.4-2,1.2-2.7c0.8-0.7,1.7-1.1,2.9-1.1   h1.5c2.7,0,4-2.4,4-7.1l-0.1-1.5v-1V464v-0.9l-0.1-4.7c0-1.1-0.4-1.9-1.1-2.7c-0.7-0.7-1.6-1.1-2.7-1.1h-1.5c-2.7,0-4-1.3-4-3.9   c0-2.7,1.7-4,5-4h43.4c4,0,7.6,0.2,10.9,0.6c5.8,0.8,10.4,3.3,13.8,7.3c3.4,4.1,5.1,9.1,5.1,15.1c0,7.2-2.4,13-7.2,17.3   c-1.1,1-2.2,1.8-3.4,2.4c-1.2,0.6-2.2,0.9-3,0.9c-1.5,0.2-2.2,0.4-2.2,0.9l0.2,0.9l1.1,1.7l16.7,26c2.5,4,4.3,6.1,5.2,6.5l1.5,0.5   c2.4,0.9,3.5,2.2,3.5,3.8c0,1.2-0.4,2.2-1.3,3c-0.9,0.8-1.9,1.2-3.2,1.2h-26.2l-17.5-36.5c-1-2.5-2.7-3.8-5.3-3.8H605l-2.1,0.7v2.4   v19.7v1v4.6c0.2,1.1,0.6,2,1.3,2.7c0.7,0.8,1.6,1.2,2.7,1.2h1.6c2.6,0,3.9,1.3,3.9,4c0,2.6-1.7,4-5,4H573.5z M602.9,459v27.8   c2,0.6,4,1,5.9,1c3.7,0,6.8-1.6,9.3-4.9c2.5-3.2,3.8-7.3,3.8-12.3c0-4.9-1.1-8.8-3.4-11.7c-2.3-2.9-5.3-4.4-9.2-4.4h-2.3   c-1.6,0-2.7,0.3-3.2,0.8C603.2,455.9,602.9,457.1,602.9,459z"/>
	<path class="st0" d="M732.5,534.6h-67.2c-3.3,0-5-1.3-5-3.8c0-2.6,1.3-3.9,4-3.9h1.5c1.5,0,2.6-0.6,3.2-1.7   c0.6-1.1,0.9-3.4,0.9-6.7v-1v-53.8v-0.7l-0.1-4.8c0-1.1-0.4-2-1.1-2.7c-0.7-0.7-1.6-1.1-2.7-1.1h-1.6c-2.6,0-3.9-1.3-3.9-3.8   c0-1.1,0.5-2,1.5-2.8c1-0.7,2.3-1.1,4-1.1h58.9l5,17.8l0.5,2c0.3,0.8,0.5,1.4,0.5,1.8c0,0.9-0.3,1.7-1,2.3c-0.7,0.7-1.5,1-2.6,1   c-0.8,0-1.4-0.2-1.8-0.6c-0.4-0.4-1.2-1.5-2.3-3.3c-2.3-3.4-5.8-6.5-10.6-9.2c-4.8-2.7-8.9-4.1-12.5-4.1c-2.3,0-3.9,0.7-4.8,2   c-0.4,0.5-0.7,1.1-0.7,1.7c-0.1,0.7-0.1,1.5-0.1,2.4v1.5v21.8c0,1.3,0.1,2.1,0.4,2.4c0.3,0.3,1,0.4,2.1,0.4c6.7,0,10.4-3.3,11.1-10   l0.4-3.4c0.4-2.7,1.5-4,3.2-4c1.3,0,2.4,0.5,3.2,1.5c0.3,0.7,0.5,1.3,0.5,2v3.8v28.5l-0.1,3.3v1.5c-0.5,1.5-1.5,2.2-3.1,2.2   c-2,0-3.1-1.1-3.5-3.3l-1.1-5.4c-0.5-2.9-1.6-5.2-3.4-7c-1.8-1.7-4-2.6-6.6-2.6c-1.1,0-1.9,0.2-2.4,0.5c-0.4,0.4-0.7,1.2-0.7,2.4   v20.7l0.1,4.5c0.5,3.4,2.6,5.1,6.5,5.1c6.3,0,12.6-2,19.2-6c3.7-2.3,6.5-4.6,8.5-6.8c0.9-0.7,1.5-1.3,2-1.8c0.2-0.2,1-1.3,2.6-3.3   c1.6-2,2.8-3,3.6-3c2.1,0,3.2,1.1,3.2,3.2c0,0.6-0.1,1.2-0.2,2c-0.2,0.8-0.5,2.1-1.1,3.8L732.5,534.6z"/>
</g>
</svg>